<?xml version="1.0" encoding="UTF-8"?>
<!DOCTYPE svg PUBLIC "-//W3C//DTD SVG 1.1//EN" "http://www.w3.org/Graphics/SVG/1.1/DTD/svg11.dtd">
<!-- Creator: CorelDRAW 2019 -->
<svg xmlns="http://www.w3.org/2000/svg" xml:space="preserve" width="244px" height="128px" version="1.1" style="shape-rendering:geometricPrecision; text-rendering:geometricPrecision; image-rendering:optimizeQuality; fill-rule:evenodd; clip-rule:evenodd"
viewBox="0 0 26.46 13.93"
 xmlns:xlink="http://www.w3.org/1999/xlink">
 <defs>
  <style type="text/css">
   <![CDATA[
    .fil0 {fill:#FCD6AD;fill-rule:nonzero}
    .fil1 {fill:#7A2922;fill-rule:nonzero}
   ]]>
  </style>
 </defs>
 <g id="Layer_x0020_1">
  <metadata id="CorelCorpID_0Corel-Layer"/>
  <path class="fil0" d="M19.42 1.01c0.04,-0.02 0.02,-0.01 0.01,0l-0.01 0zm0.23 -0.28c0,0 -0.01,0.01 -0.02,0.01 0.01,0 0.01,-0.01 0.02,-0.01zm-0.4 0.35c0.03,0.02 0.06,0.02 0.09,0.02 0.03,0 0.06,0.01 0.09,-0.01 0.11,0.17 0.31,0.22 0.32,0.22 0.12,0.04 0.35,0.17 0.51,0.11 0.42,-0.25 -0.13,-0.15 0.62,-0.04 0.17,0.02 0.36,0.03 0.48,-0.09 0.24,0.13 0.49,0.11 0.55,0.03 0.03,-0.05 0.01,-0.11 0.02,-0.16 0.05,0.03 0.02,0 0.01,0.04 -0.01,0.08 0.09,0.07 0.14,0.09 0.28,0.1 0.53,-0.03 0.54,-0.12 0.42,0.06 0.47,-0.14 0.36,-0.16 -0.23,-0.05 -0.02,-0.03 0.08,-0.04 0.12,-0.02 0.22,-0.08 0.33,-0.13 0.25,-0.09 -0.26,-0.21 -0.54,-0.19 0,-0.06 -0.07,-0.07 -0.11,-0.08 -0.03,-0.01 -0.07,-0.02 -0.1,0 -0.27,-0.04 -0.28,0.03 -0.41,0.09 -0.31,-0.07 -0.44,-0.01 -0.56,0.02 0,-0.05 0.05,-0.1 0.02,-0.14 -0.02,-0.02 -0.04,-0.02 -0.06,-0.02 -0.08,-0.02 -0.17,-0.01 -0.25,0.01 -0.19,0.03 -0.2,0.17 -0.25,0.16 -0.49,-0.09 -0.84,-0.02 -0.86,0.05 -0.15,0.05 0,-0.02 -0.01,-0.09 0.1,-0.14 -0.02,-0.17 -0.14,-0.14 -0.16,-0.15 -0.56,0.1 -0.55,0.16 -0.04,0.06 -0.07,0.13 -0.12,0.19 -0.1,0.06 -0.15,0.07 -0.14,0.12 0,0 -0.12,0.01 -0.13,0.03 -0.02,0 -2.86,0.19 -2.86,0.19 -0.05,0 -0.05,0.07 0,0.07 1.15,-0.02 2.04,-0.16 2.93,-0.19z"/>
  <path class="fil0" d="M9.9 0.27c-0.06,0.01 -0.04,0.11 0.02,0.1 0.06,0.01 0.12,-0.1 -0.02,-0.1z"/>
  <path class="fil0" d="M11.26 3.11c-0.03,0.05 0.03,0.06 0.16,0.12 0.5,0.21 0.4,0.23 0.86,0.68 0.11,0.11 0.04,0.05 0.09,0.13 0.03,0.04 0.09,0.01 0.09,-0.03 0.09,-0.06 -0.05,-0.17 -0.09,-0.22 0.08,-0.05 -0.04,-0.15 -0.15,-0.24 -0.29,-0.25 -0.41,-0.26 -0.66,-0.38 -0.12,-0.06 -0.16,-0.09 -0.19,-0.06 -0.04,-0.02 -0.09,-0.05 -0.11,0z"/>
  <path class="fil0" d="M10.25 2.59c0,-0.03 -0.03,-0.05 -0.06,-0.06 -0.12,-0.04 -0.15,-0.08 -0.63,-0.3 -0.09,-0.05 -0.1,-0.03 0.02,-0.05 0.04,-0.01 0.11,0 0.14,-0.02 0.07,0.02 0.13,0.04 0.2,0.06 0.22,0.21 0.21,0.18 0.23,0.22 0.03,0.04 0.09,0.01 0.08,-0.03 0.02,0 -0.01,0.13 0.05,0.14 0.02,0.07 0.03,0.06 -0.03,0.04zm-1.09 -0.51c-0.01,-0.01 -0.02,-0.01 -0.03,-0.01 0.02,-0.01 0.04,-0.04 0.03,-0.06 0.21,0.06 0.31,0.02 0,0.07l0 0zm-0.72 2.18c0.69,-0.18 0.73,-0.18 1.11,-0.42 0.34,-0.22 0.24,-0.14 0.27,-0.17 0.02,-0.02 0.02,-0.06 -0.01,-0.08 0.51,-0.43 0.31,-0.48 0.52,-0.87 0.04,0.09 0.11,0.26 0.18,0.19 0.27,0.49 1.1,1.47 1.65,1.42 0.04,0 0.08,-0.01 0.12,-0.02 0.03,0.01 0.06,-0.02 0.06,-0.04 -0.02,-0.11 -0.15,0.02 -0.33,-0.04 -0.65,-0.24 -1.37,-1.15 -1.32,-1.22 0.03,-0.01 0.04,-0.06 0.01,-0.08 -0.05,-0.06 -0.06,-0.11 -0.1,-0.1 -0.08,-0.11 -0.04,-0.07 -0.06,-0.11 -0.19,-0.38 -0.42,-0.29 0.21,-0.29 1.89,0.33 1.45,0.18 2.66,0.39 0.22,0.05 1.26,0.32 1.09,0.12 1.02,0.08 0.92,0.26 2.99,0.31 0,0 0.75,0.12 0.82,0.14 0.81,0.15 0.53,0.05 1.03,0.14 0.82,0.05 0.57,-0.02 0.66,0.14 0.04,0.05 0.31,0.28 0.52,0.26 0.07,0 0.14,0.01 0.19,-0.04 0.25,0.2 0.54,0.17 0.53,0.08 0.17,0.08 0.39,0.16 0.57,0.08 0.16,0.11 0.45,0.15 0.61,0.03 0.2,0.18 0.48,0.17 0.58,0.12 0.24,0.2 0.66,0.04 0.74,-0.08 0.04,-0.1 -0.3,-0.17 -0.4,-0.17 0.04,-0.03 0.05,-0.09 0,-0.12 -0.19,-0.16 -0.39,-0.11 -0.52,-0.12 -0.13,-0.11 -0.32,-0.07 -0.47,-0.05 -0.04,0.01 0,0 -0.04,-0.03 -0.15,-0.07 -0.33,-0.06 -0.49,-0.08 -0.03,-0.03 -0.08,-0.03 -0.12,-0.04 -0.06,0 -0.12,-0.03 -0.17,-0.02 -0.09,-0.03 -0.18,-0.05 -0.27,-0.04 0.07,-0.15 -0.35,-0.16 -0.5,-0.13 0.02,-0.12 -0.12,-0.09 -0.38,-0.05 -0.14,0.02 -0.26,0.1 -0.39,0.16 -0.02,0.01 -0.02,0.03 -0.02,0.05 -0.62,-0.03 -0.9,-0.08 -1.08,-0.1 -0.01,-0.05 -0.1,-0.04 -0.14,-0.04 -0.43,-0.05 -1.43,-0.23 -1.49,-0.17 -0.91,-0.01 -6.02,-0.73 -6.12,-0.76 0.51,-0.04 0.59,-0.1 1.25,-0.08 0.08,0 1.2,0.03 1.24,0.01 0.09,0.05 2.33,-0.11 2.34,-0.11 0.14,-0.03 0.09,-0.03 0.12,-0.02 0.04,0.06 0.07,-0.02 0.3,-0.03 0.33,0.48 0.74,0.45 0.85,0.34 0.07,-0.12 -0.28,-0.25 0.24,-0.01 0.1,0.04 0.38,0.06 0.39,-0.04 0.03,0.02 0.09,0.04 0.11,-0.01 0.12,0.03 0.38,0.05 0.48,-0.03 0.16,0.04 0.3,0.09 0.48,0.06 0.17,0.04 0.22,0.02 0.44,-0.05 0.07,-0.03 0.17,-0.04 0.23,-0.1 0.24,-0.05 0.47,-0.09 0.26,-0.23 -0.18,-0.14 -0.31,-0.13 -0.53,-0.11 -0.1,-0.11 -0.28,-0.12 -0.42,-0.08 -0.05,0.01 -0.09,0.04 -0.14,0.05 -0.11,-0.07 -0.21,-0.12 -0.35,-0.1 -0.21,0.05 -0.31,-0.11 -0.55,-0.02 -0.4,0.18 -0.24,0.11 -0.18,-0.06 0.04,-0.15 -0.29,-0.05 -0.37,-0.01 -0.14,0.07 -0.09,0.11 -0.34,0.2 0.15,-0.18 0.17,-0.18 0.18,-0.22 0.04,-0.2 -0.7,-0.03 -0.78,0.17 -0.05,0.02 -0.11,0.07 -0.09,0.12 -0.46,0.17 -3.04,0.24 -3.72,0.22 -1.23,-0.09 -1.19,0.16 -2.14,0.02 -0.09,-0.01 -0.23,-0.05 -0.22,0.03 -0.05,0.03 0.03,0.11 -0.2,-0.12 0.01,-0.03 -0.02,-0.05 -0.06,-0.06 -0.05,-0.04 -0.08,-0.03 0.13,-0.06 0.02,0.05 0.02,0.12 0.07,0.1 0.04,-0.01 0.02,-0.06 0.01,-0.11 0.18,-0.02 0.68,-0.14 0.87,-0.23 0.48,-0.09 0.02,-0.03 0.83,-0.14 0.02,0.03 0.03,0.01 0.49,-0.06 0.28,-0.04 0.58,-0.01 0.85,-0.11 0.07,-0.01 0.43,-0.03 0.45,-0.09l0.85 -0.02c0.06,-0.01 0.06,-0.1 0,-0.09 -0.22,0.02 -1.18,0.01 -1.23,0.06 -0.5,0.08 -0.67,0.06 -0.9,0.1 -0.24,0.06 -0.16,0.08 -0.61,0.13 -0.34,0.04 -0.3,0.03 -0.57,0.1 -0.02,-0.11 -0.26,0.02 -0.67,0.08 -0.44,0.07 -0.39,0.14 -0.36,-0.07 0,-0.07 -0.11,-0.06 -0.1,0.02 -0.01,0.13 0.01,0.12 -0.02,0.12 0,0 -0.26,0.08 -0.28,0.12 -0.46,-0.35 -0.39,-0.28 -0.49,-0.4 -0.42,-0.48 -0.29,-0.32 -0.39,-0.58 -0.04,-0.12 -0.1,-0.32 -0.05,-0.43 0.05,-0.11 -0.27,-0.17 -0.03,0.5 0.03,0.08 0.05,0.16 0.11,0.22 0.08,0.1 0.14,0.21 0.23,0.31 0.15,0.16 0.17,0.25 0.23,0.2 0.09,0.05 0.17,0.12 0.25,0.19 -0.15,0.03 -1.41,-0.35 -1.42,-0.35 -2.14,-0.47 -1.52,-0.52 -2.97,-0.79l-0.01 0c-0.02,0 -0.04,-0.01 -0.06,-0.01 -0.59,-0.2 -0.74,-0.21 -1.29,-0.35 -0.53,-0.13 -0.65,-0.25 -0.74,-0.1 -0.05,0.12 0.21,0.12 0.5,0.18 0.05,0.16 3.89,0.9 3.03,0.81 -0.16,-0.02 -0.32,-0.03 -0.48,-0.03 -0.08,0 -0.23,-0.05 -0.25,0.06 -0.01,0.23 0.28,0.02 0.95,0.08 0.01,0.06 0.07,0.02 0.08,0.03 0,0.08 0.13,0.01 0.68,0.16 0.77,0.2 0.94,0.34 0.99,0.32 0.09,-0.02 -0.07,-0.08 0.19,0.03 0.22,0.09 0.22,0.04 -0.14,0.12 -0.09,0.02 -0.17,0.02 -0.16,0.08 -0.58,0.06 -1.45,0.25 -1.67,0.3 -0.03,-0.06 -0.1,-0.02 -0.52,0.09 -0.01,-0.04 -0.05,-0.04 -0.08,-0.03 -0.88,0.29 -2.32,0.39 -2.47,0.57 -0.05,0.09 0.07,0.1 0.13,0.1 0.03,0.02 5.32,-1.05 5.32,-1.05 0.58,0.35 0.86,0.22 0.03,0.31 0,0 -5.07,0.9 -5.26,1.08 -0.41,0.33 1.85,-0.42 2.81,-0.49 0.5,-0.03 0.64,-0.14 1.33,-0.26 1.84,-0.35 1.63,-0.39 2.1,-0.18 -0.05,0.09 -0.07,0.21 -0.12,0.29 -0.43,0.54 -0.52,0.78 -1.54,1.1 -0.11,0.03 -0.22,0.09 -0.34,0.11 -0.68,0.15 -0.78,0.07 -0.81,0.14 -0.07,0.12 0.29,0.05 0.71,-0.02 0.03,0.05 0.07,0.02 0.29,-0.04z"/>
  <path class="fil1" d="M9.85 6.12c0.05,0.01 0.04,0.07 0,0.06 -0.04,0 -0.04,-0.07 0,-0.06z"/>
  <path class="fil1" d="M13.32 1.5c0.25,-0.05 0.35,-0.08 0.73,-0.1 4.13,-0.26 5.13,-0.39 5.33,-0.31 -8.39,0.5 -8.5,0.89 -8.86,0.89 0.68,-0.3 1.98,-0.31 2.8,-0.48z"/>
  <path class="fil1" d="M16.36 2.15c0.36,-0.07 0.02,0.03 -0.06,0.05 -0.31,0.09 -2.56,0.2 -2.92,0.13 0.7,-0.1 2.28,0.01 2.98,-0.18z"/>
  <path class="fil1" d="M16 3.07c0,0 2.63,0.37 3.12,0.41 0.58,0.04 0.69,0.02 0.92,0.07 -0.4,0.16 -3.02,-0.36 -4.7,-0.47 -0.38,-0.02 -0.45,-0.06 -1.05,-0.13 0,-0.03 -0.02,-0.06 -0.04,-0.08 1.74,0.24 1.26,0.14 1.75,0.2z"/>
  <path class="fil1" d="M10.9 1.7c1.16,-0.15 1.27,-0.26 2.65,-0.36 1.59,-0.07 1.21,0 2.07,-0.09 1.08,-0.11 5.96,-0.45 2.38,-0.16 -0.02,0 -1.88,0.19 -2.79,0.26 -0.93,0.03 -1.99,0 -3.6,0.31 -1.03,0.21 -1.8,0.22 -0.71,0.04z"/>
  <path class="fil1" d="M19.5 0.68c0.18,-0.26 0.52,-0.3 0.76,-0.18 -0.28,0.06 -0.42,0 -0.56,0.1 -0.14,0.1 -0.21,0.31 -0.39,0.39 -0.02,0 0.08,-0.17 0.19,-0.31z"/>
  <path class="fil1" d="M20.23 0.76c-0.01,0.19 -0.11,0.26 -0.27,0.31 -0.18,0.05 -0.38,0.08 -0.54,-0.01 0.47,-0.01 0.59,-0.03 0.81,-0.3z"/>
  <path class="fil1" d="M19.88 1.05c0.2,0.02 0.45,0 0.56,0.2 -0.07,-0.02 -0.25,-0.11 -0.62,-0.13 -0.71,-0.04 -0.39,-0.1 0.06,-0.07z"/>
  <path class="fil1" d="M19.45 1.11c0.29,0.14 0.11,0.21 0.95,0.33 -0.2,0.13 -0.72,0.01 -0.95,-0.3 -0.01,0 -0.04,-0.05 -0.04,-0.04 0,-0.01 0.03,0.01 0.04,0.01z"/>
  <path class="fil1" d="M20.18 0.75c0.2,-0.15 0.81,-0.22 1.03,-0.07 0.18,0.13 -0.37,-0.13 -1.03,0.07l0 0z"/>
  <path class="fil1" d="M21.12 0.76l0.02 -0.01c-0.04,0.24 -0.35,0.25 -0.61,0.3 -0.1,0.02 -0.22,0.04 -0.32,0.01 0.3,-0.1 0.65,-0.09 0.91,-0.3z"/>
  <path class="fil1" d="M21.41 1.31c-0.27,-0.33 -0.56,-0.26 -0.96,-0.27 -0.2,0 0.92,-0.22 0.96,0.27z"/>
  <path class="fil1" d="M20.38 1.21c-0.01,0.05 0.42,0.25 0.87,0.11 0.04,-0.01 0.08,-0.02 0.11,-0.03 -0.22,0.32 -1.04,0.06 -0.98,-0.08z"/>
  <path class="fil1" d="M21.57 0.5c-0.09,0 -0.36,0.12 -0.42,0.22 0,0.01 -0.02,0.06 -0.01,-0.03 0.03,-0.17 0.31,-0.27 0.43,-0.19z"/>
  <path class="fil1" d="M21.69 0.5c-0.01,0 -0.02,0 -0.03,0 0.18,-0.12 -0.05,0.61 -0.47,0.56 0.37,-0.19 0.5,-0.44 0.5,-0.56z"/>
  <path class="fil1" d="M21.94 1.25c-0.23,-0.33 -0.4,-0.35 -0.6,-0.33 0.31,-0.13 0.59,0.16 0.6,0.33z"/>
  <path class="fil1" d="M21.26 1.15c0.41,0.44 0.9,0.07 0.72,0.22 -0.22,0.17 -0.62,0.03 -0.72,-0.22l0 0z"/>
  <path class="fil1" d="M22.27 0.69c-0.16,-0.05 -0.7,-0.05 -0.72,0.12 -0.06,-0.17 0.57,-0.3 0.72,-0.12z"/>
  <polygon class="fil1" points="21.55,0.81 21.55,0.81 21.55,0.81 21.55,0.81 21.55,0.81 "/>
  <path class="fil1" d="M22.04 0.94c0.08,-0.06 0.3,-0.24 0.31,-0.24 -0.08,0.21 -0.33,0.44 -0.56,0.34 0.09,-0.03 0.17,-0.06 0.25,-0.1z"/>
  <path class="fil1" d="M22.52 1.11c-0.14,-0.11 -0.61,-0.11 -0.65,-0.1 0.01,-0.07 0.55,-0.13 0.65,0.1z"/>
  <path class="fil1" d="M21.84 1.11l0 0c0.08,0.05 0.17,0.09 0.25,0.13 0.24,0.11 0.35,0.05 0.52,-0.02 -0.23,0.38 -0.78,-0.03 -0.77,-0.11z"/>
  <path class="fil1" d="M22.18 0.72c0.18,-0.24 0.7,-0.3 0.76,-0.06 -0.14,-0.11 -0.53,-0.12 -0.75,0.06 -0.03,0.03 -0.01,0.02 -0.01,0.02 -0.01,0 0,-0.01 0,-0.02z"/>
  <path class="fil1" d="M22.91 0.6c0.05,0.22 -0.4,0.49 -0.63,0.36 0,0 0.4,0.01 0.63,-0.36z"/>
  <path class="fil1" d="M22.42 0.96c0.15,-0.18 0.69,-0.09 0.69,0.1 -0.06,-0.07 -0.34,-0.12 -0.43,-0.12 -0.26,0 -0.28,0.04 -0.26,0.02z"/>
  <path class="fil1" d="M22.84 1.17c0.07,-0.02 0.16,-0.07 0.25,-0.08 -0.2,0.25 -0.46,0.16 -0.74,-0.01 0.17,0 0.32,0.12 0.49,0.09z"/>
  <path class="fil1" d="M23.45 0.75c-0.17,-0.09 -0.49,-0.14 -0.74,-0.04 0.12,-0.22 0.66,-0.19 0.74,0.04z"/>
  <path class="fil1" d="M23.34 0.85c0.08,-0.04 0.11,-0.08 0.1,-0.04 -0.01,-0.02 -0.1,0.13 -0.27,0.15 -0.11,0.02 -0.22,0.03 -0.32,-0.01 0.16,-0.04 0.34,-0.03 0.49,-0.1z"/>
  <path class="fil1" d="M19.87 0.74c0.07,-0.16 2.42,-0.81 3.14,-0.73 -0.36,0.07 -0.37,-0.01 -1.57,0.25 -0.82,0.17 -1.63,0.48 -1.57,0.49 0,0.01 0,0 0,-0.01z"/>
  <path class="fil1" d="M20.96 1.51c0.18,0.02 1.45,0.11 1.73,0.09 0.75,-0.04 0.11,0.14 -0.8,0.03 0.06,0 -1.49,-0.06 -1.75,-0.23 0,-0.04 0.51,0.08 0.82,0.11z"/>
  <polygon class="fil1" points="21.89,1.63 21.89,1.63 "/>
  <polygon class="fil1" points="22.19,1.59 22.19,1.59 22.19,1.59 "/>
  <polygon class="fil1" points="22.19,1.59 22.19,1.59 "/>
  <polygon class="fil1" points="22.19,1.59 22.19,1.59 "/>
  <polygon class="fil1" points="22.19,1.59 22.19,1.59 22.19,1.59 "/>
  <path class="fil1" d="M22.64 0.23c0.32,-0.03 0.93,-0.04 1.23,0.06 -0.16,0.02 -0.43,-0.02 -0.45,-0.02 -1.18,-0.08 -1.67,0.29 -2.43,0.5 0.11,-0.1 1.05,-0.47 1.65,-0.54z"/>
  <polygon class="fil1" points="23.42,0.27 23.42,0.27 "/>
  <path class="fil1" d="M21.89 0.52c0.7,-0.15 1.74,-0.05 2.04,0.05 -0.35,0.03 -1.17,-0.21 -2.14,0.03 -0.61,0.17 -0.46,0.05 0.1,-0.08z"/>
  <path class="fil1" d="M22.03 1.34c0.63,0.1 1.9,-0.2 1.91,-0.2 1.16,-0.25 -1.56,0.6 -2.38,0.11 0.16,0.01 0.31,0.07 0.47,0.09z"/>
  <path class="fil1" d="M23.82 1.09c0.63,-0.1 0.66,-0.17 0.91,-0.19 -0.27,0.14 -0.8,0.21 -1.12,0.26 -0.48,0.06 -0.93,0.11 -1.38,-0.08 0.52,0.12 0.69,0.16 1.59,0.01z"/>
  <path class="fil1" d="M23.22 0.97c0.04,0 1.57,-0.29 1.57,-0.29 0.21,-0.04 0.38,-0.12 0.55,-0.14 -0.32,0.2 -0.91,0.25 -1.38,0.35 0,-0.04 -0.91,0.28 -1.26,0.11 0.18,-0.01 0.35,-0.01 0.52,-0.03z"/>
  <path class="fil1" d="M24.91 0.53c0.18,-0.02 0.37,-0.05 0.56,-0.03 -0.05,0.01 -1.36,0.17 -1.91,0.2 -0.47,0.01 -0.42,0.03 -0.42,0.03 -0.12,-0.05 0.57,-0.05 1.77,-0.2z"/>
  <path class="fil1" d="M25.1 0.45c-0.29,0.01 -0.7,-0.12 -1.29,-0.07 -0.22,0.02 -0.92,0.12 -1.05,0.17 0.14,-0.1 1.44,-0.36 2.34,-0.1z"/>
  <path class="fil1" d="M21.11 1.28c1.45,0.23 2.52,-0.08 2.86,-0.06 -0.69,0.25 -2.86,0.25 -3.31,0 0.15,0 0.3,0.03 0.45,0.06z"/>
  <path class="fil1" d="M16.3 2c0.11,-0.28 0.63,-0.43 0.81,-0.31 -0.27,0.03 -0.5,0.06 -0.67,0.2 -0.04,0.03 -0.14,0.1 -0.13,0.14 0,0.01 0.02,0.01 0.02,0.01 -0.02,0 -0.03,-0.01 -0.03,-0.04z"/>
  <path class="fil1" d="M17.13 1.83c0.06,-0.07 0.07,-0.13 0.06,-0.05 -0.03,0.22 -0.41,0.49 -0.68,0.32 0.01,-0.05 0.31,0.06 0.62,-0.27z"/>
  <path class="fil1" d="M16.33 2.05c0.16,-0.08 0.92,-0.07 0.87,0.36 -0.08,-0.12 -0.19,-0.24 -0.32,-0.29 -0.21,-0.06 -0.55,-0.06 -0.55,-0.07z"/>
  <path class="fil1" d="M16.41 2.11c0,0.31 0.48,0.53 0.84,0.44 -0.17,0.23 -0.89,0 -0.85,-0.41 0,-0.01 0,-0.02 0.01,-0.03z"/>
  <path class="fil1" d="M17.01 2.01c0.01,-0.15 0.5,-0.48 0.68,-0.28 -0.26,-0.09 -0.68,0.28 -0.68,0.28z"/>
  <path class="fil1" d="M17.72 1.76c-0.07,0.29 -0.42,0.51 -0.65,0.35 0.34,0.04 0.47,-0.09 0.65,-0.35z"/>
  <path class="fil1" d="M17.8 2.39c0.01,0.02 0.02,0.04 0.02,0.06 -0.02,-0.03 -0.05,-0.05 -0.07,-0.08 -0.23,-0.18 -0.17,-0.17 -0.55,-0.21 -0.03,0 -0.07,0 -0.1,0.01 0.12,-0.09 0.59,-0.06 0.7,0.22z"/>
  <path class="fil1" d="M17.16 2.23c0.01,0 0.05,0.13 0.18,0.2 0.18,0.08 0.44,0.1 0.57,0.06 -0.09,0.14 -0.31,0.07 -0.43,0.04 -0.34,-0.09 -0.32,-0.31 -0.32,-0.3z"/>
  <path class="fil1" d="M18.3 1.93c-0.25,-0.13 -0.5,-0.09 -0.66,0.04 0.14,-0.23 0.57,-0.22 0.66,-0.04z"/>
  <path class="fil1" d="M18.3 1.95c-0.18,0.21 -0.45,0.36 -0.72,0.23 0.38,0.01 0.42,0 0.72,-0.23z"/>
  <path class="fil1" d="M18.46 2.38c-0.11,-0.19 -0.34,-0.19 -0.56,-0.21 0.2,-0.07 0.58,-0.01 0.56,0.21z"/>
  <path class="fil1" d="M17.98 2.45c0.16,0.07 0.3,-0.01 0.51,-0.03 -0.13,0.1 -0.35,0.15 -0.52,0.08 -0.09,-0.03 -0.15,-0.11 -0.19,-0.19 0.07,0.04 0.12,0.1 0.2,0.14z"/>
  <path class="fil1" d="M18.46 1.88c0.13,-0.02 0.29,0 0.38,0.11 -0.21,-0.08 -0.44,-0.1 -0.62,0.04 0,0.01 0.11,-0.12 0.24,-0.15z"/>
  <path class="fil1" d="M18.88 2.03c-0.1,0.14 -0.29,0.3 -0.48,0.22 0.24,-0.03 0.35,-0.15 0.48,-0.22z"/>
  <path class="fil1" d="M18.89 2.21c0.06,0.04 0.14,0.09 0.17,0.16 -0.23,-0.2 -0.41,-0.13 -0.64,-0.14 0.15,-0.04 0.32,-0.09 0.47,-0.02z"/>
  <path class="fil1" d="M19.05 2.42c0.12,-0.01 -0.37,0.23 -0.6,0.03 0.2,0.04 0.41,0.03 0.6,-0.03z"/>
  <path class="fil1" d="M19.04 1.89c0.13,0 0.31,0.04 0.36,0.18 -0.04,-0.05 -0.38,-0.19 -0.62,-0.03 -0.01,0.03 0.06,-0.15 0.26,-0.15z"/>
  <path class="fil1" d="M19.41 2.08c-0.06,0.03 -0.12,0.11 -0.24,0.15 -0.12,0.04 -0.26,0.05 -0.38,0 0.54,-0.02 0.52,-0.15 0.62,-0.15z"/>
  <path class="fil1" d="M19.63 2.29c-0.13,-0.04 -0.3,-0.15 -0.6,-0.06 0.22,-0.08 0.42,-0.09 0.6,0.06z"/>
  <path class="fil1" d="M19.29 2.46c0.15,-0.03 0.3,-0.13 0.33,-0.13 0,0 -0.34,0.33 -0.61,0.15 0.09,-0.01 0.18,0 0.28,-0.02z"/>
  <path class="fil1" d="M19.38 2.03c0,-0.04 0.42,-0.13 0.64,0.16 -0.07,-0.03 -0.23,-0.12 -0.35,-0.14 -0.31,-0.05 -0.29,-0.01 -0.29,-0.02z"/>
  <path class="fil1" d="M19.61 2.31c0.12,-0.02 0.21,0.01 0.38,-0.09 0,-0.01 0.01,-0.01 0.01,-0.01 -0.2,0.23 -0.39,0.1 -0.39,0.1z"/>
  <path class="fil1" d="M17.17 1.71c1.33,-0.31 2.05,-0.13 2.51,-0.05 0.17,0.03 0.33,0.03 0.5,0.07 -0.34,0.05 -0.69,-0.06 -1.07,-0.1 -1.02,-0.12 -1.93,0.18 -2.22,0.18 0.08,-0.06 0.19,-0.08 0.28,-0.1z"/>
  <path class="fil1" d="M20.8 1.92c-0.53,0.01 -1.56,-0.34 -2.71,-0.2 -0.16,0.02 -0.32,0.05 -0.48,0.06 0.49,-0.29 2.72,-0.03 3.19,0.14z"/>
  <path class="fil1" d="M17.42 2.59c1.55,0.22 2.53,0.03 2.79,0.05 -0.39,0.13 -1.24,0.1 -1.67,0.09 -1.43,-0.06 -1.92,-0.25 -1.12,-0.14z"/>
  <path class="fil1" d="M17.71 2.49c0,0 0,0 0,0l0 0c1.95,0.19 3.11,0.11 2.65,0.17 -0.11,0.02 -2.69,-0.07 -2.65,-0.17z"/>
  <path class="fil1" d="M18.78 2.48c1.11,0.11 2.06,-0.07 2.2,-0.07 -0.42,0.16 -1.33,0.14 -1.48,0.14 -0.4,0 -0.81,0.03 -1.18,-0.14 0.16,0.01 0.31,0.06 0.46,0.07z"/>
  <path class="fil1" d="M18.14 1.93c0.13,-0.08 0.3,-0.08 0.44,-0.11 1.54,-0.27 2.97,0.57 2.05,0.2 -0.76,-0.3 -2.51,-0.17 -2.48,-0.08 0,0 -0.01,0 -0.01,-0.01z"/>
  <path class="fil1" d="M19.04 1.91c0.43,-0.05 0.92,-0.14 1.75,0.13 0.77,0.23 0.86,0.32 0.5,0.2 -1.79,-0.64 -2.11,-0.17 -2.7,-0.27 0.14,-0.04 0.3,-0.04 0.45,-0.06z"/>
  <polygon class="fil1" points="19.95,1.91 19.95,1.91 "/>
  <path class="fil1" d="M21.75 2.39c-0.29,-0.02 -0.81,-0.23 -1.39,-0.32 -0.66,-0.1 -0.95,-0.03 -1.23,-0.02 0.46,-0.24 2.2,0.14 2.62,0.34z"/>
  <path class="fil1" d="M20.23 2.17c0.72,-0.04 1.01,0.1 1.49,0.12 0.14,0 0.34,-0.05 0.48,-0.03 -0.17,0.03 -0.38,0.07 -0.55,0.05 0,0 -1.09,-0.13 -1.01,-0.12 -0.65,-0.02 -1.39,0.04 -0.41,-0.02z"/>
  <path class="fil1" d="M20 2.34c1.19,0.05 1.61,-0.22 2.13,-0.14 -0.2,0.04 -0.31,0.02 -0.68,0.07 -0.41,0.06 -0.72,0.15 -1.55,0.1 -0.14,0 -0.29,0 -0.42,-0.06 0.17,0 0.35,0.02 0.52,0.03z"/>
  <polygon class="fil1" points="20.66,2.34 20.66,2.34 "/>
  <polygon class="fil1" points="20.66,2.34 20.66,2.34 "/>
  <path class="fil1" d="M18.89 2.35c0,0 -0.1,0.03 0.78,0 2.04,-0.05 2.27,-0.35 2.68,-0.24 -0.08,0.01 -0.15,0.02 -0.22,0.03 -0.21,0.01 -0.42,0.07 -0.63,0.1 -0.25,0.03 -2.63,0.3 -2.61,0.11z"/>
  <path class="fil1" d="M20.28 0.56c0.04,-0.08 0.08,0.2 -0.14,0.32 0.15,-0.28 0.1,-0.23 0.14,-0.32zm0.02 0.1l0 0.01c0,-0.01 0.01,-0.07 0,-0.01z"/>
  <path class="fil1" d="M13.86 2.26c0.22,-0.01 0.45,-0.05 0.67,-0.06 0.52,-0.01 1.03,-0.04 1.54,-0.13 0.6,-0.06 -0.39,0.17 -2.84,0.24 -0.28,-0.04 -0.08,0.01 0.63,-0.05z"/>
  <path class="fil1" d="M13.9 2.78c1.86,0.32 3.36,0.34 3.58,0.36 0.96,0.1 1.51,0.23 1.93,0.27 0.17,0.02 0.33,0.02 0.5,0.07 -0.59,-0.01 -1.12,-0.14 -2.26,-0.29 -0.57,-0.07 -0.45,0.05 -3.65,-0.38 -0.37,-0.07 -0.3,-0.05 -0.1,-0.03z"/>
  <path class="fil1" d="M10.44 2.3c0.01,0 0.01,0 0.01,0l-0.01 0z"/>
  <path class="fil1" d="M10.52 2.43c0.04,0 0.02,-0.01 0.08,-0.01 0.07,0.01 0.03,0 0.04,0.06 -0.04,-0.01 -0.15,-0.05 -0.12,-0.05z"/>
  <path class="fil1" d="M19.96 3.47c0.19,-0.26 0.79,-0.33 0.83,-0.18 -0.05,-0.06 -0.37,-0.03 -0.45,0 -0.22,0.08 -0.39,0.19 -0.39,0.19l0.01 -0.01z"/>
  <path class="fil1" d="M19.99 3.51c0.24,-0.03 0.31,0.04 0.72,-0.17 0.02,-0.01 0.04,-0.02 0.06,-0.03 -0.09,0.13 -0.24,0.2 -0.39,0.24 -0.26,0.07 -0.39,-0.04 -0.39,-0.04z"/>
  <path class="fil1" d="M19.96 3.5c0.03,0 0.28,-0.04 0.47,0.03 0.22,0.1 0.27,0.27 0.26,0.31 -0.01,-0.03 -0.17,-0.29 -0.54,-0.31 -0.1,-0.01 -0.22,-0.02 -0.19,-0.03z"/>
  <path class="fil1" d="M20.01 3.62c0,-0.02 0.03,-0.01 0.04,0 -0.01,0 -0.03,-0.01 -0.03,0.01 0.07,0.18 0.31,0.23 0.69,0.3 -0.18,0.08 -0.77,-0.06 -0.7,-0.31z"/>
  <path class="fil1" d="M21.25 3.37c-0.17,-0.11 -0.62,0 -0.67,0.02 0.15,-0.09 0.58,-0.16 0.67,-0.02z"/>
  <path class="fil1" d="M21.28 3.4c-0.05,0.11 -0.46,0.35 -0.7,0.21 0.43,0.02 0.72,-0.23 0.7,-0.21z"/>
  <path class="fil1" d="M21.24 3.99c-0.06,-0.09 -0.11,-0.24 -0.46,-0.3 -0.09,-0.01 -0.17,-0.05 -0.26,-0.06 0.08,-0.03 0.73,0 0.72,0.36z"/>
  <path class="fil1" d="M21.31 3.98c-0.08,0.07 -0.19,0.09 -0.3,0.06 -0.13,-0.03 -0.32,-0.08 -0.34,-0.24 0.05,0.11 0.31,0.25 0.64,0.18z"/>
  <path class="fil1" d="M21.11 3.49c0.13,-0.1 0.54,-0.07 0.63,0.05 0.04,0.04 0.02,0.01 -0.04,-0.01 -0.14,-0.04 -0.49,-0.09 -0.59,-0.03 -0.01,0.01 0,0.01 0,0.01 -0.01,0 0,-0.01 0,-0.02z"/>
  <path class="fil1" d="M21.2 3.79c0.37,-0.04 0.26,-0.06 0.55,-0.19l0.02 -0.01c-0.26,0.36 -0.6,0.19 -0.57,0.2z"/>
  <path class="fil1" d="M21.22 3.8c0.15,-0.09 0.56,-0.09 0.69,0.2 -0.09,-0.08 -0.27,-0.19 -0.4,-0.19 -0.12,0 -0.29,-0.01 -0.29,-0.01z"/>
  <path class="fil1" d="M21.23 3.97c0.01,0.03 0.12,0.07 0.15,0.08 0.16,0.05 0.3,-0.01 0.51,-0.05 -0.1,0.09 -0.35,0.16 -0.54,0.07 -0.03,-0.01 -0.12,-0.07 -0.12,-0.1z"/>
  <path class="fil1" d="M21.71 3.59c0.18,-0.11 0.51,-0.07 0.63,0.07 -0.47,-0.15 -0.68,-0.03 -0.63,-0.07z"/>
  <path class="fil1" d="M22.28 3.74c0.1,-0.05 0.08,-0.04 0.05,-0.01 -0.18,0.15 -0.4,0.24 -0.61,0.13 0.27,0.03 0.32,-0.01 0.56,-0.12z"/>
  <path class="fil1" d="M22.48 3.99c-0.07,-0.04 -0.22,-0.16 -0.49,-0.16 0.15,-0.03 0.38,0 0.49,0.16z"/>
  <path class="fil1" d="M22.44 4.04c-0.11,0.19 -0.53,0.16 -0.64,-0.05 0.13,0.11 0.38,0.17 0.64,0.05z"/>
  <path class="fil1" d="M22.86 3.74c-0.16,-0.04 -0.2,-0.06 -0.27,-0.07 -0.1,0 -0.2,0.03 -0.3,0.03 0.2,-0.13 0.39,-0.13 0.57,0.04z"/>
  <path class="fil1" d="M22.42 3.93c0.23,-0.03 0.44,-0.22 0.44,-0.22 -0.02,0.07 -0.08,0.13 -0.14,0.18 -0.16,0.12 -0.3,0.03 -0.3,0.04z"/>
  <path class="fil1" d="M23.05 4.17c-0.1,-0.09 -0.35,-0.34 -0.46,-0.26 0.01,-0.07 0.34,-0.03 0.46,0.26z"/>
  <path class="fil1" d="M22.43 4.06c0.01,-0.01 0.02,0.18 0.46,0.14 0.03,0 0.06,0 0.09,-0.01 -0.08,0.1 -0.49,0.1 -0.55,-0.1 0,-0.01 0,-0.02 0,-0.03z"/>
  <path class="fil1" d="M22.77 3.75c0.22,-0.11 0.48,-0.05 0.61,0.13 -0.07,-0.03 -0.23,-0.12 -0.35,-0.13 -0.25,-0.01 -0.27,0 -0.26,0z"/>
  <path class="fil1" d="M23.38 3.9c0.05,-0.03 -0.16,0.25 -0.4,0.14 0.14,0 0.28,-0.06 0.4,-0.14z"/>
  <path class="fil1" d="M23.75 4.1c-0.04,-0.02 -0.43,-0.12 -0.43,-0.12 0.13,0.01 0.35,0 0.43,0.12z"/>
  <path class="fil1" d="M23.33 4.25c0.14,-0.01 0.37,-0.09 0.42,-0.13 -0.09,0.13 -0.54,0.33 -0.77,0.04 0.12,0.03 0.23,0.1 0.35,0.09z"/>
  <path class="fil1" d="M23.59 3.31c-0.23,0.03 -0.38,-0.06 -1.11,-0.11 -1.47,-0.09 -1.42,0.15 -1.79,0.1 0.41,-0.23 1.83,-0.2 2.9,0.01z"/>
  <path class="fil1" d="M22.14 3.32c1.55,-0.09 2.7,0.48 2,0.23 -0.44,-0.15 -1.5,-0.22 -1.88,-0.21 -0.45,0.02 -0.83,0.13 -1.05,0.08 0.31,-0.04 0.62,-0.08 0.93,-0.1z"/>
  <path class="fil1" d="M22.21 3.5c0.66,-0.04 1.44,-0.07 2.06,0.13 0.61,0.2 0.8,0.24 0.99,0.34 -1,-0.23 -1.01,-0.59 -3.12,-0.42 -0.19,0.01 -0.39,0.06 -0.58,-0.01 0.22,-0.03 0.44,-0.02 0.65,-0.04z"/>
  <path class="fil1" d="M24.66 3.9c0.46,0.16 0.61,0.2 0.77,0.28 -0.56,-0.13 -1.24,-0.57 -2.56,-0.53 -0.23,0 -0.48,0.05 -0.71,-0.01 0.11,-0.02 1.46,-0.12 2.5,0.26z"/>
  <path class="fil1" d="M25.61 4.29c-0.1,-0.03 -0.85,-0.35 -1.83,-0.46 -0.49,-0.06 -0.92,-0.03 -1.13,-0.09 0.67,-0.03 2.43,0.2 2.96,0.55z"/>
  <path class="fil1" d="M23.59 3.91c1.43,0.14 2.33,0.4 1.8,0.3 -1.01,-0.23 -1.71,-0.24 -2.15,-0.31 0.12,-0.02 0.23,0 0.35,0.01z"/>
  <path class="fil1" d="M25.8 4.27c-0.08,0.05 -0.39,0.02 -0.49,0.01 -3.86,-0.34 0.22,0.06 0.49,-0.01z"/>
  <path class="fil1" d="M25.67 4.35c-0.53,0.08 -2.38,-0.04 -2.9,-0.26 1.74,0.38 2.47,0.17 2.9,0.26z"/>
  <path class="fil1" d="M25.39 4.53c-0.22,-0.03 -0.57,0.03 -0.87,0.01 -0.28,-0.01 -0.37,-0.04 -1.58,-0.3 -0.22,-0.05 -0.42,-0.13 -0.62,-0.22 0.27,0.19 0.61,0.25 0.93,0.31 0.01,0 0.87,0.2 1.13,0.24 0.23,0.02 0.78,0.01 1.01,-0.04z"/>
  <path class="fil1" d="M22.31 4.04c1.83,0.24 2.15,0.16 2.8,0.26 0.24,0.04 0.35,0.08 0.06,0.04 -0.51,-0.08 -2.95,-0.16 -3.42,-0.38 0.19,0 0.37,0.06 0.56,0.08z"/>
  <path class="fil1" d="M24.86 4.55c-1.38,0.14 -2.97,-0.46 -3.76,-0.6 0.1,0.06 3.02,0.88 3.76,0.6z"/>
  <path class="fil1" d="M23.96 4.63c-0.18,-0.03 -0.51,-0.02 -0.87,-0.08 -1.97,-0.35 -2.1,-0.44 -2.58,-0.71l0 0 0 0c0.43,0.36 1.2,0.45 1.73,0.56 0.59,0.11 1.09,0.25 1.72,0.23z"/>
  <polygon class="fil1" points="21.83,4.3 21.83,4.3 21.83,4.3 "/>
  <path class="fil1" d="M10.2 2.35c0.1,-0.17 0.35,0.28 0.31,0.39 0.01,-0.01 0,-0.01 0,-0.02 -0.2,-0.34 -0.25,-0.34 -0.24,-0.34 0,0.02 0.06,0.29 0.08,0.32 0.02,0.05 0.05,0.09 0.1,0.12 0.03,-0.02 -0.07,-0.3 0.04,-0.09 0.01,0.03 0.03,0.07 0.02,0.1 -0.01,0.03 -0.04,0.06 -0.07,0.05 -0.16,-0.04 -0.19,-0.3 -0.21,-0.34 -0.01,-0.06 -0.04,-0.12 -0.03,-0.19z"/>
  <path class="fil1" d="M10.41 2.64c0.01,0.01 0.02,0.02 0.01,0.04 0,-0.02 -0.01,-0.03 -0.01,-0.04z"/>
  <path class="fil1" d="M10.41 2.55c0.01,0.01 0.01,0.03 -0.01,0.02 -0.01,0 -0.01,-0.02 0.01,-0.02z"/>
  <path class="fil1" d="M8.82 0.68c0.03,-0.23 0.16,-0.44 0.4,-0.5 0.14,-0.03 0.28,-0.01 0.41,0 0.3,0.04 0.35,0.02 0.4,0.22 0.11,0.46 0.2,0.44 0.13,0.93 -0.02,0.16 -0.06,0.32 -0.08,0.48 -0.01,0.16 0.06,0.3 0.07,0.45 0.09,0.08 0.19,0.16 0.24,0.27 -0.43,-0.41 -0.78,-0.53 -1.06,-0.82 -0.27,-0.31 -0.59,-0.62 -0.51,-1.03zm1.31 0.28c0,-0.1 -0.15,-0.61 -0.15,-0.61 -0.04,-0.17 -0.64,-0.17 -0.79,-0.13 -0.21,0.09 -0.3,0.27 -0.33,0.49 -0.04,0.31 0.26,0.68 0.28,0.69 0.45,0.52 0.37,0.37 0.96,0.82 -0.23,-0.36 0.06,-0.86 0.03,-1.26z"/>
  <polygon class="fil1" points="9.14,1.4 9.14,1.4 "/>
  <polygon class="fil1" points="9.14,1.4 9.14,1.4 "/>
  <polygon class="fil1" points="9.14,1.4 9.14,1.4 "/>
  <path class="fil1" d="M8.71 0.6c0.04,-0.11 0.32,-0.35 0.39,-0.39 0.18,-0.08 0.4,-0.08 0.6,-0.03 0.14,0.03 0.23,0.14 0.3,0.24 0.34,0.47 0.12,0.77 0.26,2.02 -0.14,-0.12 -0.12,-0.26 -0.15,-0.4 0,-0.01 0,-0.56 0.01,-0.6 0.02,-0.25 0.03,-0.41 -0.05,-0.77 -0.05,-0.16 -0.24,-0.44 -0.48,-0.45 -0.42,-0.07 -0.56,0.13 -0.66,0.22 -0.17,0.15 -0.19,0.15 -0.14,0.5 0.04,0.18 0.04,0.22 0.16,0.38 0.23,0.29 0.18,0.33 0.48,0.54 0,0 0.84,0.54 0.76,0.57 0.02,-0.02 -0.85,-0.54 -0.99,-0.66 -0.09,-0.09 -0.37,-0.49 -0.4,-0.56 -0.06,-0.1 -0.13,-0.46 -0.09,-0.61z"/>
  <polygon class="fil1" points="10.18,2.43 10.18,2.43 "/>
  <polygon class="fil1" points="10.19,2.43 10.19,2.43 10.19,2.43 "/>
  <path class="fil1" d="M10.56 2.76c0.18,0.12 0.26,0.43 0.55,0.73 0.47,0.45 0.84,0.84 1.21,0.68 0.06,-0.03 0.09,-0.11 0.11,-0.17 0.07,-0.54 -1.15,-0.89 -1.27,-0.94 -0.59,-0.22 -0.82,-0.42 -0.14,-0.14 0.34,0.14 0.7,0.23 1.01,0.43 0.86,0.55 0.37,1.09 -0.07,0.9 -0.32,-0.11 -0.75,-0.56 -0.88,-0.69 -0.25,-0.25 -0.52,-0.78 -0.52,-0.8z"/>
  <path class="fil1" d="M11.75 4.17c0.32,0.15 0.63,0.26 0.59,-0.09 -0.03,-0.13 -0.27,-0.34 -0.38,-0.44 -0.48,-0.44 -1.21,-0.67 -1.46,-0.92 0.38,0.13 1.98,0.99 1.91,1.45 -0.02,0.42 -0.59,0.11 -0.91,-0.08 -0.25,-0.14 -0.83,-0.81 -1.05,-1.31 0.27,0.33 0.65,1.05 1.3,1.39z"/>
  <path class="fil1" d="M10.1 2.56c-0.02,-0.02 -0.04,-0.03 -0.06,-0.05 0.02,0.01 0.05,0.03 0.06,0.05z"/>
  <path class="fil1" d="M6.49 1.4c1.13,0.1 2.04,0.4 2.97,0.76 1.06,0.4 0.79,0.59 0.91,0.65 0,0 -0.03,-0.01 -0.05,-0.03 -0.03,-0.09 -0.06,-0.16 -0.23,-0.27 -0.45,-0.29 -1.69,-0.7 -2.36,-0.87 -1.07,-0.25 -1.54,-0.21 -1.84,-0.29 0.2,-0.02 0.4,0.03 0.6,0.05z"/>
  <path class="fil1" d="M6.33 1.47c0.51,-0.02 0.74,0.08 1.2,0.18 1.15,0.28 1.34,0.39 2.17,0.76 0.59,0.27 0.5,0.28 0.5,0.28 0.01,-0.02 -0.08,-0.03 -0.36,-0.16 -0.85,-0.36 -1,-0.52 -2.48,-0.85 -0.37,-0.07 -0.61,-0.17 -1.13,-0.14 -0.54,0.05 -0.33,-0.05 0.1,-0.07z"/>
  <path class="fil1" d="M9.4 3.69c0.42,-0.28 0.92,-0.95 0.85,-1.12 -0.02,0 -0.02,0.02 -0.02,0.01l0 -0.01c0.05,-0.04 0.03,0.13 0.02,0.15 -0.12,0.43 -0.64,0.94 -0.92,1.08 -0.55,0.28 -1.65,0.55 -1.99,0.53 0.16,-0.05 1.42,-0.24 2.06,-0.64z"/>
  <path class="fil1" d="M9.2 4.03c1.18,-0.75 0.92,-1.03 1.11,-1.31 0.04,-0.04 0,0.29 -0.15,0.56 -0.16,0.26 -0.5,0.51 -0.76,0.69 -0.5,0.34 -1.06,0.31 -1.43,0.36 -0.15,0.02 -0.31,0.07 -0.47,0.08 0.5,-0.2 1.08,-0.06 1.7,-0.38z"/>
  <path class="fil1" d="M10.42 1.99c-0.03,0.04 -0.09,0.05 -0.13,0.03 0.04,-0.03 0.09,-0.03 0.13,-0.03z"/>
  <path class="fil1" d="M10.34 1.83c-0.01,0.01 -0.03,0.01 -0.04,0.01 0.01,-0.01 0.03,-0.01 0.04,-0.01z"/>
  <path class="fil1" d="M10.35 1.83c-0.03,0.02 -0.07,0.03 -0.11,0.01 0.03,-0.02 0.08,-0.03 0.11,-0.01z"/>
  <path class="fil1" d="M9.96 1.91c0.06,-0.02 -0.06,0.08 -0.17,0.07 0.04,-0.05 0.1,-0.07 0.17,-0.07z"/>
  <path class="fil1" d="M10.05 2.06c0,0 -0.09,0 -0.11,0 0.03,-0.02 0.08,-0.02 0.11,0z"/>
  <path class="fil1" d="M9.54 2.03c0.15,-0.01 -0.08,0.05 -0.16,0.04 0.05,-0.02 0.1,-0.04 0.16,-0.04z"/>
  <path class="fil1" d="M4.68 2.91c6.35,-1.22 5.02,-0.92 -0.09,0.06 -0.21,0.03 -0.4,0.12 -0.6,0.15 0.21,-0.11 0.45,-0.17 0.69,-0.21z"/>
  <path class="fil1" d="M9.81 2.16c0.1,0.01 -0.14,0.05 -0.26,0.02 0.08,-0.03 0.17,-0.05 0.26,-0.02z"/>
  <path class="fil1" d="M4.99 3.04c2.19,-0.36 2.46,-0.49 2.77,-0.56 0.19,-0.03 1.34,-0.24 1.53,-0.24 -0.2,0.07 -0.09,0.01 -1.56,0.3 -2.14,0.49 -2.41,0.46 -2.75,0.54 -0.29,0.06 -0.95,0.24 -1.31,0.25 0.19,-0.05 -0.2,0.06 1.32,-0.29z"/>
  <path class="fil1" d="M10.45 2.3l-0.01 0.01c-0.03,-0.01 -0.03,-0.01 0.01,-0.01z"/>
  <path class="fil1" d="M5.67 0.94c0.5,0.14 1,0.3 1.5,0.43 0.85,0.24 2.31,0.57 2.51,0.67 -0.38,0 -4.57,-1.23 -6.19,-1.62 -0.5,-0.11 -0.9,-0.31 2.18,0.52z"/>
  <path class="fil1" d="M9.42 2.06c-0.16,0.01 -0.32,-0.03 -0.47,-0.1 0.16,0.01 0.32,0.06 0.47,0.1z"/>
  <path class="fil1" d="M3.25 0.48c1.26,0.44 4.09,0.98 3.36,0.87 -0.67,-0.1 -1.23,-0.25 -3.11,-0.75 -0.68,-0.19 -0.55,-0.23 -0.25,-0.12z"/>
  <path class="fil1" d="M9.78 2.44c-0.34,0.14 -0.71,0.12 -1.14,0.2 -5.45,1.1 -4.42,0.96 -4.73,0.99 0.63,-0.27 5.86,-1.19 5.87,-1.19z"/>
  <path class="fil1" d="M5.74 3.3c0.54,-0.13 1.08,-0.18 1.62,-0.3 0.46,-0.08 0.91,-0.21 1.36,-0.31 0.4,-0.08 1.9,-0.23 0.78,-0.06 -0.24,0.04 -0.5,0.06 -0.74,0.1 -0.32,0.07 -0.64,0.17 -0.96,0.24 -1.27,0.27 -1.27,0.17 -2.59,0.5 -1.59,0.39 -1.55,0.41 -1.89,0.43 0.01,0 1.59,-0.42 2.42,-0.6z"/>
  <path class="fil1" d="M3.2 0.35c-0.01,0.02 -0.01,0.04 -0.01,0.01 0.01,-0.05 -0.11,0.15 -0.13,0.17 -0.01,-0.15 0.14,-0.22 0.14,-0.18z"/>
  <path class="fil1" d="M3.99 3.01c0.01,0 0.05,-0.04 0.05,0 0,0 -0.03,0.07 -0.19,0.14 -0.03,0.02 -0.03,0.02 -0.05,0.09 -0.08,-0.14 0.05,-0.17 0.19,-0.23z"/>
  <path class="fil1" d="M3.93 3.61c0,-0.02 0.04,-0.02 0.03,0.01 0.01,0.02 0.08,0.08 0.1,0.13 -0.07,-0.02 -0.15,-0.06 -0.13,-0.14z"/>
  <path class="fil1" d="M10.42 2.3c0.12,0 1.45,0.27 2.76,0.37 0.73,0.06 1.31,0.27 1.68,0.29 0.06,0 0.11,0.01 0.16,0.02 -0.42,0.1 -0.72,-0.12 -1.73,-0.24 -1.69,-0.15 -3.07,-0.46 -2.87,-0.44z"/>
  <path class="fil1" d="M10.56 2.37c1.2,0.27 3.45,0.43 4.16,0.74 -0.31,-0.01 -0.73,-0.15 -1.15,-0.22 -0.55,-0.07 -1.09,-0.11 -1.62,-0.23 -0.5,-0.1 -1.32,-0.16 -1.65,-0.33 0.08,0 0.17,0.01 0.26,0.04z"/>
  <path class="fil1" d="M13.49 2.14c-0.01,0 -0.02,0 -0.03,-0.01 0.01,0 0.03,0 0.03,0.01z"/>
  <path class="fil1" d="M11.06 2.31c0.85,-0.06 0.65,-0.09 1.8,-0.06 0.4,0.01 1.19,0 0.72,0.04 -0.25,0.02 -1.34,0 -1.62,0 -0.44,0.02 -0.87,0.09 -1.31,0.06 0.14,-0.04 0.27,-0.03 0.41,-0.04z"/>
  <path class="fil1" d="M13.71 2.36c-0.29,0.02 -0.82,-0.05 -1.32,-0.03 0,0 -1.43,0.09 -1.68,0.05 0.31,-0.06 2.67,-0.11 3,-0.02z"/>
  <path class="fil1" d="M10.63 2.45c-0.02,0.02 -0.07,0.03 -0.1,0.02 0.03,-0.02 0.07,-0.02 0.1,-0.02z"/>
  <path class="fil1" d="M10.63 2.46c0.01,0 0.01,0.03 -0.01,0.02 -0.01,0 -0.01,-0.02 0.01,-0.02z"/>
  <path class="fil1" d="M20.07 1.04c0.45,0.03 0.71,-0.22 0.77,-0.22 -0.04,0.07 -0.31,0.21 -0.52,0.24 -0.33,0.04 -0.27,-0.03 -0.25,-0.02z"/>
  <path class="fil1" d="M20.05 0.99c0.35,0.01 0.71,-0.16 0.66,-0.14 0.33,-0.13 -0.13,0.16 -0.66,0.16 -0.02,0 -0.02,-0.02 0,-0.02z"/>
  <path class="fil1" d="M20.57 0.79c-0.03,0.03 -0.11,0.04 -0.34,0.13 -0.11,0.04 -0.12,0.05 -0.13,0.03 -0.01,-0.03 0.43,-0.17 0.47,-0.16z"/>
  <path class="fil1" d="M19.38 0.98c0.01,0 0.06,0.03 0.13,0 0.31,-0.1 0.18,-0.08 0.41,-0.19 0.17,-0.08 -0.08,0.11 -0.37,0.2 -0.1,0.03 -0.18,0.02 -0.17,-0.01z"/>
  <path class="fil1" d="M19.4 0.99c0.07,-0.08 0.12,-0.08 0.39,-0.22 0.02,-0.01 0.05,-0.02 0,0.02 -0.11,0.09 -0.27,0.11 -0.37,0.21 -0.01,0.01 -0.03,0 -0.02,-0.01z"/>
  <path class="fil1" d="M19.79 0.61c-0.04,0.04 -0.11,0.06 -0.23,0.18 -0.01,0.01 -0.15,0.18 -0.14,0.13 0,0 0.25,-0.3 0.37,-0.31z"/>
  <path class="fil1" d="M19.46 1.02c0.09,-0.02 0.17,-0.08 0.27,-0.08 -0.03,0.02 -0.28,0.12 -0.28,0.08l0.01 0z"/>
  <path class="fil1" d="M20.13 1.25c0.14,0.07 -0.38,-0.11 -0.62,-0.09 -0.01,0 -0.05,0.01 -0.05,-0.01 0,-0.04 0.55,0.05 0.67,0.1z"/>
  <path class="fil1" d="M19.65 1.23c-0.08,-0.02 -0.09,-0.02 -0.09,-0.03 0.01,-0.04 0.78,0.17 0.09,0.03z"/>
  <path class="fil1" d="M20.29 1.08c0.16,-0.02 0.57,0 0.67,0.01 0.42,0.07 -0.33,-0.03 -0.67,0.01 -0.01,0 -0.01,-0.02 0,-0.02z"/>
  <path class="fil1" d="M20.88 1.2c-0.04,0.01 -0.25,-0.05 -0.42,-0.06 -0.56,-0.06 0.33,-0.02 0.42,0.06z"/>
  <path class="fil1" d="M20.38 1.2c0,-0.02 0.27,0.03 0.29,0.04 -0.09,0.01 -0.19,-0.02 -0.29,-0.03l0 -0.01z"/>
  <path class="fil1" d="M21.25 1.07c0.31,-0.02 0.55,0.12 0.58,0.17 -0.1,-0.02 -0.2,-0.17 -0.58,-0.15 -0.01,0 -0.01,-0.01 0,-0.02z"/>
  <path class="fil1" d="M21.27 1.01c0,0 0.27,0 0.31,0.01 -0.01,0 -0.31,0.01 -0.31,-0.01z"/>
  <path class="fil1" d="M21.43 0.95c0.32,0.06 -0.01,0.02 0,0l0 0z"/>
  <path class="fil1" d="M20.86 0.98c0.06,-0.03 0.13,-0.05 0.19,-0.07 0.1,-0.05 0.19,-0.11 0.29,-0.15 0.01,-0.01 0.01,0.01 0,0.01 -0.09,0.04 -0.4,0.23 -0.48,0.21z"/>
  <path class="fil1" d="M21.04 0.97c0.05,-0.04 0.13,-0.05 0.17,-0.1 0,-0.01 0.01,-0.01 0.01,-0.01 0.06,0.02 -0.12,0.12 -0.18,0.11z"/>
  <path class="fil1" d="M21.56 0.88c0.06,-0.03 0.25,-0.1 0.5,-0.14 0.01,0 0.01,0.01 0,0.02 -0.36,0.05 -0.32,0.09 -0.5,0.12z"/>
  <path class="fil1" d="M21.58 0.81c0.03,-0.04 0.15,-0.12 0.23,-0.09 0.01,0 0,0.02 0,0.01 -0.09,-0.03 -0.16,0.05 -0.23,0.08z"/>
  <path class="fil1" d="M21.71 0.89c0.03,-0.03 0.2,-0.08 0.19,-0.04 0,0 0,0.01 -0.01,0.01 -0.06,0 -0.12,0.03 -0.18,0.03z"/>
  <path class="fil1" d="M21.77 0.95c0.02,-0.01 0.11,-0.06 0.12,-0.04 0,0.02 -0.1,0.04 -0.12,0.04z"/>
  <path class="fil1" d="M21.8 1.06c0.01,-0.01 0.03,-0.01 0.03,0.01 0.18,0.05 0.45,0.07 0.49,0.09 -0.07,0.03 -0.53,-0.06 -0.52,-0.1z"/>
  <path class="fil1" d="M21.87 1.03c0.02,-0.01 0.16,-0.02 0.2,0 -0.04,0.02 -0.06,0 -0.18,0.02 -0.01,0 -0.02,-0.01 -0.02,-0.02z"/>
  <path class="fil1" d="M22.13 0.93c0.11,-0.05 0.23,-0.09 0.33,-0.16 0.02,-0.01 0.13,-0.1 0.13,-0.06 0,0 -0.36,0.21 -0.46,0.22z"/>
  <path class="fil1" d="M22.18 0.95c0.07,-0.03 0.14,-0.04 0.21,-0.07 0.02,0 0.11,-0.05 0.13,-0.02 -0.01,0.01 0,-0.01 -0.09,0.02 -0.08,0.03 -0.17,0.06 -0.25,0.07z"/>
  <path class="fil1" d="M22.21 0.95c0.06,-0.02 0.13,-0.02 0.19,-0.02 0.01,0 0.01,0.02 0,0.01 -0.06,0 -0.13,0.02 -0.19,0.01z"/>
  <path class="fil1" d="M22.46 0.97c0.02,-0.03 0.26,0.02 0.29,0.04 -0.09,0.01 -0.18,-0.04 -0.27,-0.03 0,0.02 -0.02,0.01 -0.02,-0.01z"/>
  <path class="fil1" d="M22.57 1c0.01,-0.03 0.11,0.01 0.13,0.04 -0.03,0.01 -0.13,-0.01 -0.13,-0.04z"/>
  <path class="fil1" d="M20.35 1.17c0.01,-0.06 0.1,-0.14 0.11,-0.11 0.01,0 0,0.01 0,0.01 -0.05,0.02 -0.07,0.07 -0.11,0.1z"/>
  <path class="fil1" d="M21.23 1.08c0.01,-0.01 0.3,0.08 0.34,0.12 -0.02,0.01 -0.34,-0.1 -0.34,-0.12z"/>
  <path class="fil1" d="M19.51 1.14c0.1,-0.02 0.22,0 0.17,0.01 0,0 -0.22,0.01 -0.17,-0.01z"/>
  <path class="fil1" d="M19.48 1.03c0.16,0 0.31,-0.01 0.54,-0.22 0.07,-0.08 0.05,-0.02 -0.05,0.06 -0.2,0.18 -0.35,0.18 -0.49,0.18 -0.01,0 -0.01,-0.02 0,-0.02z"/>
  <path class="fil1" d="M20.22 0.82c0.23,-0.14 0.3,-0.12 0.51,-0.15 0.05,0 0.04,0.01 0,0.01 -0.26,0.05 -0.15,-0.02 -0.5,0.14 0,0.01 -0.01,0.01 -0.01,0z"/>
  <path class="fil1" d="M20.9 0.99c0.33,-0.12 0.39,-0.24 0.5,-0.3 0.16,-0.07 -0.21,0.19 -0.38,0.27 -0.02,0 -0.14,0.06 -0.12,0.03z"/>
  <path class="fil1" d="M20.93 0.98c0.01,-0.03 0.19,0.1 0.49,-0.2 0.01,-0.02 0.08,-0.06 0.03,0 -0.19,0.2 -0.31,0.23 -0.51,0.21l-0.01 -0.01z"/>
  <path class="fil1" d="M20.01 3.45c0.12,-0.06 0.14,-0.02 0.51,-0.16 0.04,-0.02 0.03,0.03 0.01,0.02 -0.06,0.03 -0.46,0.17 -0.52,0.14z"/>
  <path class="fil1" d="M19.99 3.49c0.02,-0.01 0.35,-0.1 0.39,-0.11 0.03,-0.01 0,0.04 0,0.02 -0.12,0.03 -0.33,0.11 -0.39,0.09z"/>
  <path class="fil1" d="M20.1 3.47c0.05,-0.02 0.12,-0.02 0.19,-0.03 0.01,-0.01 0.02,0.02 0,0.02 -0.12,0.03 -0.16,0.03 -0.19,0.01z"/>
  <path class="fil1" d="M20.44 3.54c0.05,-0.03 0.17,-0.01 0.38,-0.08 0.14,-0.04 0.2,-0.09 0.2,-0.06 0,0 -0.42,0.17 -0.58,0.14z"/>
  <path class="fil1" d="M20.5 3.59c0.08,-0.03 0.16,-0.04 0.24,-0.08 0.02,0 0.13,-0.05 0.13,-0.02 0,0.01 -0.01,0.01 -0.02,0.01 -0.09,0.03 -0.28,0.12 -0.35,0.09z"/>
  <path class="fil1" d="M20.55 3.58c0.05,-0.01 0.1,-0.01 0.15,-0.03 0,0 0.01,0 0.01,0.01 0,0.01 -0.1,0.04 -0.16,0.02z"/>
  <path class="fil1" d="M20.47 3.51c0.04,-0.04 0.35,-0.17 0.36,-0.11 0,0.01 -0.01,0.01 -0.02,0 -0.1,0 -0.27,0.11 -0.34,0.11z"/>
  <path class="fil1" d="M20.81 3.68c0,0 0.65,-0.11 0.68,-0.09 0.01,0 -0.01,0.02 -0.02,0.01 -0.26,0.02 -0.58,0.11 -0.66,0.08z"/>
  <path class="fil1" d="M20.85 3.63c0.04,-0.03 0.1,-0.02 0.26,-0.05 0.44,-0.09 -0.07,0.05 -0.26,0.05z"/>
  <path class="fil1" d="M20.95 3.69c0.02,-0.01 0.36,-0.03 0.36,-0.03 0.02,0 0.02,0.03 0,0.03 -0.04,-0.01 -0.29,0.04 -0.36,0z"/>
  <path class="fil1" d="M21.17 3.84c0.14,0.03 0.28,0.06 0.42,0.06 0.01,0 0.01,0.02 0,0.01 -0.06,0 -0.35,-0.01 -0.42,-0.07z"/>
  <path class="fil1" d="M21.17 3.86c0.06,0.02 0.1,0.05 0.15,0.07 0.07,0.02 0.14,0.03 0.21,0.05 0.06,0.04 -0.32,-0.03 -0.36,-0.12z"/>
  <path class="fil1" d="M20.5 3.62c0.01,-0.05 0.41,0.13 0.43,0.21 -0.05,-0.03 -0.15,-0.11 -0.29,-0.17 -0.11,-0.04 -0.14,-0.03 -0.14,-0.04z"/>
  <path class="fil1" d="M20.51 3.63c0,-0.01 0.02,-0.01 0.02,0 0.09,0.06 0.23,0.11 0.26,0.15 -0.02,0 -0.3,-0.12 -0.28,-0.15z"/>
  <path class="fil1" d="M20.03 3.59c0.14,-0.01 0.39,0.15 0.42,0.18 -0.14,-0.05 -0.26,-0.17 -0.41,-0.17l-0.01 -0.01z"/>
  <path class="fil1" d="M20 3.55c0.09,-0.03 0.32,0.01 0.38,0.09 -0.07,0 -0.15,-0.09 -0.36,-0.08 0,0.03 -0.04,0 -0.02,-0.01z"/>
  <path class="fil1" d="M21.51 3.74c0,-0.02 0,0 0.14,-0.02 0.44,-0.07 0.74,-0.08 0.16,0 -0.04,0.01 -0.3,0.06 -0.3,0.02z"/>
  <path class="fil1" d="M21.87 3.66c-0.07,0.02 -0.13,0 -0.26,0.04 -0.05,0.02 -0.06,0.03 -0.07,0.02 -0.01,-0.03 0.25,-0.1 0.33,-0.06z"/>
  <path class="fil1" d="M21.51 3.78c0.02,-0.01 0.58,-0.06 0.41,-0.01 -0.13,0.01 -0.26,0.01 -0.39,0.03 -0.02,0.02 -0.04,-0.01 -0.02,-0.02z"/>
  <path class="fil1" d="M21.82 3.88c0.49,0 0.55,0.09 0.42,0.06 -0.26,-0.05 -0.43,-0.04 -0.43,-0.04 -0.01,0 -0.01,-0.02 0.01,-0.02z"/>
  <path class="fil1" d="M21.85 3.94c0.07,0 0.37,0.02 0.42,0.06 -0.07,0.02 -0.18,-0.03 -0.41,-0.04 -0.01,0.01 -0.02,-0.01 -0.01,-0.02z"/>
  <path class="fil1" d="M22.09 3.77c0.01,-0.02 -0.05,0.02 0.28,0 0.09,0 0.17,-0.03 0.26,-0.05 -0.17,0.09 -0.55,0.07 -0.54,0.05z"/>
  <path class="fil1" d="M22.18 3.78c0,-0.01 -0.01,0 0.15,0.01 0.07,0 0.14,-0.02 0.2,0.01 -0.04,0.01 -0.35,0.01 -0.35,-0.02z"/>
  <path class="fil1" d="M22.31 3.95c0.01,-0.03 0.32,0.04 0.34,0.04 0.04,0.01 0.12,0.05 0.04,0.04 -0.39,-0.09 -0.38,-0.06 -0.38,-0.08z"/>
  <path class="fil1" d="M22.37 3.99c0.06,0.02 0.13,0.02 0.18,0.06 -0.03,0.01 -0.05,0 -0.19,-0.03 -0.02,0 -0.01,-0.03 0.01,-0.03z"/>
  <path class="fil1" d="M22.69 3.85c0.36,-0.02 0.58,0.04 0.29,0.02 -0.17,-0.02 -0.29,0 -0.29,-0.02z"/>
  <path class="fil1" d="M22.83 3.87c0.07,0.01 0.16,0.01 0.23,0.05 -0.07,0.03 -0.5,-0.09 -0.23,-0.05z"/>
  <path class="fil1" d="M22.92 4.09c0.06,-0.09 0.84,0.02 0.39,0 -0.38,-0.03 -0.4,0.05 -0.39,0z"/>
  <path class="fil1" d="M23.22 4.1c0,-0.01 0.12,0.02 0.16,0.04 -0.01,0 -0.17,-0.02 -0.16,-0.04z"/>
  <path class="fil1" d="M10.01 2.58c0.05,-0.01 0.11,0.01 0.16,0l0.02 0c0.01,0.03 -0.17,0.01 -0.18,0z"/>
  <path class="fil1" d="M9.92 2.52c0.05,-0.02 0.1,0.01 0.15,0 0.01,-0.01 0.02,-0.01 0.03,-0.01 0.07,0 -0.08,0.09 -0.18,0.01z"/>
  <path class="fil1" d="M9.7 2.44c0.03,-0.01 0.06,0 0.09,0 0.04,-0.01 0.14,-0.05 0.06,0 -0.1,0.03 -0.16,0 -0.15,0z"/>
  <path class="fil1" d="M9.76 2.33c0.03,0.01 -0.03,0.04 -0.04,0.02 -0.39,0.02 -0.04,-0.04 0.04,-0.02z"/>
  <path class="fil1" d="M9.23 2.23c0.06,-0.03 0.07,0.01 0.2,-0.04 0.02,-0.01 0.04,-0.02 0.05,-0.01 0.01,0.01 -0.01,0.03 -0.02,0.03 -0.07,0.03 -0.16,0.07 -0.23,0.02z"/>
  <path class="fil1" d="M9.08 2.15c0.04,-0.02 0.17,-0.04 0.17,-0.04 0.03,-0.01 0.03,0.02 0.01,0.02 -0.11,0.03 -0.14,0.04 -0.18,0.02z"/>
  <path class="fil1" d="M8.9 2.05c0.03,-0.01 0.14,-0.03 0.14,-0.03 0.01,0 0.01,0.02 0,0.02 -0.01,0.01 -0.1,0.03 -0.14,0.01z"/>
  <path class="fil1" d="M8.64 1.97c0.04,-0.02 0.1,-0.02 0.15,-0.02 0.02,0 0.03,0.02 0.01,0.02 -0.06,0 -0.11,0.02 -0.16,0z"/>
  <path class="fil1" d="M8.39 1.9c0.05,-0.02 0.11,-0.02 0.16,-0.03 0.01,0 0.01,0.02 0,0.02 -0.06,0 -0.11,0.03 -0.16,0.01z"/>
  <path class="fil1" d="M10.11 2.95c0.03,-0.03 0.15,-0.06 0.16,-0.06 0.07,0.01 -0.1,0.07 -0.16,0.06z"/>
  <path class="fil1" d="M10.08 3.06c0.03,-0.03 0.13,-0.05 0.15,-0.04 0,0 0,0.01 -0.01,0.01 -0.05,0.01 -0.09,0.05 -0.14,0.03z"/>
  <path class="fil1" d="M9.99 3.19c0.05,-0.02 0.11,-0.02 0.17,-0.05 0,-0.01 0.01,-0.01 0.01,0 0.04,0.02 -0.14,0.07 -0.18,0.05z"/>
  <path class="fil1" d="M9.89 3.36c0.04,-0.02 0.09,-0.02 0.13,-0.03 0.02,0 0.06,-0.02 0.06,0.01 0,0.01 -0.14,0.05 -0.19,0.02z"/>
  <path class="fil1" d="M9.78 3.44c0.03,0 0.24,-0.02 0.24,0.01 0,0.01 -0.01,0 -0.05,0 -0.06,0 -0.13,0.02 -0.19,-0.01z"/>
  <path class="fil1" d="M9.6 3.59c0.05,-0.02 0.11,-0.01 0.17,-0.03 0.02,0 0.07,-0.02 0.07,0.01 0,0.01 -0.19,0.06 -0.24,0.02z"/>
  <path class="fil1" d="M9.54 3.7c0.03,-0.01 0.04,-0.01 0.18,-0.01 0.02,-0.01 0.02,0.05 -0.01,0.03 -0.07,0 -0.13,0.01 -0.17,-0.02z"/>
  <path class="fil1" d="M9.42 3.78c0.05,-0.01 0.15,0 0.19,-0.01 0.01,0 0.01,0.01 0,0.01 -0.06,0.01 -0.13,0.04 -0.19,0z"/>
  <path class="fil1" d="M9.32 3.88c0.06,-0.02 0.11,0 0.17,-0.01 0.01,-0.01 0.02,0 0.02,0 0.01,0.05 -0.22,0.02 -0.19,0.01z"/>
  <path class="fil1" d="M9.14 3.93c0.08,0.01 0.16,0.03 0.23,0.01 0.01,-0.01 0.02,0 0.01,0.01 -0.05,0.02 -0.22,0.05 -0.24,-0.02z"/>
  <path class="fil1" d="M9 4.03c0.05,-0.02 0.09,0 0.14,0.01 0.03,0 0.07,0 0.11,0.01 0.01,-0.01 0.02,0.02 0,0.02 -0.06,-0.01 -0.2,0 -0.25,-0.04z"/>
  <path class="fil1" d="M8.78 4.08c0.08,-0.02 0.16,0.02 0.24,0.01 0.19,0.04 -0.17,0.04 -0.24,-0.01z"/>
  <path class="fil1" d="M8.56 4.04c0.1,0.01 0.18,0.14 0.28,0.08 0.01,0 0.02,0 0.01,0.01 -0.09,0.07 -0.28,-0.07 -0.29,-0.09z"/>
  <path class="fil1" d="M8.65 4.17c0.02,0 0.02,0.03 -0.01,0.03 -0.02,0 -0.02,-0.03 0.01,-0.03z"/>
  <path class="fil1" d="M10.06 2.3c0.02,-0.02 0.1,-0.06 0.08,0 0,0.01 -0.01,0 -0.01,0 0.01,-0.04 -0.02,0 -0.07,0z"/>
  <path class="fil1" d="M9.96 2.21c0.01,-0.01 0.12,-0.02 0.09,0.02 -0.03,0.01 -0.07,0 -0.09,-0.02z"/>
  <path class="fil1" d="M9.82 2.13c0.12,-0.03 0.1,0.06 0,0l0 0z"/>
  <path class="fil1" d="M10.61 2.86l0 0.02c-0.12,0.2 -0.04,-0.05 0,-0.02z"/>
  <path class="fil1" d="M10.65 3.03c0.05,-0.1 0.05,-0.02 0.04,-0.02 -0.02,0.07 -0.06,0.1 -0.04,0.02z"/>
  <path class="fil1" d="M10.73 3.15c0.01,-0.02 0.05,-0.04 0.05,0 0,0.01 -0.02,0.02 -0.03,0.01 -0.01,0 -0.05,0.03 -0.02,-0.01z"/>
  <path class="fil1" d="M11.6 3.32c0.02,-0.03 0.05,-0.06 0.07,-0.09 0,-0.01 0.01,-0.02 0.02,-0.02 0.03,0.02 -0.05,0.12 -0.09,0.11z"/>
  <path class="fil1" d="M11.67 3.37c0.02,-0.02 0.12,-0.11 0.14,-0.09 0.01,0.01 0,0.03 -0.01,0.03 -0.04,0.03 -0.08,0.07 -0.13,0.06z"/>
  <path class="fil1" d="M11.76 3.43c0.04,-0.04 0.09,-0.05 0.13,-0.08 0.01,-0.01 0.03,-0.01 0.03,0.01 0,0.02 -0.11,0.09 -0.16,0.07z"/>
  <path class="fil1" d="M11.84 3.51c0.25,-0.06 0.17,-0.1 0.21,-0.08 0.04,0.02 -0.16,0.12 -0.21,0.08z"/>
  <path class="fil1" d="M12 3.59c0.06,-0.02 0.12,-0.03 0.17,-0.05 0,-0.01 0.01,-0.01 0.02,-0.01 0.03,0.02 -0.04,0.04 -0.06,0.04 -0.04,0.02 -0.09,0.04 -0.13,0.02z"/>
  <path class="fil1" d="M12.1 3.71c0.02,-0.01 0.22,-0.06 0.22,-0.03l-0.01 0.01c-0.07,-0.01 -0.14,0.04 -0.21,0.02z"/>
  <path class="fil1" d="M12.43 3.86c0.01,-0.01 0.03,-0.04 0.04,-0.02 0.01,0.03 -0.03,0.02 -0.04,0.02z"/>
  <path class="fil1" d="M11.65 4.08c0.01,0 0.01,0.02 -0.01,0.02 -0.01,0 -0.01,-0.02 0.01,-0.02z"/>
  <path class="fil1" d="M8.77 1.05c0.04,-0.01 0.08,0 0.12,-0.01 0.02,-0.01 0.05,0.03 0.01,0.04 -0.04,0.01 -0.1,0.01 -0.13,-0.03z"/>
  <path class="fil1" d="M8.92 1.13c0,0 0.01,-0.01 0.01,0 0.05,0.05 -0.22,0.02 -0.01,0z"/>
  <path class="fil1" d="M8.91 1.29c0.06,-0.02 0.16,-0.01 0.12,0.02 -0.03,0.02 -0.14,-0.02 -0.12,-0.02z"/>
  <path class="fil1" d="M8.98 1.39c0.02,-0.01 0.05,-0.01 0.08,-0.02 0.01,-0.01 0.03,0 0.02,0.02 -0.03,0.02 -0.07,0.02 -0.1,0z"/>
  <path class="fil1" d="M9.07 1.52c0.03,-0.01 0.05,-0.01 0.07,-0.01 0,-0.03 0.04,-0.01 0.03,0.01 -0.03,0.04 -0.11,0 -0.1,0z"/>
  <path class="fil1" d="M9.17 1.6c0.03,-0.02 0.12,-0.02 0.12,0.01 -0.01,0.03 -0.1,0.01 -0.12,-0.01z"/>
  <path class="fil1" d="M9.35 1.75c0.02,-0.02 0.11,-0.06 0.12,-0.01 -0.01,0.03 -0.09,0.03 -0.12,0.01z"/>
  <path class="fil1" d="M8.71 0.88c0.04,-0.04 0.17,-0.06 0.17,-0.01 0,0.02 -0.02,0.03 -0.04,0.03 0,0 -0.15,0 -0.13,-0.02z"/>
  <path class="fil1" d="M9.59 2.07c0.01,-0.02 0.02,-0.02 0.02,-0.01 -0.01,0.01 -0.03,0.02 0,0.08 0.01,0.02 -0.04,-0.02 -0.02,-0.07z"/>
  <path class="fil1" d="M9.47 2.05c0.03,-0.01 0.04,0.08 0.04,0.1 -0.02,-0.01 -0.07,-0.08 -0.04,-0.1z"/>
  <path class="fil1" d="M8.79 2.23c0.01,-0.01 0.01,-0.02 0.01,-0.03 0.01,0 0.02,0 0.02,0.01 -0.01,0.03 0,0.05 0,0.08 -0.01,-0.01 -0.02,-0.03 -0.02,-0.05 0,0 -0.01,0 -0.01,-0.01z"/>
  <path class="fil1" d="M8.64 2.21c0,-0.01 0.03,-0.01 0.03,0.01 0.01,0.15 -0.04,0.03 -0.03,-0.01z"/>
  <path class="fil1" d="M8.57 2.24c0.03,0 0.02,0.04 0,0.04 -0.03,0 -0.03,-0.05 0,-0.04z"/>
  <path class="fil1" d="M8.5 2.27c0.02,0 0.02,0.04 -0.01,0.04 -0.02,-0.01 -0.02,-0.04 0.01,-0.04z"/>
  <path class="fil1" d="M8.43 2.29c0.02,0 0.02,0.03 0,0.03 -0.02,0 -0.01,-0.03 0,-0.03z"/>
  <path class="fil1" d="M10.55 1.91c0.01,-0.05 0.08,-0.08 0.07,-0.04 0,0.01 -0.02,0.01 -0.01,0 -0.02,0.01 -0.04,0.03 -0.06,0.04z"/>
  <path class="fil1" d="M10.7 1.89c0.03,0 0.03,0.04 0,0.04 -0.03,-0.01 -0.02,-0.04 0,-0.04z"/>
  <path class="fil1" d="M19.3 1.03l0.01 -0.01c-0.03,-0.03 0.09,-0.04 0.05,-0.01 0.04,0 0.03,0.02 0.02,0.02 -0.02,0.01 -0.05,0 -0.08,0z"/>
  <path class="fil1" d="M16.46 2.18c0.35,-0.18 0.87,0.39 0.62,0.17 -0.22,-0.19 -0.48,-0.22 -0.61,-0.16 -0.03,0.01 -0.02,-0.01 -0.01,-0.01z"/>
  <path class="fil1" d="M16.49 2.2c0.04,-0.02 0.24,0.01 0.43,0.11 0.16,0.11 -0.33,-0.16 -0.42,-0.1 -0.01,0.01 -0.01,0 -0.01,-0.01z"/>
  <path class="fil1" d="M16.44 2.2c0.01,-0.01 0.01,-0.01 0.21,0.16 0.11,0.09 0.28,0.12 0.32,0.15 -0.22,0.03 -0.53,-0.3 -0.53,-0.31z"/>
  <path class="fil1" d="M16.47 2.2c0.11,0.05 0.22,0.11 0.33,0.16 0.07,0.04 -0.02,0.01 -0.04,0 -0.03,-0.01 -0.31,-0.15 -0.29,-0.16z"/>
  <path class="fil1" d="M16.35 2.02c0.13,-0.18 0.76,-0.25 0.54,-0.2 -0.41,0.07 -0.58,0.26 -0.54,0.2z"/>
  <path class="fil1" d="M16.36 2.06c0.06,-0.06 0.54,-0.19 0.37,-0.11 -0.1,0.04 -0.28,0.06 -0.36,0.12 0,0 -0.01,0 -0.01,-0.01z"/>
  <path class="fil1" d="M16.52 2.05c0,0 0.1,-0.01 0.01,0.02 -0.02,0 -0.02,-0.02 -0.01,-0.02z"/>
  <path class="fil1" d="M16.94 2.08c0.12,-0.01 0.45,-0.2 0.52,-0.22 -0.08,0.07 -0.18,0.09 -0.27,0.14 -0.29,0.15 -0.26,0.07 -0.25,0.08z"/>
  <path class="fil1" d="M16.93 2.09c0.17,0 0.32,-0.09 0.38,-0.11 0.16,-0.03 -0.17,0.14 -0.38,0.13 -0.01,0 -0.02,-0.02 0,-0.02z"/>
  <path class="fil1" d="M16.94 2.08c0.1,-0.09 0.47,-0.22 0.18,-0.08 -0.12,0.06 -0.2,0.13 -0.18,0.08z"/>
  <path class="fil1" d="M17.58 2.38c-0.06,-0.01 -0.09,-0.05 -0.32,-0.15 -0.49,-0.2 0.24,0.03 0.32,0.15z"/>
  <path class="fil1" d="M17.08 2.14c0.01,-0.04 0.34,0.08 0.37,0.09 0.13,0.05 0.17,0.11 0.04,0.04 -0.31,-0.14 -0.41,-0.1 -0.41,-0.13z"/>
  <path class="fil1" d="M16.99 2.1c0,-0.02 0.05,0 0.08,0 0.02,0.01 0.1,0.02 0.07,0.04 0.01,0 0.02,0 0.02,0.01 0,0.01 -0.01,0.01 -0.06,0 0.09,0.07 0.11,0.13 0.33,0.23 0.08,0.03 0.15,0.04 0.23,0.07 -0.09,0 -0.18,-0.03 -0.26,-0.06 -0.23,-0.1 -0.25,-0.2 -0.34,-0.26 -0.01,0 -0.08,-0.01 -0.07,-0.03z"/>
  <path class="fil1" d="M17.34 2.13c0.07,0 0.57,-0.11 0.64,-0.12 -0.01,0.01 -0.72,0.19 -0.64,0.12z"/>
  <path class="fil1" d="M17.39 2.12c0.16,-0.05 0.32,-0.14 0.41,-0.13 -0.03,0.02 -0.37,0.14 -0.4,0.15 -0.01,0.02 -0.03,-0.01 -0.01,-0.02z"/>
  <path class="fil1" d="M17.33 2.14c0.01,-0.01 0.01,-0.01 0.02,-0.01 0.15,0.03 0.44,-0.05 0.47,-0.05 -0.13,0.08 -0.5,0.11 -0.49,0.06z"/>
  <path class="fil1" d="M17.6 2.21c0.01,-0.03 0.03,0 0.16,0.03 0.13,0.04 0.28,0.04 0.41,0.1 -0.06,0.01 -0.57,-0.1 -0.57,-0.13z"/>
  <path class="fil1" d="M17.69 2.2c0.07,0.01 0.45,0.05 0.51,0.1 0,0 -0.61,-0.1 -0.51,-0.1z"/>
  <path class="fil1" d="M18.42 2.4c0.01,0 0.06,-0.01 0.04,0.01 -0.01,0 -0.03,-0.01 -0.04,-0.01z"/>
  <path class="fil1" d="M18.75 2c-0.07,0.02 -0.14,-0.01 -0.39,0.06 -0.1,0.03 -0.2,0.06 -0.3,0.08 -0.08,0.01 0.52,-0.2 0.69,-0.14z"/>
  <path class="fil1" d="M18.15 2.13c0.62,-0.06 0.54,-0.12 0.73,-0.12 0,0 0,0.01 0,0.01 -0.15,0 -0.56,0.16 -0.73,0.11z"/>
  <path class="fil1" d="M18.14 2.14c0.14,-0.03 0.28,0.08 0.61,-0.06 0.01,-0.01 0.02,0.01 0.01,0.02 -0.32,0.11 -0.58,0.06 -0.62,0.04z"/>
  <path class="fil1" d="M18.1 2.13c0.03,-0.04 0.22,-0.15 0.44,-0.18 0.01,0 0.02,0.01 0,0.02 -0.28,0.03 -0.31,0.12 -0.44,0.16z"/>
  <path class="fil1" d="M18.35 2.21c0.01,-0.03 0,0.02 0.19,0.09 0.22,0.08 0.28,0.06 0.32,0.09 -0.09,0.03 -0.46,-0.09 -0.51,-0.18z"/>
  <path class="fil1" d="M18.43 2.24c0,0 0.33,0.05 0.38,0.07 -0.04,0.01 -0.38,-0.05 -0.38,-0.07z"/>
  <path class="fil1" d="M18.42 2.31c0,-0.01 0.13,0.06 0.14,0.07 -0.04,0 -0.15,-0.06 -0.14,-0.07z"/>
  <path class="fil1" d="M18.65 2.18c0,-0.01 0.02,0 0.04,0 0.03,-0.01 0.36,-0.17 0.51,-0.11 -0.1,0.03 -0.21,0.01 -0.31,0.06 -0.07,0.02 -0.25,0.09 -0.24,0.05z"/>
  <path class="fil1" d="M18 1.95c0.07,-0.04 0.22,-0.04 0.28,-0.04 0.01,0 0.01,0.02 0,0.02 -0.17,-0.01 -0.23,0.03 -0.28,0.02z"/>
  <path class="fil1" d="M18.09 1.97c0,-0.01 0.19,-0.05 0.16,-0.02 -0.06,0 -0.11,0.03 -0.16,0.02z"/>
  <path class="fil1" d="M17.94 1.89c0.07,-0.02 0.15,-0.02 0.22,-0.02 0.01,0 0.01,0.02 -0.01,0.02 -0.07,-0.01 -0.14,0.01 -0.21,0z"/>
  <path class="fil1" d="M17.59 1.78c0.02,-0.01 0.11,-0.07 0.11,-0.02 0,0.01 -0.09,0.02 -0.11,0.02z"/>
  <path class="fil1" d="M17.53 1.88c0.01,-0.01 0.11,-0.07 0.11,-0.06 0.01,0.01 -0.09,0.05 -0.11,0.06z"/>
  <path class="fil1" d="M18.4 2.38c0.06,-0.02 0.05,0.04 0,0l0 0z"/>
  <path class="fil1" d="M17.54 1.78c0.03,-0.02 0.07,-0.03 0.1,-0.05 0.01,-0.01 0.02,0.01 0.01,0.02 -0.02,0.02 -0.07,0.04 -0.11,0.03z"/>
  <path class="fil1" d="M16.98 1.88c0.02,-0.02 0.13,-0.08 0.14,-0.06 0.01,0.02 -0.11,0.06 -0.14,0.06z"/>
  <path class="fil1" d="M17.75 2.49c0.1,-0.01 0.06,0.08 0,0l0 0z"/>
  <path class="fil1" d="M18.77 2.18c0.31,-0.04 0.27,-0.06 0.33,-0.06 -0.12,0.06 -0.39,0.07 -0.33,0.06z"/>
  <path class="fil1" d="M18.77 2.1c0.04,-0.03 0.12,-0.08 0.19,-0.06 -0.03,0.02 -0.11,0.03 -0.17,0.08 -0.02,0.02 -0.04,0 -0.02,-0.02z"/>
  <path class="fil1" d="M19.27 2.18c0.1,-0.09 0.52,-0.04 0.57,0 -0.07,0.01 -0.15,-0.03 -0.36,-0.02 -0.27,0 -0.17,0.05 -0.2,0.04 -0.01,0 -0.02,-0.01 -0.01,-0.02z"/>
  <path class="fil1" d="M19.65 2.11c-0.05,0.01 -0.1,-0.02 -0.32,0.02 -0.01,0 -0.02,0 -0.03,0 -0.08,0 0.26,-0.07 0.35,-0.02z"/>
  <path class="fil1" d="M19.36 2.18c0.06,-0.01 0.13,0 0.18,0.02 -0.06,0.01 -0.12,-0.01 -0.18,-0.01 -0.01,0.01 -0.02,-0.01 0,-0.01z"/>
  <path class="fil1" d="M19.02 2.27c0.15,0.03 0.23,0.02 0.26,0.04 -0.09,0.03 -0.57,-0.1 -0.26,-0.04z"/>
  <path class="fil1" d="M8.16 2.26c0.05,-0.01 0.02,0.08 0.01,0.1 -0.01,-0.02 -0.02,-0.09 -0.01,-0.1z"/>
  <path class="fil1" d="M8.01 2.34c0.01,0 0.01,0.04 0.01,0.05 -0.01,-0.01 -0.03,-0.05 -0.01,-0.05z"/>
  <path class="fil1" d="M7.88 2.42c0.02,-0.06 0.05,-0.05 0.04,-0.04 0,0 -0.01,-0.01 -0.02,0.02 0,0.01 -0.02,0.08 -0.02,0.02z"/>
  <path class="fil1" d="M7.7 2.46c0.01,-0.03 0.04,-0.03 0.04,-0.02 -0.01,0.02 -0.01,-0.01 -0.05,0.03l0.01 -0.01z"/>
  <path class="fil1" d="M7.54 2.48c0.01,-0.02 0.01,0.02 0,0.04 0,-0.02 -0.01,-0.03 0,-0.04z"/>
  <path class="fil1" d="M7.27 2.48c0.02,-0.02 0.03,0.02 0.02,0.03 -0.01,-0.01 -0.02,-0.02 -0.02,-0.03z"/>
  <path class="fil1" d="M7.15 2.52c0.02,0 0.02,0.03 0,0.03 -0.02,0 -0.02,-0.04 0,-0.03z"/>
  <path class="fil1" d="M6.99 2.6c0.02,-0.1 0.08,-0.02 0.03,-0.02 -0.01,0.02 0,0.07 -0.04,0.08 0.01,-0.03 0,-0.04 0.01,-0.06z"/>
  <path class="fil1" d="M6.78 2.58c0,0.01 -0.03,0.01 -0.03,0.01 0,0 -0.01,0.04 -0.02,0.06 -0.04,-0.09 0.04,-0.1 0.05,-0.07z"/>
  <path class="fil1" d="M6.48 2.64c0,-0.01 0.02,-0.03 0.02,-0.01l0 0.01c-0.01,0 -0.04,0.06 -0.02,0z"/>
  <path class="fil1" d="M6.35 2.71c0.01,-0.02 0.03,-0.02 0.04,-0.02 0.02,0.01 0.01,0.03 0,0.02 -0.01,0 -0.02,-0.01 -0.03,0 0,0 -0.01,0.01 -0.01,0z"/>
  <path class="fil1" d="M10.55 1.83c0,-0.05 0.06,0 0.02,0.01 0,0.01 -0.01,0.02 -0.02,0.03 0,-0.01 -0.01,-0.02 0,-0.04z"/>
  <path class="fil1" d="M10.61 1.77c0.03,0 0.02,0.06 0.01,0.08 -0.01,-0.01 -0.04,-0.07 -0.01,-0.08z"/>
  <path class="fil1" d="M10.74 1.83c0.01,-0.03 0.04,0 0,0.04 0,-0.02 0,-0.03 0,-0.04z"/>
  <path class="fil1" d="M3.59 6.88c0.01,-0.03 0.02,-0.06 0.05,-0.1 0,-0.04 -0.01,-0.08 -0.04,-0.12 -0.02,-0.04 -0.05,-0.07 -0.09,-0.09 -0.03,-0.03 -0.07,-0.05 -0.12,-0.07 -0.04,-0.02 -0.09,-0.02 -0.14,-0.02 -0.11,0 -0.22,0.08 -0.34,0.24 -0.11,0.15 -0.25,0.39 -0.42,0.72 -0.17,0.33 -0.37,0.74 -0.63,1.25 -0.24,0.5 -0.56,1.1 -0.93,1.8 -0.23,0 -0.4,0.01 -0.51,0.03 -0.12,0.02 -0.2,0.05 -0.26,0.09 -0.06,0.04 -0.09,0.06 -0.1,0.1 -0.02,0.04 -0.03,0.07 -0.05,0.09 0,0.01 0,0.03 0,0.04 0,0.01 -0.01,0.02 -0.01,0.03 0,0.11 0.04,0.2 0.11,0.26 0.08,0.07 0.16,0.12 0.28,0.16 0.12,0.05 0.24,0.07 0.38,0.09 0.14,0.01 0.27,0.02 0.4,0.02 0.39,0 0.76,-0.03 1.13,-0.09 0.36,-0.07 0.72,-0.15 1.05,-0.26 0.33,-0.11 0.64,-0.25 0.92,-0.4 0.28,-0.15 0.53,-0.32 0.73,-0.51 0.21,-0.18 0.37,-0.37 0.48,-0.57 0.12,-0.21 0.18,-0.41 0.18,-0.63 0,-0.14 -0.02,-0.28 -0.06,-0.41 -0.04,-0.14 -0.12,-0.27 -0.23,-0.4 -0.11,-0.13 -0.27,-0.25 -0.48,-0.36 -0.2,-0.12 -0.47,-0.24 -0.79,-0.34 0.33,-0.12 0.62,-0.25 0.89,-0.4 0.26,-0.14 0.47,-0.29 0.66,-0.45 0.18,-0.16 0.32,-0.32 0.41,-0.48 0.11,-0.16 0.15,-0.31 0.15,-0.46 0,-0.14 -0.03,-0.28 -0.1,-0.4 -0.08,-0.13 -0.19,-0.24 -0.34,-0.33 -0.14,-0.09 -0.33,-0.16 -0.56,-0.22 -0.23,-0.04 -0.52,-0.07 -0.83,-0.07 -0.31,0 -0.62,0.03 -0.93,0.09 -0.31,0.06 -0.61,0.14 -0.89,0.25 -0.29,0.09 -0.55,0.21 -0.81,0.34 -0.24,0.13 -0.46,0.28 -0.63,0.43 -0.19,0.14 -0.33,0.29 -0.44,0.44 -0.1,0.14 -0.16,0.28 -0.16,0.41 0,0.11 0.04,0.19 0.12,0.26 0.06,0.06 0.17,0.08 0.3,0.08 0.08,0 0.15,0 0.21,-0.03 0.07,-0.03 0.12,-0.07 0.17,-0.11 0.06,-0.04 0.11,-0.09 0.17,-0.16 0.06,-0.05 0.12,-0.11 0.2,-0.16 0.12,-0.1 0.27,-0.21 0.45,-0.33 0.18,-0.13 0.39,-0.25 0.62,-0.37 0.24,-0.11 0.5,-0.21 0.78,-0.3 0.29,-0.07 0.6,-0.11 0.94,-0.11 0.12,0 0.23,0.01 0.33,0.03 0.09,0.03 0.18,0.05 0.23,0.08 0.07,0.04 0.11,0.08 0.14,0.12 0.03,0.03 0.05,0.07 0.05,0.1 0,0.09 -0.04,0.19 -0.1,0.29 -0.08,0.11 -0.18,0.22 -0.31,0.34 -0.14,0.11 -0.31,0.22 -0.52,0.34 -0.2,0.12 -0.44,0.23 -0.71,0.34 0,-0.04 0,-0.07 0,-0.11zm0.33 1.23c0.16,0.1 0.28,0.19 0.37,0.29 0.1,0.09 0.16,0.18 0.2,0.28 0.04,0.09 0.05,0.18 0.05,0.27 0,0.19 -0.06,0.36 -0.19,0.53 -0.13,0.18 -0.31,0.33 -0.54,0.47 -0.22,0.13 -0.49,0.25 -0.8,0.35 -0.3,0.09 -0.63,0.15 -0.99,0.18 0.1,-0.17 0.19,-0.34 0.29,-0.53 0.09,-0.18 0.19,-0.36 0.3,-0.57 0.11,-0.21 0.22,-0.43 0.34,-0.68 0.12,-0.25 0.25,-0.53 0.39,-0.84 0.23,0.08 0.43,0.16 0.58,0.25zm4.04 0.63c0.06,0.02 0.13,0.05 0.18,0.08 0.06,0.04 0.12,0.07 0.15,0.12 0.04,0.05 0.06,0.1 0.06,0.16 0,0.04 -0.02,0.1 -0.07,0.19 -0.04,0.08 -0.1,0.17 -0.17,0.29 -0.08,0.1 -0.16,0.21 -0.26,0.32 -0.08,0.11 -0.18,0.21 -0.28,0.3 -0.09,0.1 -0.19,0.17 -0.27,0.24 -0.09,0.06 -0.17,0.08 -0.23,0.08 -0.1,0 -0.16,-0.02 -0.21,-0.05 -0.06,-0.04 -0.09,-0.08 -0.12,-0.13 -0.03,-0.06 -0.04,-0.13 -0.05,-0.19 -0.01,-0.07 -0.02,-0.12 -0.02,-0.19 0,-0.15 0.04,-0.3 0.1,-0.44 0.06,-0.15 0.15,-0.28 0.25,-0.4 0.1,-0.12 0.21,-0.22 0.36,-0.29 0.13,-0.08 0.27,-0.12 0.41,-0.12 0.04,0 0.1,0.01 0.17,0.03zm3.09 0.94c0,-0.07 -0.02,-0.13 -0.07,-0.2 -0.03,-0.05 -0.09,-0.08 -0.15,-0.08 -0.04,0 -0.09,0.02 -0.14,0.06 -0.19,0.19 -0.37,0.36 -0.54,0.52 -0.08,0.07 -0.15,0.12 -0.24,0.19 -0.07,0.06 -0.15,0.12 -0.22,0.17 -0.08,0.04 -0.14,0.08 -0.2,0.11 -0.06,0.03 -0.12,0.05 -0.17,0.05 -0.07,0 -0.12,-0.03 -0.15,-0.1 -0.03,-0.05 -0.04,-0.13 -0.04,-0.22 0,-0.07 0.01,-0.15 0.03,-0.26 0.01,-0.1 0.04,-0.2 0.08,-0.31 0.04,-0.12 0.07,-0.23 0.11,-0.35 0.04,-0.11 0.09,-0.23 0.12,-0.34 0.04,-0.1 0.08,-0.21 0.11,-0.29 0.03,-0.09 0.05,-0.17 0.07,-0.22 0,-0.01 0,-0.03 0,-0.05 0,-0.08 -0.04,-0.15 -0.1,-0.22 -0.08,-0.05 -0.17,-0.09 -0.29,-0.09 -0.04,0 -0.08,0.01 -0.13,0.03 -0.05,0.02 -0.1,0.03 -0.14,0.05 -0.06,0.02 -0.11,0.05 -0.16,0.08 -0.07,-0.06 -0.13,-0.11 -0.21,-0.16 -0.07,-0.04 -0.16,-0.08 -0.26,-0.11 -0.1,-0.03 -0.22,-0.05 -0.35,-0.05 -0.26,0 -0.49,0.05 -0.71,0.13 -0.21,0.09 -0.39,0.22 -0.56,0.36 -0.16,0.14 -0.3,0.31 -0.42,0.49 -0.13,0.18 -0.23,0.37 -0.3,0.56 -0.08,0.18 -0.14,0.36 -0.18,0.54 -0.04,0.17 -0.06,0.32 -0.06,0.45 0,0.16 0.04,0.31 0.11,0.42 0.05,0.11 0.14,0.21 0.23,0.28 0.09,0.08 0.2,0.13 0.3,0.16 0.1,0.03 0.2,0.05 0.27,0.05 0.16,0 0.31,-0.04 0.47,-0.1 0.15,-0.08 0.29,-0.17 0.43,-0.28 0.14,-0.11 0.27,-0.24 0.38,-0.37 0.13,-0.14 0.24,-0.27 0.33,-0.39 -0.02,0.05 -0.03,0.11 -0.04,0.16 -0.01,0.07 -0.02,0.14 -0.02,0.2 0,0.1 0.02,0.19 0.03,0.28 0.03,0.1 0.07,0.18 0.12,0.26 0.05,0.07 0.11,0.13 0.19,0.17 0.08,0.05 0.17,0.07 0.28,0.07 0.12,0 0.24,-0.03 0.37,-0.09 0.14,-0.05 0.27,-0.13 0.41,-0.21 0.14,-0.08 0.27,-0.19 0.42,-0.3 0.13,-0.1 0.25,-0.22 0.37,-0.32 0.11,-0.1 0.22,-0.21 0.31,-0.3 0.09,-0.08 0.17,-0.16 0.22,-0.21 0.06,-0.06 0.09,-0.13 0.09,-0.22zm1.06 -1.54c0.12,-0.25 0.25,-0.51 0.37,-0.78 0.12,-0.27 0.26,-0.53 0.38,-0.78 0.13,-0.26 0.26,-0.51 0.38,-0.73 0.05,-0.07 0.09,-0.13 0.11,-0.21 0.04,-0.07 0.05,-0.15 0.05,-0.21 0,-0.07 -0.03,-0.14 -0.07,-0.19 -0.06,-0.05 -0.15,-0.08 -0.29,-0.08 -0.06,0 -0.11,0.01 -0.16,0.03 -0.06,0.01 -0.11,0.04 -0.15,0.07 -0.05,0.02 -0.1,0.06 -0.14,0.1 -0.03,0.03 -0.06,0.07 -0.08,0.11l-1.44 2.95c-0.05,0.1 -0.12,0.23 -0.19,0.38 -0.08,0.15 -0.15,0.31 -0.23,0.49 -0.08,0.17 -0.16,0.34 -0.25,0.52 -0.08,0.18 -0.16,0.35 -0.23,0.51 -0.07,0.16 -0.12,0.3 -0.17,0.43 -0.05,0.12 -0.08,0.21 -0.08,0.27 -0.01,0.02 -0.01,0.04 -0.01,0.05 0,0.01 0,0.02 0,0.03 0,0.09 0.02,0.15 0.07,0.18 0.04,0.03 0.1,0.05 0.19,0.05 0.18,0 0.4,-0.13 0.63,-0.4 0.08,-0.11 0.16,-0.21 0.25,-0.33 0.08,-0.11 0.17,-0.23 0.25,-0.36 0.1,-0.12 0.19,-0.24 0.29,-0.36 0.11,-0.13 0.23,-0.27 0.35,-0.4 0.55,-0.59 0.97,-0.88 1.28,-0.88 0.09,0 0.12,0.04 0.12,0.13 0,0.06 -0.01,0.12 -0.04,0.16 -0.03,0.06 -0.07,0.12 -0.11,0.16 -0.06,0.06 -0.12,0.11 -0.18,0.15 -0.07,0.05 -0.13,0.1 -0.21,0.14 -0.09,0.07 -0.21,0.13 -0.34,0.22 -0.13,0.08 -0.25,0.18 -0.37,0.29 -0.12,0.11 -0.23,0.24 -0.31,0.39 -0.08,0.15 -0.12,0.33 -0.12,0.53 0,0.37 0.21,0.56 0.64,0.56 0.26,0 0.5,-0.04 0.74,-0.1 0.24,-0.08 0.46,-0.17 0.69,-0.28 0.23,-0.11 0.45,-0.24 0.66,-0.37 0.22,-0.13 0.43,-0.26 0.63,-0.38 0.14,-0.11 0.25,-0.21 0.31,-0.31 0.07,-0.12 0.09,-0.21 0.09,-0.29 0,-0.08 -0.01,-0.14 -0.04,-0.17 -0.04,-0.05 -0.09,-0.07 -0.14,-0.07 -0.05,0 -0.1,0.01 -0.15,0.05 -0.32,0.19 -0.6,0.36 -0.85,0.5 -0.24,0.14 -0.46,0.27 -0.65,0.36 -0.19,0.09 -0.36,0.16 -0.5,0.21 -0.15,0.04 -0.27,0.06 -0.38,0.06 -0.07,0 -0.11,-0.01 -0.12,-0.04 -0.03,-0.02 -0.04,-0.05 -0.04,-0.09 0,-0.02 0.01,-0.05 0.02,-0.07 0.02,-0.04 0.03,-0.07 0.06,-0.11 0.03,-0.03 0.06,-0.05 0.1,-0.09 0.03,-0.03 0.07,-0.05 0.12,-0.07 0.17,-0.06 0.34,-0.15 0.51,-0.24 0.17,-0.09 0.33,-0.21 0.48,-0.34 0.14,-0.12 0.25,-0.26 0.35,-0.42 0.09,-0.16 0.13,-0.34 0.13,-0.53 0,-0.12 -0.03,-0.22 -0.08,-0.3 -0.05,-0.09 -0.13,-0.15 -0.21,-0.2 -0.09,-0.06 -0.19,-0.09 -0.29,-0.11 -0.11,-0.03 -0.22,-0.04 -0.31,-0.04 -0.18,0 -0.34,0.03 -0.5,0.08 -0.15,0.06 -0.3,0.14 -0.44,0.23 -0.14,0.09 -0.28,0.21 -0.41,0.32 -0.12,0.12 -0.25,0.23 -0.37,0.35 0.13,-0.22 0.27,-0.46 0.4,-0.73zm4.75 0.42c0.04,0.03 0.05,0.07 0.05,0.12 0,0.05 -0.03,0.12 -0.08,0.19 -0.06,0.08 -0.15,0.15 -0.28,0.24 -0.04,0.02 -0.09,0.05 -0.16,0.11 -0.07,0.05 -0.17,0.1 -0.26,0.17 -0.11,0.07 -0.22,0.13 -0.33,0.21 -0.11,0.06 -0.23,0.13 -0.33,0.18 0.02,-0.06 0.05,-0.13 0.08,-0.21 0.03,-0.09 0.08,-0.18 0.13,-0.27 0.05,-0.1 0.11,-0.19 0.18,-0.29 0.06,-0.09 0.14,-0.17 0.22,-0.25 0.09,-0.07 0.18,-0.13 0.27,-0.18 0.11,-0.04 0.22,-0.07 0.33,-0.07 0.02,0 0.03,0 0.05,0 0.01,0 0.02,0.01 0.03,0.01 0.04,0.01 0.07,0.02 0.1,0.04zm-0.61 -0.57c-0.22,0.07 -0.4,0.16 -0.58,0.28 -0.18,0.12 -0.34,0.25 -0.48,0.4 -0.14,0.15 -0.26,0.31 -0.36,0.47 -0.1,0.16 -0.17,0.32 -0.23,0.47 -0.05,0.15 -0.07,0.3 -0.07,0.44 0,0.16 0.02,0.32 0.07,0.48 0.06,0.15 0.13,0.29 0.23,0.42 0.1,0.11 0.22,0.2 0.36,0.28 0.14,0.06 0.31,0.1 0.49,0.1 0.21,0 0.43,-0.03 0.65,-0.09 0.22,-0.05 0.43,-0.12 0.63,-0.21 0.21,-0.08 0.4,-0.18 0.58,-0.28 0.18,-0.1 0.34,-0.2 0.48,-0.29 0.13,-0.09 0.24,-0.17 0.34,-0.24 0.08,-0.06 0.13,-0.11 0.15,-0.12 0.04,-0.05 0.06,-0.09 0.06,-0.13 0.01,-0.04 0.01,-0.07 0.01,-0.1 0,-0.02 0,-0.04 -0.01,-0.07 0,-0.02 -0.02,-0.05 -0.02,-0.06 -0.02,-0.03 -0.04,-0.05 -0.07,-0.07 -0.03,-0.02 -0.06,-0.02 -0.09,-0.02 -0.02,0 -0.04,0 -0.06,0 -0.03,0 -0.05,0.01 -0.08,0.03 -0.02,0.02 -0.08,0.05 -0.16,0.09 -0.08,0.05 -0.18,0.12 -0.3,0.18 -0.13,0.07 -0.26,0.13 -0.41,0.21 -0.15,0.07 -0.3,0.15 -0.46,0.21 -0.16,0.07 -0.31,0.12 -0.47,0.16 -0.16,0.04 -0.31,0.06 -0.45,0.06 -0.13,0 -0.24,-0.03 -0.32,-0.08 -0.08,-0.04 -0.12,-0.12 -0.14,-0.2 0.41,-0.15 0.76,-0.31 1.04,-0.46 0.27,-0.15 0.49,-0.3 0.65,-0.44 0.17,-0.15 0.28,-0.29 0.35,-0.43 0.07,-0.14 0.1,-0.27 0.1,-0.41 0,-0.21 -0.06,-0.38 -0.18,-0.5 -0.13,-0.12 -0.31,-0.18 -0.57,-0.18 -0.24,0 -0.47,0.03 -0.68,0.1zm3.44 0.57l-0.01 0c0,0 0,-0.01 0,-0.01 0,-0.01 0,-0.02 0.01,-0.04 0,-0.02 0.01,-0.03 0.02,-0.05 0.01,-0.02 0.01,-0.04 0.02,-0.05 0.01,-0.01 0.01,-0.03 0.01,-0.04 0,-0.05 -0.02,-0.1 -0.06,-0.13 -0.05,-0.05 -0.09,-0.08 -0.16,-0.11 -0.06,-0.02 -0.13,-0.04 -0.21,-0.06 -0.08,-0.01 -0.16,-0.02 -0.24,-0.02 -0.07,0 -0.15,0.01 -0.22,0.03 -0.06,0.02 -0.13,0.03 -0.17,0.07 -0.06,0.03 -0.1,0.08 -0.13,0.13 -0.03,0.05 -0.04,0.12 -0.04,0.19 0,0.08 0.01,0.15 0.04,0.2 0.02,0.05 0.06,0.1 0.11,0.14 -0.13,0.26 -0.25,0.5 -0.35,0.7 -0.09,0.2 -0.18,0.38 -0.25,0.54 -0.07,0.15 -0.13,0.3 -0.19,0.42 -0.06,0.12 -0.11,0.23 -0.17,0.33 -0.04,0.07 -0.05,0.12 -0.06,0.17 -0.01,0.05 -0.02,0.1 -0.02,0.13 0,0.08 0.02,0.14 0.06,0.17 0.04,0.04 0.1,0.06 0.16,0.06 0.07,0 0.13,-0.01 0.21,-0.04 0.07,-0.03 0.14,-0.06 0.21,-0.11 0.07,-0.06 0.14,-0.11 0.2,-0.18 0.06,-0.07 0.1,-0.15 0.14,-0.24 0.05,-0.11 0.1,-0.22 0.17,-0.36 0.06,-0.14 0.12,-0.29 0.2,-0.43 0.06,-0.14 0.13,-0.28 0.19,-0.41 0.07,-0.13 0.13,-0.24 0.17,-0.32 0.04,-0.08 0.11,-0.13 0.19,-0.2 0.08,-0.05 0.17,-0.11 0.26,-0.16 0.11,-0.03 0.19,-0.07 0.27,-0.1 0.09,-0.03 0.14,-0.05 0.18,-0.05 0.03,0 0.04,0.01 0.05,0.03 0,0.01 0.01,0.03 0.01,0.05 0,0.06 -0.03,0.13 -0.07,0.2 -0.04,0.08 -0.09,0.16 -0.16,0.26 -0.06,0.08 -0.14,0.19 -0.22,0.29 -0.08,0.09 -0.15,0.2 -0.23,0.32 -0.07,0.11 -0.14,0.23 -0.19,0.35 -0.06,0.12 -0.11,0.26 -0.13,0.4 0,0.01 0,0.02 0,0.04 0,0.16 0.05,0.29 0.16,0.4 0.11,0.1 0.27,0.15 0.47,0.15 0.1,0 0.2,-0.02 0.32,-0.07 0.11,-0.04 0.25,-0.09 0.39,-0.16 0.13,-0.06 0.28,-0.14 0.42,-0.22 0.15,-0.09 0.3,-0.18 0.44,-0.27 0.15,-0.09 0.29,-0.17 0.42,-0.26 0.13,-0.08 0.25,-0.16 0.36,-0.22 0.14,-0.11 0.24,-0.2 0.3,-0.28 0.05,-0.1 0.09,-0.18 0.09,-0.25 0,-0.06 -0.02,-0.11 -0.06,-0.15 -0.03,-0.03 -0.08,-0.05 -0.14,-0.05 -0.03,0 -0.04,0.01 -0.07,0.02 -0.04,0 -0.07,0.02 -0.09,0.03 -0.13,0.08 -0.28,0.16 -0.46,0.27 -0.18,0.09 -0.37,0.19 -0.57,0.29 -0.2,0.11 -0.4,0.21 -0.61,0.31 -0.2,0.1 -0.38,0.18 -0.55,0.26 -0.02,0 -0.04,-0.01 -0.04,-0.02 -0.01,-0.01 -0.01,-0.02 -0.01,-0.05 0,-0.03 0.04,-0.07 0.11,-0.15 0.06,-0.07 0.15,-0.16 0.24,-0.26 0.1,-0.09 0.21,-0.21 0.33,-0.32 0.11,-0.12 0.22,-0.23 0.33,-0.36 0.1,-0.11 0.18,-0.22 0.26,-0.32 0.08,-0.12 0.13,-0.21 0.14,-0.28 0.01,-0.05 0.02,-0.09 0.02,-0.13 0,-0.03 0.01,-0.07 0.01,-0.1 0,-0.16 -0.04,-0.27 -0.12,-0.34 -0.07,-0.06 -0.18,-0.09 -0.31,-0.09 -0.09,0 -0.19,0.01 -0.29,0.04 -0.12,0.02 -0.23,0.05 -0.35,0.1 -0.11,0.05 -0.24,0.09 -0.37,0.16 -0.13,0.06 -0.25,0.13 -0.36,0.2l-0.01 0.01zm3.15 1.62c-0.05,0.03 -0.11,0.07 -0.15,0.11 -0.06,0.03 -0.1,0.05 -0.13,0.05 -0.04,0 -0.06,-0.02 -0.06,-0.07 0,-0.06 0.03,-0.12 0.07,-0.22l0.84 -1.74c0.01,-0.03 0.02,-0.05 0.02,-0.09 0,-0.08 -0.04,-0.13 -0.11,-0.18 -0.06,-0.04 -0.15,-0.07 -0.24,-0.07 -0.08,0 -0.18,0.03 -0.28,0.09 -0.09,0.05 -0.18,0.14 -0.23,0.25 -0.1,0.23 -0.17,0.42 -0.25,0.59 -0.07,0.16 -0.14,0.31 -0.19,0.44 -0.06,0.12 -0.12,0.24 -0.16,0.34 -0.06,0.1 -0.11,0.2 -0.15,0.28 -0.05,0.09 -0.09,0.18 -0.14,0.26 -0.04,0.09 -0.08,0.18 -0.13,0.28 -0.07,0.2 -0.1,0.37 -0.1,0.52 0,0.11 0.03,0.2 0.1,0.24 0.08,0.05 0.17,0.07 0.28,0.07 0.31,0 0.66,-0.14 1.04,-0.43 0.37,-0.28 0.78,-0.7 1.24,-1.25l-0.92 1.86c-0.19,0.25 -0.36,0.48 -0.49,0.66 -0.14,0.19 -0.25,0.36 -0.33,0.51 -0.08,0.16 -0.13,0.29 -0.17,0.42 -0.03,0.12 -0.05,0.25 -0.05,0.38 0,0.14 0.04,0.25 0.12,0.33 0.08,0.08 0.17,0.12 0.3,0.12 0.3,0 0.57,-0.26 0.81,-0.76 0,-0.01 0.03,-0.06 0.06,-0.14 0.03,-0.08 0.08,-0.18 0.14,-0.3 0.05,-0.14 0.12,-0.29 0.19,-0.45 0.07,-0.17 0.14,-0.34 0.21,-0.53 0.09,-0.08 0.18,-0.17 0.26,-0.23 0.08,-0.07 0.16,-0.13 0.25,-0.18 0.08,-0.07 0.17,-0.12 0.27,-0.17 0.09,-0.06 0.2,-0.12 0.32,-0.19 0.12,-0.06 0.26,-0.14 0.42,-0.22 0.16,-0.09 0.35,-0.19 0.56,-0.31 0.15,-0.08 0.25,-0.16 0.31,-0.25 0.07,-0.09 0.09,-0.17 0.09,-0.26 0,-0.08 -0.02,-0.16 -0.09,-0.21 -0.06,-0.06 -0.12,-0.09 -0.2,-0.09 -0.02,0 -0.09,0.02 -0.21,0.08 -0.13,0.04 -0.28,0.12 -0.46,0.2 -0.17,0.09 -0.36,0.18 -0.54,0.28 -0.19,0.11 -0.36,0.22 -0.51,0.32l1.02 -2.13c0.02,-0.04 0.03,-0.08 0.03,-0.12 0,-0.05 -0.02,-0.1 -0.05,-0.15 -0.03,-0.04 -0.06,-0.07 -0.13,-0.07 -0.04,0 -0.07,0 -0.11,0.01 -0.04,0 -0.08,0.01 -0.11,0.03 -0.05,0.02 -0.1,0.03 -0.16,0.07 -0.06,0.04 -0.13,0.09 -0.22,0.15l-1.88 1.87z"/>
  <path class="fil1" d="M1.07 12.7c-0.06,0 -0.12,0.01 -0.17,0.03 -0.05,0.03 -0.09,0.06 -0.11,0.09l0 -0.69 -0.16 0 0 1.29 0.16 0 0 -0.11c0.02,0.04 0.06,0.07 0.11,0.09 0.04,0.02 0.09,0.03 0.15,0.03 0.07,0 0.12,-0.01 0.18,-0.04 0.05,-0.03 0.1,-0.07 0.13,-0.13 0.03,-0.06 0.05,-0.12 0.05,-0.2 0,-0.07 -0.02,-0.13 -0.05,-0.19 -0.03,-0.05 -0.07,-0.09 -0.12,-0.12 -0.05,-0.03 -0.11,-0.05 -0.17,-0.05zm-0.05 0.6c-0.06,0 -0.11,-0.02 -0.15,-0.05 -0.04,-0.03 -0.07,-0.07 -0.08,-0.12l0 -0.14c0.01,-0.05 0.04,-0.09 0.08,-0.12 0.04,-0.03 0.09,-0.04 0.15,-0.04 0.04,0 0.08,0.01 0.12,0.03 0.03,0.02 0.06,0.05 0.08,0.08 0.02,0.04 0.03,0.08 0.03,0.12 0,0.07 -0.02,0.13 -0.07,0.17 -0.04,0.05 -0.09,0.07 -0.16,0.07zm1.07 -0.41l-0.01 -0.16 -0.14 0 0 0.69 0.16 0 0 -0.32c0,-0.04 0.01,-0.08 0.03,-0.12 0.02,-0.04 0.06,-0.07 0.1,-0.09 0.04,-0.02 0.08,-0.03 0.13,-0.03l0.01 -0.16c-0.03,0 -0.06,0.01 -0.1,0.03 -0.03,0.01 -0.07,0.04 -0.1,0.06 -0.03,0.03 -0.06,0.07 -0.08,0.1zm1.1 0.41c-0.04,0 -0.08,-0.01 -0.11,-0.03 -0.04,-0.02 -0.07,-0.04 -0.09,-0.08l0.55 -0.19c-0.02,-0.09 -0.07,-0.17 -0.13,-0.22 -0.06,-0.05 -0.13,-0.08 -0.22,-0.08 -0.07,0 -0.13,0.02 -0.19,0.05 -0.06,0.03 -0.11,0.08 -0.14,0.13 -0.03,0.06 -0.05,0.12 -0.05,0.19 0,0.07 0.01,0.13 0.05,0.19 0.03,0.05 0.07,0.09 0.13,0.13 0.05,0.03 0.12,0.04 0.2,0.04 0.04,0 0.08,0 0.12,-0.02 0.04,-0.01 0.08,-0.03 0.12,-0.05l-0.07 -0.12c-0.06,0.04 -0.11,0.06 -0.17,0.06zm-0.01 -0.47c0.04,0 0.08,0.01 0.11,0.03 0.03,0.02 0.06,0.05 0.07,0.09l-0.4 0.15c0,-0.01 0,-0.02 0,-0.04 0,-0.07 0.02,-0.12 0.06,-0.17 0.04,-0.04 0.1,-0.06 0.16,-0.06zm1.44 -0.1l-0.01 0.11c-0.03,-0.04 -0.06,-0.07 -0.1,-0.1 -0.05,-0.02 -0.1,-0.04 -0.16,-0.04 -0.06,0 -0.12,0.02 -0.17,0.05 -0.06,0.03 -0.1,0.07 -0.13,0.13 -0.03,0.05 -0.05,0.12 -0.05,0.19 0,0.08 0.02,0.14 0.05,0.2 0.03,0.05 0.07,0.09 0.12,0.12 0.05,0.03 0.11,0.04 0.18,0.04 0.05,0 0.11,-0.01 0.15,-0.04 0.05,-0.02 0.09,-0.05 0.11,-0.09l0 0.12 0.15 0 0 -0.69 -0.14 0zm-0.23 0.58c-0.04,0 -0.08,-0.02 -0.12,-0.04 -0.03,-0.02 -0.06,-0.05 -0.08,-0.08 -0.02,-0.04 -0.03,-0.08 -0.03,-0.12 0,-0.05 0.01,-0.09 0.03,-0.13 0.02,-0.03 0.05,-0.06 0.08,-0.08 0.04,-0.02 0.07,-0.03 0.11,-0.03 0.06,0 0.11,0.02 0.15,0.05 0.04,0.03 0.07,0.07 0.08,0.11l0 0.14c-0.01,0.05 -0.04,0.1 -0.08,0.13 -0.04,0.03 -0.09,0.05 -0.14,0.05zm1.53 -1.18l0 0.69c-0.02,-0.03 -0.06,-0.06 -0.11,-0.09 -0.05,-0.02 -0.1,-0.03 -0.15,-0.03 -0.07,0 -0.13,0.02 -0.18,0.05 -0.06,0.02 -0.1,0.07 -0.13,0.12 -0.03,0.05 -0.05,0.12 -0.05,0.19 0,0.08 0.02,0.14 0.05,0.2 0.03,0.05 0.07,0.1 0.12,0.13 0.05,0.03 0.11,0.04 0.17,0.04 0.06,0 0.11,-0.01 0.16,-0.03 0.05,-0.02 0.09,-0.05 0.12,-0.09l0 0.11 0.16 0 0 -1.29 -0.16 0zm-0.23 1.17c-0.04,0 -0.08,-0.01 -0.11,-0.03 -0.04,-0.02 -0.07,-0.05 -0.09,-0.09 -0.02,-0.03 -0.03,-0.07 -0.03,-0.12 0,-0.04 0.01,-0.08 0.03,-0.12 0.02,-0.04 0.05,-0.06 0.09,-0.08 0.03,-0.02 0.07,-0.03 0.11,-0.03 0.06,0 0.11,0.01 0.15,0.04 0.04,0.03 0.07,0.07 0.08,0.12l0 0.13c-0.01,0.06 -0.04,0.1 -0.08,0.13 -0.04,0.03 -0.09,0.05 -0.15,0.05zm1.13 -0.03l-0.14 0c-0.01,0.02 -0.04,0.1 -0.09,0.23l-0.04 0.12 0.12 0 0.05 -0.12 0.1 -0.23zm1.93 0.08l-0.08 -0.09c-0.04,0.03 -0.09,0.05 -0.14,0.05 -0.05,0 -0.09,-0.01 -0.12,-0.04 -0.04,-0.02 -0.07,-0.05 -0.09,-0.08 -0.02,-0.04 -0.03,-0.07 -0.03,-0.12 0,-0.04 0.01,-0.08 0.03,-0.12 0.02,-0.03 0.05,-0.06 0.08,-0.08 0.03,-0.02 0.07,-0.03 0.11,-0.03 0.04,0 0.07,0.01 0.09,0.02 0.03,0.01 0.06,0.02 0.08,0.04l0.08 -0.1c-0.07,-0.06 -0.16,-0.09 -0.26,-0.09 -0.07,0 -0.13,0.02 -0.18,0.05 -0.05,0.03 -0.1,0.07 -0.13,0.12 -0.04,0.06 -0.05,0.12 -0.05,0.19 0,0.07 0.01,0.14 0.05,0.19 0.03,0.06 0.07,0.1 0.13,0.13 0.05,0.03 0.12,0.04 0.19,0.04 0.05,0 0.09,0 0.13,-0.02 0.05,-0.01 0.08,-0.03 0.11,-0.06zm1.09 -0.62l-0.01 0.11c-0.02,-0.04 -0.06,-0.07 -0.1,-0.1 -0.04,-0.02 -0.1,-0.04 -0.15,-0.04 -0.07,0 -0.13,0.02 -0.18,0.05 -0.06,0.03 -0.1,0.07 -0.13,0.13 -0.03,0.05 -0.05,0.12 -0.05,0.19 0,0.08 0.02,0.14 0.05,0.2 0.03,0.05 0.07,0.09 0.12,0.12 0.06,0.03 0.12,0.04 0.18,0.04 0.06,0 0.11,-0.01 0.16,-0.04 0.04,-0.02 0.08,-0.05 0.1,-0.09l0 0.12 0.16 0 0 -0.69 -0.15 0zm-0.23 0.58c-0.04,0 -0.08,-0.02 -0.11,-0.04 -0.04,-0.02 -0.07,-0.05 -0.09,-0.08 -0.02,-0.04 -0.03,-0.08 -0.03,-0.12 0,-0.05 0.01,-0.09 0.03,-0.13 0.02,-0.03 0.05,-0.06 0.08,-0.08 0.04,-0.02 0.08,-0.03 0.12,-0.03 0.05,0 0.1,0.02 0.14,0.05 0.04,0.03 0.07,0.07 0.08,0.11l0 0.14c-0.01,0.05 -0.03,0.1 -0.07,0.13 -0.04,0.03 -0.09,0.05 -0.15,0.05zm1.43 0.11l0.18 0 -0.28 -0.42 0.25 -0.2 -0.1 -0.09 -0.35 0.29 0 -0.87 -0.15 0 0 1.29 0.15 0 0 -0.26 0.09 -0.07 0.21 0.33zm1 -0.12c-0.04,0 -0.08,-0.01 -0.12,-0.03 -0.03,-0.02 -0.06,-0.04 -0.08,-0.08l0.55 -0.19c-0.03,-0.09 -0.07,-0.17 -0.13,-0.22 -0.06,-0.05 -0.13,-0.08 -0.22,-0.08 -0.07,0 -0.14,0.02 -0.19,0.05 -0.06,0.03 -0.11,0.08 -0.14,0.13 -0.04,0.06 -0.05,0.12 -0.05,0.19 0,0.07 0.01,0.13 0.04,0.19 0.04,0.05 0.08,0.09 0.14,0.13 0.05,0.03 0.12,0.04 0.2,0.04 0.03,0 0.08,0 0.12,-0.02 0.04,-0.01 0.08,-0.03 0.12,-0.05l-0.07 -0.12c-0.06,0.04 -0.11,0.06 -0.17,0.06zm-0.01 -0.47c0.04,0 0.08,0.01 0.11,0.03 0.03,0.02 0.05,0.05 0.07,0.09l-0.4 0.15c0,-0.01 0,-0.02 0,-0.04 0,-0.07 0.02,-0.12 0.06,-0.17 0.04,-0.04 0.09,-0.06 0.16,-0.06zm1.07 0.6c0.09,0 0.15,-0.02 0.2,-0.06 0.05,-0.05 0.07,-0.1 0.07,-0.17 0,-0.05 -0.02,-0.09 -0.05,-0.12 -0.03,-0.03 -0.07,-0.05 -0.13,-0.07 -0.04,-0.02 -0.08,-0.03 -0.09,-0.03 -0.02,-0.01 -0.03,-0.02 -0.05,-0.03 -0.01,-0.02 -0.02,-0.03 -0.02,-0.05 0,-0.03 0.02,-0.05 0.04,-0.06 0.02,-0.02 0.04,-0.03 0.08,-0.03 0.02,0.01 0.05,0.01 0.07,0.02 0.03,0.01 0.05,0.03 0.07,0.05l0.06 -0.1c-0.03,-0.02 -0.06,-0.04 -0.1,-0.06 -0.04,-0.01 -0.08,-0.01 -0.13,-0.01 -0.08,0 -0.14,0.02 -0.18,0.06 -0.04,0.04 -0.06,0.09 -0.06,0.14 0,0.1 0.05,0.17 0.17,0.21 0.04,0.01 0.08,0.02 0.09,0.02 0.02,0.01 0.04,0.02 0.05,0.04 0.02,0.01 0.02,0.03 0.02,0.05 0,0.03 -0.01,0.05 -0.03,0.07 -0.02,0.01 -0.05,0.02 -0.09,0.02 -0.03,0 -0.06,-0.01 -0.09,-0.02 -0.03,-0.02 -0.06,-0.04 -0.09,-0.06l-0.06 0.09c0.02,0.03 0.06,0.06 0.11,0.07 0.04,0.02 0.09,0.03 0.14,0.03zm0.96 -0.16l-0.14 0c-0.01,0.02 -0.04,0.1 -0.09,0.23l-0.04 0.12 0.12 0 0.05 -0.12 0.1 -0.23zm1.57 0.16c0.09,0 0.15,-0.02 0.2,-0.06 0.04,-0.05 0.07,-0.1 0.07,-0.17 0,-0.05 -0.02,-0.09 -0.05,-0.12 -0.03,-0.03 -0.08,-0.05 -0.13,-0.07 -0.05,-0.02 -0.08,-0.03 -0.09,-0.03 -0.02,-0.01 -0.03,-0.02 -0.05,-0.03 -0.01,-0.02 -0.02,-0.03 -0.02,-0.05 0,-0.03 0.01,-0.05 0.03,-0.06 0.03,-0.02 0.05,-0.03 0.08,-0.03 0.03,0.01 0.05,0.01 0.08,0.02 0.03,0.01 0.05,0.03 0.07,0.05l0.06 -0.1c-0.03,-0.02 -0.07,-0.04 -0.11,-0.06 -0.03,-0.01 -0.08,-0.01 -0.12,-0.01 -0.08,0 -0.14,0.02 -0.18,0.06 -0.04,0.04 -0.07,0.09 -0.07,0.14 0,0.1 0.06,0.17 0.18,0.21 0.04,0.01 0.07,0.02 0.09,0.02 0.02,0.01 0.04,0.02 0.05,0.04 0.02,0.01 0.02,0.03 0.02,0.05 0,0.03 -0.01,0.05 -0.03,0.07 -0.03,0.01 -0.06,0.02 -0.09,0.02 -0.03,0 -0.06,-0.01 -0.09,-0.02 -0.03,-0.02 -0.06,-0.04 -0.09,-0.06l-0.07 0.09c0.03,0.03 0.07,0.06 0.12,0.07 0.04,0.02 0.09,0.03 0.14,0.03zm1.61 -0.7l-0.17 0.43 -0.19 -0.43 -0.13 0 0.05 0.12 -0.12 0.3 -0.19 -0.42 -0.15 0 0.32 0.73 0.2 -0.47 0.22 0.47 0.32 -0.73 -0.16 0zm0.96 0.57c-0.05,0 -0.08,-0.01 -0.12,-0.03 -0.03,-0.02 -0.06,-0.04 -0.08,-0.08l0.54 -0.19c-0.02,-0.09 -0.06,-0.17 -0.12,-0.22 -0.06,-0.05 -0.13,-0.08 -0.22,-0.08 -0.07,0 -0.14,0.02 -0.19,0.05 -0.06,0.03 -0.11,0.08 -0.14,0.13 -0.04,0.06 -0.05,0.12 -0.05,0.19 0,0.07 0.01,0.13 0.04,0.19 0.03,0.05 0.08,0.09 0.14,0.13 0.05,0.03 0.12,0.04 0.19,0.04 0.04,0 0.08,0 0.13,-0.02 0.04,-0.01 0.08,-0.03 0.12,-0.05l-0.08 -0.12c-0.05,0.04 -0.1,0.06 -0.16,0.06zm-0.01 -0.47c0.04,0 0.08,0.01 0.11,0.03 0.03,0.02 0.05,0.05 0.07,0.09l-0.4 0.15c0,-0.01 0,-0.02 0,-0.04 0,-0.07 0.02,-0.12 0.06,-0.17 0.04,-0.04 0.09,-0.06 0.16,-0.06zm1.2 0.47c-0.04,0 -0.08,-0.01 -0.12,-0.03 -0.03,-0.02 -0.06,-0.04 -0.08,-0.08l0.55 -0.19c-0.02,-0.09 -0.07,-0.17 -0.13,-0.22 -0.06,-0.05 -0.13,-0.08 -0.22,-0.08 -0.07,0 -0.14,0.02 -0.19,0.05 -0.06,0.03 -0.11,0.08 -0.14,0.13 -0.04,0.06 -0.05,0.12 -0.05,0.19 0,0.07 0.01,0.13 0.04,0.19 0.04,0.05 0.08,0.09 0.14,0.13 0.05,0.03 0.12,0.04 0.2,0.04 0.04,0 0.08,0 0.12,-0.02 0.04,-0.01 0.08,-0.03 0.12,-0.05l-0.07 -0.12c-0.06,0.04 -0.11,0.06 -0.17,0.06zm-0.01 -0.47c0.04,0 0.08,0.01 0.11,0.03 0.03,0.02 0.05,0.05 0.07,0.09l-0.4 0.15c0,-0.01 0,-0.02 0,-0.04 0,-0.07 0.02,-0.12 0.06,-0.17 0.04,-0.04 0.09,-0.06 0.16,-0.06zm0.95 -0.4l0 0.3 -0.13 0 0 0.13 0.13 0 0 0.56 0.15 0 0 -0.56 0.19 0 0 -0.13 -0.19 0 0 -0.3 -0.15 0zm1.05 1c0.09,0 0.15,-0.02 0.2,-0.06 0.04,-0.05 0.07,-0.1 0.07,-0.17 0,-0.05 -0.02,-0.09 -0.05,-0.12 -0.03,-0.03 -0.08,-0.05 -0.13,-0.07 -0.05,-0.02 -0.08,-0.03 -0.09,-0.03 -0.02,-0.01 -0.03,-0.02 -0.05,-0.03 -0.01,-0.02 -0.02,-0.03 -0.02,-0.05 0,-0.03 0.01,-0.05 0.03,-0.06 0.03,-0.02 0.05,-0.03 0.08,-0.03 0.03,0.01 0.05,0.01 0.08,0.02 0.03,0.01 0.05,0.03 0.07,0.05l0.06 -0.1c-0.03,-0.02 -0.07,-0.04 -0.11,-0.06 -0.03,-0.01 -0.08,-0.01 -0.12,-0.01 -0.08,0 -0.14,0.02 -0.18,0.06 -0.04,0.04 -0.07,0.09 -0.07,0.14 0,0.1 0.06,0.17 0.18,0.21 0.04,0.01 0.07,0.02 0.09,0.02 0.02,0.01 0.04,0.02 0.05,0.04 0.01,0.01 0.02,0.03 0.02,0.05 0,0.03 -0.01,0.05 -0.03,0.07 -0.03,0.01 -0.06,0.02 -0.09,0.02 -0.03,0 -0.06,-0.01 -0.09,-0.02 -0.03,-0.02 -0.06,-0.04 -0.09,-0.06l-0.07 0.09c0.03,0.03 0.07,0.06 0.12,0.07 0.04,0.02 0.09,0.03 0.14,0.03z"/>
 </g>
</svg>
