<?xml version="1.0" encoding="UTF-8"?>
<!DOCTYPE svg PUBLIC "-//W3C//DTD SVG 1.1//EN" "http://www.w3.org/Graphics/SVG/1.1/DTD/svg11.dtd">
<!-- Creator: CorelDRAW 2019 -->
<svg xmlns="http://www.w3.org/2000/svg" xml:space="preserve" width="68px" height="61px" version="1.1" style="shape-rendering:geometricPrecision; text-rendering:geometricPrecision; image-rendering:optimizeQuality; fill-rule:evenodd; clip-rule:evenodd"
viewBox="0 0 3.28 2.96"
 xmlns:xlink="http://www.w3.org/1999/xlink">
 <defs>
  <style type="text/css">
   <![CDATA[
    .fil0 {fill:#F9DFC4;fill-rule:nonzero}
    .fil1 {fill:#D6AC9D;fill-rule:nonzero}
   ]]>
  </style>
 </defs>
 <g id="Layer_x0020_1">
  <metadata id="CorelCorpID_0Corel-Layer"/>
  <path class="fil0" d="M0.43 2.9c-0.13,0 -0.26,-0.03 -0.38,-0.07 0,-0.01 -0.01,-0.01 -0.02,-0.01 0.07,-0.05 0.17,-0.14 0.18,-0.2 -0.04,0.02 -0.05,0.08 -0.18,0.18 -0.01,0 -0.02,0.01 -0.02,0.01 0,0 -0.01,0 -0.01,0l0 -0.05c0.06,-0.03 0.14,-0.1 0.18,-0.19 0,-0.02 0.01,-0.02 0,-0.02 0,0 -0.01,0 -0.01,0.02 -0.05,0.1 -0.12,0.15 -0.17,0.18l0 -0.06c0.03,-0.04 0.05,-0.08 0.08,-0.11 -0.03,0.01 -0.06,0.03 -0.08,0.05l0 -0.21c0.01,0 0.02,0.01 0.03,0.01 0.03,0 0.07,-0.02 0.08,-0.05 0.02,-0.04 0,-0.08 -0.04,-0.1 0.05,0.08 -0.01,0.11 -0.04,0.11 -0.01,0 -0.01,0 -0.02,-0.01 -0.01,-0.02 0,-0.07 0,-0.1 -0.01,0 -0.01,0.01 -0.01,0.01l0 -0.32c0.14,-0.2 0.05,-0.16 0.45,-0.44 0.08,-0.05 0.14,-0.11 0.22,-0.15 0.02,0 0.05,0 0.07,0 -0.01,-0.01 -0.01,-0.01 -0.02,-0.01 0.02,0 0.04,-0.01 0.06,-0.01 0.01,0 0.01,0 0.01,0 -0.01,0.01 -0.02,0.02 -0.03,0.03 -0.01,0.01 -0.02,0.02 -0.03,0.02 0,0 -0.01,-0.01 -0.02,-0.02 0,0 0,0 0,0 0.01,0 0.02,0 0.04,0l0 0c-0.01,0 0,0.01 0,0.01 0,0 0,0 0,-0.01 0.01,-0.01 0,-0.01 -0.01,-0.01 -0.01,0 -0.03,0 -0.04,0.01 -0.09,0 -0.4,0.29 -0.42,0.37 0.02,-0.01 0.04,-0.05 0.1,-0.12 0.04,-0.04 0.21,-0.2 0.29,-0.24 0,0.01 0,0.01 0,0.01 -0.07,0.06 -0.26,0.37 -0.3,0.49 0.04,-0.04 0.02,-0.05 0.16,-0.29 0.05,-0.07 0.09,-0.17 0.17,-0.21 0,0 0,0 0,0 0,0 0.01,0 0.01,0 0.01,0.01 0.01,0.02 0.01,0.02 -0.04,0.03 -0.07,0.07 -0.1,0.12 -0.01,0.01 -0.02,0.02 -0.02,0.03 -0.03,0.05 -0.05,0.09 -0.08,0.15 -0.07,0.15 -0.14,0.29 -0.19,0.45 0.09,-0.13 0.18,-0.43 0.34,-0.62 0.03,-0.03 0.06,-0.07 0.09,-0.1 0.02,-0.02 0.05,-0.04 0.08,-0.06 0.09,-0.04 0.16,-0.07 0.22,-0.08 -0.06,0.02 -0.13,0.07 -0.19,0.13 -0.08,0.02 -0.14,0.04 -0.14,0.06 0,0 0,0 0,0 0.01,0 0.02,-0.01 0.01,-0.01 0.03,-0.01 0.07,-0.03 0.12,-0.04 -0.04,0.04 -0.08,0.08 -0.1,0.13 -0.02,0.01 -0.03,0.01 -0.01,0.01 0,0 0,0 0,0 0,0.02 -0.01,0.04 -0.01,0.06 0.01,-0.02 0.02,-0.04 0.03,-0.06 0.01,0 0.02,0 0.04,-0.01 -0.03,0.05 -0.05,0.09 -0.04,0.14 0.01,-0.02 0.01,-0.07 0.06,-0.14 0.05,-0.01 0.09,-0.01 0.13,-0.01 0.03,0 0.06,0 0.08,0.01 -0.01,0 -0.01,0 -0.01,0 -0.01,0.03 -0.03,0.07 -0.05,0.1 -0.05,-0.02 -0.11,-0.03 -0.14,-0.03 -0.01,0 -0.02,0 -0.02,0.01 0,0.01 0,0.01 0.01,0.01 0,0 0,0 0,0 0.01,0 0.01,0 0.01,0 0.02,0 0.05,0 0.1,0.01 0.01,0.01 0.02,0.01 0.03,0.02 -0.03,0.07 -0.06,0.13 -0.06,0.16 0.02,-0.02 0.03,-0.06 0.04,-0.09 0.01,-0.02 0.03,-0.05 0.04,-0.07 0.03,0.01 0.05,0.03 0.07,0.04 0,0.02 -0.01,0.03 -0.01,0.05 -0.04,0.13 -0.07,0.17 -0.07,0.21 0.03,-0.03 0.08,-0.19 0.1,-0.25 0.01,0 0.02,0.01 0.03,0.01 -0.01,-0.01 -0.01,-0.02 -0.03,-0.03 0.01,-0.01 0.01,-0.01 0.01,-0.01 0,0 0,0 0,0 0.02,-0.12 0.05,-0.2 0.09,-0.26 0.01,0.01 0.01,0.01 0.01,0.01 0.01,0 0,-0.01 -0.01,-0.01 0.04,-0.06 0.09,-0.1 0.15,-0.15 0.03,-0.03 0.04,-0.05 0.05,-0.07 0,0 0,0 0.01,0 -0.04,0.07 -0.14,0.14 -0.15,0.22 -0.06,0.09 -0.07,0.18 -0.12,0.31 -0.13,0.4 -0.07,0.24 -0.12,0.42 -0.03,0.11 -0.09,0.21 -0.11,0.32 0.16,-0.25 0.18,-0.61 0.35,-1 0,-0.01 0.01,-0.01 0.01,-0.02 0.01,-0.01 0.01,-0.02 0.02,-0.03 0.06,-0.09 0.13,-0.12 0.16,-0.17 0.03,-0.15 0.1,-0.27 0.23,-0.35 0.02,0 0.03,-0.01 0.04,-0.02 0.01,-0.01 0.02,-0.01 0.03,-0.01 -0.01,0 -0.02,0.01 -0.02,0.03 0,0 0,0.01 0,0.01 -0.01,0 -0.01,0.01 -0.02,0.02 -0.03,0.04 -0.03,0.1 -0.03,0.16 -0.01,0 -0.01,0 -0.01,0.01 -0.03,0.02 -0.08,0.08 -0.1,0.12 0,-0.06 0,-0.16 0.06,-0.24 0.01,-0.01 0.05,-0.07 0.07,-0.07 0,0 0,0 0,0 0.01,0 0.01,0.01 0.01,0.01 0,0 0,0 0,0 0.01,-0.01 0,-0.01 0,-0.02 -0.01,0 -0.01,0 -0.01,0 -0.05,0 -0.18,0.23 -0.14,0.36 0,0 0,-0.01 0.01,-0.02 0.01,-0.02 0.05,-0.07 0.11,-0.14 0,0.07 0.01,0.13 0.03,0.17 -0.06,0.05 -0.1,0.09 -0.11,0.11 0.01,-0.01 0.05,-0.05 0.11,-0.1 0.01,0.03 0.01,0.04 0.02,0.05 0,-0.01 0,-0.03 -0.01,-0.06 0.01,-0.01 0.02,-0.02 0.03,-0.03 0.01,0.04 0.02,0.09 0.04,0.12 0,0.01 0,0.01 0,0.01 -0.04,0.04 -0.08,0.08 -0.09,0.1 0.03,-0.01 0.01,-0.01 0.1,-0.09 0,0.01 0,0.01 0,0.01 0,0 0,-0.01 0,-0.01 0.01,-0.01 0.03,-0.02 0.05,-0.04 0,0 0,0 0,0 0.01,0.01 0.01,0.03 0.01,0.04 0.01,0.01 0.01,0.02 0.01,0.02 0.01,0 0,-0.03 -0.01,-0.07 0.05,-0.04 0.07,-0.06 0.07,-0.06 -0.01,0 -0.04,0.02 -0.07,0.05 -0.01,-0.04 -0.02,-0.08 -0.03,-0.13 0.01,-0.01 0.03,-0.02 0.05,-0.03 0.01,0.03 0.01,0.05 0.02,0.07 0,-0.02 0,-0.05 -0.01,-0.08 0.02,-0.01 0.05,-0.03 0.07,-0.04 0,0 0,0 0,0 0,0 0,0 0,0 -0.02,0.01 -0.05,0.02 -0.07,0.03 -0.01,-0.06 -0.02,-0.13 -0.04,-0.2 0.02,-0.01 0.05,-0.03 0.07,-0.04 0,0 0,-0.01 -0.01,-0.01 0,0 -0.03,0 -0.06,0.03 -0.01,-0.04 -0.02,-0.08 -0.03,-0.11 0.05,-0.09 0.03,-0.25 0.03,-0.32 0,-0.05 0,-0.09 0.01,-0.12 0,-0.02 0.01,-0.03 0.02,-0.04 0.01,0.11 0.11,0.27 0.16,0.51l0 0 0 0c0,0.01 0.03,0.2 0.2,0.39 0.04,0.05 0.06,0.07 0.06,0.07 0.01,0 -0.19,-0.28 -0.23,-0.46 0,0 0,0 0,0 0,0 0,-0.03 -0.02,-0.08 0.01,-0.02 0.02,-0.05 0.03,-0.08 0.01,0.03 0.02,0.06 0.04,0.09 0.01,0.02 0.01,0.02 0.02,0.02 0,0 -0.02,-0.05 -0.06,-0.12 0,0 0,0 0,0 0.01,-0.01 0.01,-0.02 0.02,-0.03 0.03,0.06 0.06,0.12 0.1,0.19 -0.01,0.02 -0.02,0.04 -0.02,0.05 0.01,-0.01 0.02,-0.03 0.03,-0.04 0.01,0.02 0.02,0.04 0.03,0.06 0,0.02 -0.01,0.04 -0.01,0.06 0.01,-0.02 0.02,-0.03 0.02,-0.04 0.01,0 0.01,0 0.01,0 0,0 0,0 0,-0.01 0,-0.02 0.01,-0.03 0.02,-0.05 0.01,0.02 0.02,0.04 0.03,0.05 0.02,0.02 0.02,0.02 0.03,0.02 0.01,0 -0.07,-0.12 -0.08,-0.14 0,0 -0.01,-0.01 -0.01,-0.01 0.01,-0.02 0.03,-0.03 0.05,-0.05 0.01,0 0.01,0 0.01,-0.01 0.06,0.11 0.12,0.21 0.2,0.29 0.04,0.05 0.07,0.07 0.07,0.07 0.01,0 -0.01,-0.03 -0.08,-0.11 -0.14,-0.17 -0.2,-0.36 -0.37,-0.6 -0.02,-0.04 -0.05,-0.07 -0.08,-0.11 0.04,0.04 0.1,0.09 0.19,0.18 0.01,0.01 0.02,0.01 0.02,0.01 0.02,0 0.01,-0.04 0,-0.05 -0.25,-0.25 -0.22,-0.23 -0.22,-0.28 -0.01,-0.03 -0.01,-0.06 -0.01,-0.08 0,-0.02 0,-0.04 -0.01,-0.06 0,-0.01 0,-0.01 0,-0.02l0.07 0c0,0.02 0.01,0.04 0.01,0.07 0.01,0.01 0.02,0.02 0.02,0.02 0,0 0,-0.02 0,-0.03 -0.01,-0.02 -0.01,-0.04 -0.02,-0.06l0.11 0c0.01,0.04 0.03,0.08 0.06,0.11 0,0.01 0,0.01 0.01,0.01 0,0 -0.03,-0.04 -0.04,-0.07 -0.01,-0.02 -0.01,-0.04 -0.02,-0.05l0.12 0c0.05,0.02 0.1,0.03 0.11,0.03 0,0 -0.02,0 -0.07,-0.03l0.02 0c0,0 0,0 0,0 0,0 0,0 0,0l0.86 0c0,0.03 -0.01,0.06 -0.03,0.1 -0.01,0.02 -0.01,0.04 -0.02,0.05 0,0 -0.01,0 -0.01,0 -0.02,0.05 -0.03,0.06 -0.03,0.07 0,0.01 0,0.02 0,0.02 0,0 0,0 -0.01,0 -0.11,-0.11 -0.23,-0.14 -0.28,-0.14 -0.02,0 -0.03,0 -0.02,0.01 0,0 0,0 0,0 0.01,0 0.01,0 0.01,0 0.11,0 0.2,0.06 0.28,0.13 0.01,0.01 0.01,0.01 0.02,0.02 -0.01,0.02 -0.01,0.05 -0.01,0.09 0,0.24 0.02,-0.01 0,0.31 0,0.04 0,0.09 0.01,0.15 -0.02,0.06 -0.02,0.28 -0.05,0.39 -0.01,0.01 -0.01,0.01 -0.02,0.02 0,0 0,0 0,0 0,0 -0.08,0.14 -0.09,0.16 0,0 0.01,-0.01 0.01,-0.01 -0.02,0.03 -0.04,0.05 -0.06,0.08 0,0 0,0 0,0 0,0.01 -0.01,0.02 -0.02,0.03 0,0 0,0 0,0 0,-0.09 -0.01,-0.16 -0.07,-0.18 0,0.02 0,0.03 0.01,0.05 -0.03,-0.05 -0.07,-0.1 -0.13,-0.13 0.06,0.08 0.12,0.16 0.15,0.22 0,0.03 0,0.05 -0.01,0.07 0,0.01 0,0.02 0,0.03 -0.02,0.05 -0.04,0.09 -0.05,0.13 -0.01,0.03 -0.03,0.07 -0.04,0.12 -0.02,0.06 -0.02,0.08 -0.06,0.14 -0.01,0.02 -0.02,0.03 -0.03,0.04 -0.02,0.03 -0.06,0.06 -0.1,0.09 -0.06,0.04 -0.25,0.13 -0.39,0.23 0,0 0,0 0,0 -0.09,0.04 -0.15,0.09 -0.19,0.14 0.08,-0.13 -0.02,-0.25 -0.02,-0.43 0,-0.04 -0.01,-0.09 -0.02,-0.13 -0.05,0.31 0.09,0.38 0,0.61 0,0 0,0.01 0,0.01 0,0 0,0 0,0 0,-0.01 0.01,-0.01 0.01,-0.01 -0.05,0.06 -0.09,0.12 -0.19,0.13 -0.13,0.03 -0.22,0.04 -0.28,0.06 -0.01,0 -0.02,0 -0.03,0 0,0 0,0 -0.01,0.01 -0.14,0.03 -0.1,0.04 -0.16,0.05 -0.11,0 -0.21,-0.07 -0.31,-0.08 0.06,0.04 0.21,0.11 0.3,0.11 0.01,0 0.02,0 0.03,0 0.01,0 0.02,0 0.03,-0.01 -0.03,0.01 -0.05,0.02 -0.08,0.02 -0.02,0 -0.04,0 -0.06,-0.01 -0.08,-0.03 -0.17,-0.06 -0.26,-0.09 0.01,-0.01 0.02,-0.02 0.02,-0.04 0.03,-0.03 0.04,-0.06 0.05,-0.08 0.01,0.01 0.02,0.02 0.03,0.02 0,0 0,0 0,0 0,0.01 0,0.01 0,0.02 0,0 0.01,-0.01 0.01,-0.02 0,0 0.01,0 0.01,0 0.01,-0.02 0.01,-0.03 0,-0.04 0.02,-0.06 0.05,-0.15 0.06,-0.18 0,0 -0.01,-0.01 -0.01,-0.01 0,0 -0.01,0.01 0,0.01 -0.01,0.05 -0.04,0.12 -0.05,0.17 -0.01,0 -0.01,0 -0.02,0 0,0 -0.01,0 -0.01,0 0.03,-0.08 0.02,-0.13 0,-0.14 0.02,-0.09 0.02,-0.16 0.02,-0.16 -0.01,0 -0.01,0.01 -0.01,0.02 0,0 0,0.01 -0.01,0.01 0,0.04 -0.01,0.08 -0.01,0.12 0,0 0,0 -0.01,0 0,0 -0.01,0.01 -0.01,0.01 -0.02,0.02 -0.03,0.25 -0.2,0.33 -0.13,0.09 -0.09,0.12 -0.26,0.18 -0.01,0 -0.02,0 -0.02,0 -0.04,0 -0.08,0.01 -0.11,0.01zm0.05 -0.34c-0.03,0.04 -0.04,0.1 -0.02,0.15 0,0.02 0.02,0.03 0.04,0.03 0.03,0 0.05,-0.01 0.06,-0.03 0.01,-0.03 0.01,-0.1 -0.02,-0.1 0.02,0.01 0,0.07 -0.02,0.09 0,0.01 -0.01,0.01 -0.02,0.01 0,0 -0.01,0 -0.01,0 0,-0.01 0,-0.01 0,-0.01 0,0 0,0 0,0 -0.01,0 -0.02,-0.09 -0.01,-0.14zm-0.19 0.13l0 0c0,-0.03 -0.01,-0.06 -0.02,-0.06 0,0 0,0.01 0,0.03 0.01,0.01 0.02,0.02 0.02,0.03zm0.35 -0.17c-0.04,0 -0.08,0.01 -0.07,0.06 0.03,-0.05 0,-0.02 0.07,-0.04 0.01,-0.01 0.02,-0.01 0.03,-0.02 -0.01,0 -0.02,0 -0.03,0zm0.51 0c0.01,0.03 0.03,0.06 0.07,0.06 0.01,0 0.01,0 0.02,-0.01 -0.04,-0.01 -0.05,-0.02 -0.06,-0.06 -0.01,-0.04 0.01,-0.05 0.04,-0.06 0,0 0,0 0,0 -0.03,0 -0.05,0.01 -0.06,0.02 0,-0.02 0,-0.05 -0.02,-0.05 0,0 0,0 0,0 -0.01,0.01 0,0.02 0,0.02 0,0 0,0 0,0 0.02,0.04 -0.01,0.08 -0.01,0.13 0.01,-0.01 0.01,-0.03 0.02,-0.05zm0.47 -0.06c-0.01,0 -0.02,0 -0.03,0.01 -0.02,0.02 0,0.06 0.03,0.06 0,0 0.01,-0.01 0.02,-0.01 0.02,-0.03 0,-0.06 -0.02,-0.06zm-0.17 0.01c0,0.02 0,0.04 0.01,0.05 0.01,-0.02 0.01,-0.04 0.01,-0.06 0,0 0,0 0,0 0.02,-0.02 0,-0.06 -0.03,-0.06 0,0 -0.01,0 -0.02,0.01 -0.03,0.03 0,0.06 0.02,0.06 0.01,0 0.01,0 0.01,0zm-0.82 -0.19c0,0 0,0 0,0 -0.03,0 -0.09,0.07 -0.08,0.12 0.01,0.03 0.03,0.04 0.05,0.04 0.04,0 0.09,-0.05 0.06,-0.1 -0.01,0 -0.01,0.05 -0.05,0.05 0,0 -0.01,0 -0.01,0 -0.01,-0.03 0.01,-0.1 0.04,-0.11 0,0 0,0 0,0 0,0 0,0 0,0 0,0 0,0 -0.01,0zm1.15 0.1c-0.01,0 -0.01,0.01 -0.01,0.01 0,0.02 0.02,0.03 0.04,0.03 0.01,0 0.02,0 0.03,-0.01 0.03,-0.03 0,-0.09 -0.04,-0.09 -0.01,0 -0.01,0 -0.01,0 0.04,0.03 0.02,0.06 0.01,0.06 0,0 0,-0.01 0,-0.02 0,0 0,0 0,0 0,0 0,0 0,0 0,-0.01 0,-0.01 0,-0.01 0,0 0,0 0,0 0,-0.02 -0.02,-0.03 -0.03,-0.03 -0.01,0 -0.02,0 -0.02,0.01 -0.03,0.02 -0.01,0.05 0.02,0.05 0,0 0,0 0.01,0zm0.23 -0.48c0.09,0.49 0.03,0.46 0.04,0.48 0,0 0,0 0,0 0.04,0 0.03,-0.14 0.01,-0.28 -0.02,-0.13 -0.05,-0.27 -0.06,-0.27 0,0 0,0 0,0.02 0,0.03 0,0.05 0.01,0.05 0,0 0,0 0,0zm-0.41 0.45c0,0 0,0 0.01,0 0,0 0,0 0,0 0,0 0,0 0,0 0.01,0 0.01,-0.02 0,-0.03 0,-0.01 -0.01,-0.02 -0.02,-0.02 -0.01,0 -0.02,0.01 -0.02,0.02 0.01,0 0.01,0 0.01,0 0.01,0 0.02,0.01 0.03,0.03l-0.01 0c0,0 0,0 0,0l0 0c0,0 0,0 0,0zm0.53 -0.16c0.01,0.06 0,0.1 0.01,0.13 0.01,-0.02 0.01,-0.07 0.01,-0.12 0,0 0.01,0 0.01,0 0.01,0 0.01,0 0.02,0 -0.01,0.02 0,0.04 0,0.06 0.01,-0.01 0.01,-0.04 0.01,-0.07 0,0 0,0 0.01,0 -0.01,0 -0.01,0 -0.01,0 0,-0.06 -0.01,-0.12 -0.03,-0.12 0,0 0,0 0,0 0,0 0,0.01 0,0.01 0.02,0.03 0.02,0.07 0.02,0.11 -0.02,0 -0.03,0 -0.04,-0.01 0,-0.02 0,-0.03 0,-0.05 0,0 0,-0.01 0,-0.01 0,0 0,0 0,0 -0.01,-0.05 -0.03,-0.09 -0.04,-0.09 -0.01,0 -0.01,0 -0.02,0.02 0,0 0.01,0 0.01,0 0,0 0,0 0,0 0,-0.01 0,-0.01 0.01,-0.01 0.01,0.03 0.02,0.06 0.03,0.1 -0.02,0.02 -0.01,0.04 0,0.05zm-0.54 -0.04c-0.04,0.01 -0.07,0.05 -0.07,0.1 0.01,0.01 0.02,0.01 0.03,0.01 0.04,0 0.08,-0.03 0.06,-0.06 0,0.03 -0.03,0.03 -0.05,0.03 0,0 -0.01,0 -0.01,0 0,-0.03 0.02,-0.06 0.04,-0.08zm-0.09 -0.09c-0.03,0 -0.04,0.03 -0.04,0.06 0.02,-0.02 0.03,-0.04 0.04,-0.06zm-0.29 -0.01c0,0 -0.01,0 -0.01,0 -0.03,0.02 -0.01,0.05 0.02,0.05 0,0 0.01,0 0.01,-0.01 0.02,-0.02 0.01,-0.04 -0.02,-0.04zm-0.27 -0.07c0,0 -0.01,0.01 0,0.01 0.02,0.02 0.07,0.04 0.09,0.04 0.01,0 0.01,0 -0.01,-0.02 -0.03,-0.01 -0.05,-0.01 -0.07,-0.03 0,0 0,0 -0.01,0zm1.32 0.04l0 0c-0.01,-0.03 0.01,-0.06 0.03,-0.09 0,-0.01 0.01,-0.01 0.01,-0.01 0.01,0 0.01,0.01 0.02,0.02 0,-0.03 -0.01,-0.05 -0.03,-0.05 -0.04,0 -0.09,0.06 -0.05,0.12 0.01,0 0.01,0.01 0.02,0.01zm0.22 -0.19c-0.03,0 -0.07,0.02 -0.06,0.05 0,0.02 0.02,0.03 0.03,0.03 0.02,0 0.04,-0.01 0.05,-0.02 0,0 0,0 0,0 0,0 -0.01,0 -0.01,0 0,0 0,0 -0.01,0 -0.01,0 -0.02,0 -0.03,-0.01 0.01,-0.02 0.02,-0.03 0.04,-0.03 0,0 0,0 0,0 0.03,0 0.01,0.03 0.01,0.03 0.01,0 0.01,-0.01 0.01,-0.02 0.01,-0.02 -0.01,-0.03 -0.03,-0.03zm-1.5 0.07l0 0c-0.04,-0.03 -0.1,-0.03 -0.16,-0.05 0,0 0,0 0,0 0,0 0,0.01 0,0.01l0.16 0.04zm1.79 -0.08l0 0 0 0zm0 0l0 0 0 0 0 0zm-1.11 -0.07c0,0 -0.01,0 -0.02,0.01 -0.02,0.02 0,0.05 0.02,0.05 0.01,0 0.02,0 0.02,-0.01 0.03,-0.02 0.01,-0.05 -0.02,-0.05zm0.34 -0.18c-0.02,0 -0.18,0.12 -0.2,0.18 0,0 0,0 0,0 0.01,0 0.09,-0.07 0.12,-0.1 0.07,-0.06 0.09,-0.08 0.08,-0.08zm0.2 0.04c-0.06,0 -0.08,0.05 -0.07,0.08 0.01,0.01 0.02,0.02 0.04,0.02 0.03,0 0.08,-0.04 0.09,-0.07 0.01,-0.03 -0.02,-0.08 -0.05,-0.08 -0.01,0 -0.01,0 -0.02,0 0.07,0.04 0.02,0.1 -0.03,0.1 0,-0.02 0.03,-0.04 0.06,-0.05 -0.01,0 -0.01,0 -0.02,0zm0.48 -0.34c0,0 -0.01,0.02 0,0.02 0.15,0.18 0.1,0.28 0.1,0.33 0,0 0.01,0 0.01,0 0.01,0 0.06,-0.16 -0.1,-0.34 0,-0.01 0,-0.01 -0.01,-0.01zm-0.05 0.28c-0.02,0 -0.04,0.01 -0.03,0.04 0,0.01 0.01,0.02 0.02,0.02 0.01,0 0.01,-0.01 0.02,-0.01 0.01,0 0.01,0 0,0 0,0 0,0 0,0 0,0 0,0 0,0 -0.01,0 -0.02,0 -0.02,-0.01l0 0c0,0 0,0 0,0 0,0 0,-0.01 0,-0.01 0,0 0,0 0,0 -0.01,0 0,-0.01 0.01,-0.01 0.01,0 0.02,0 0.04,0.01 -0.01,-0.02 -0.03,-0.03 -0.04,-0.03zm-0.71 -0.12c-0.01,0 -0.11,0.08 -0.15,0.13 0,0.01 0,0.01 0,0.01 0.01,0 0.08,-0.07 0.1,-0.08 0.04,-0.04 0.05,-0.06 0.05,-0.06zm0.65 -0.15c-0.06,0.02 -0.11,0.08 -0.07,0.13 0.01,0.02 0.02,0.02 0.03,0.02 0.04,0 0.07,-0.03 0.07,-0.05 -0.01,0.01 -0.03,0.02 -0.04,0.02 -0.02,0 -0.03,-0.01 -0.03,-0.03 -0.01,-0.03 0.03,-0.08 0.04,-0.09zm0.36 -0.01l0 0c-0.01,-0.03 -0.15,-0.16 -0.16,-0.16 0,0 0,0 0,0 0,0.01 0.13,0.14 0.16,0.16zm-0.03 -0.21c-0.07,0.05 -0.06,0.08 -0.03,0.08 0.03,0 0.06,-0.02 0.05,-0.06 0,0 0,0.03 -0.04,0.03 0,-0.02 0.01,-0.04 0.02,-0.05zm-0.57 -0.06c0,0 0,0 0,0.01 -0.01,0.04 -0.03,0.08 -0.03,0.12 0.02,-0.03 0.03,-0.08 0.04,-0.12 0,0 0,-0.01 -0.01,-0.01zm0.34 -0.02c-0.01,0 -0.02,0 -0.02,0.01 -0.03,0.03 -0.01,0.06 0.02,0.06 0.01,0 0.02,0 0.03,-0.01 0.03,-0.02 0,-0.06 -0.03,-0.06zm0.27 -0.21c-0.03,0 -0.08,0.04 -0.07,0.09 0.01,0.02 0.02,0.03 0.04,0.03 0.03,0 0.05,-0.01 0.05,-0.03 -0.01,0.01 -0.02,0.01 -0.03,0.01 0,0 0,0 -0.01,0 -0.04,-0.01 0,-0.07 0.02,-0.08 0.01,0.01 0.01,0.02 0.01,0.03 0,-0.01 0.01,-0.03 0,-0.04 0,-0.01 0,-0.01 -0.01,-0.01zm-0.01 -0.07l0 0c-0.01,-0.03 0,-0.08 -0.01,-0.11 -0.03,0.07 0,0.11 0.01,0.11zm-0.36 -0.1c-0.01,0 -0.02,0 -0.02,0.01 -0.03,0.02 -0.01,0.06 0.02,0.06 0.01,0 0.02,0 0.03,-0.01 0.03,-0.03 0,-0.06 -0.03,-0.06zm0.35 -0.09c0,0.02 -0.01,0.04 -0.01,0.06 0.03,-0.02 0.05,-0.06 0.03,-0.09 -0.01,0 -0.02,0 -0.02,0 -0.03,0 -0.07,0.02 -0.06,0.06 0.01,0.01 0.01,0.01 0.01,0.01 0,0 0,-0.01 0,-0.01 0.01,-0.02 0.03,-0.03 0.04,-0.03 0.01,0 0.01,0 0.01,0zm0.05 -0.23c0.06,0.05 0.12,0.06 0.14,0.08 0.01,0.01 0,0.01 0,0.01 0.04,-0.01 -0.02,-0.08 -0.14,-0.09zm-0.22 -0.19c-0.01,0 -0.01,0.01 -0.01,0.02 0.06,0.03 0.22,0.05 0.38,0.18 0,-0.07 -0.36,-0.19 -0.37,-0.19 0,-0.01 0,-0.01 0,-0.01zm0.07 0.07c-0.03,0 -0.07,0.05 -0.05,0.08 0.01,0.01 0.02,0.02 0.03,0.02 0.02,0 0.04,-0.01 0.05,-0.02 -0.02,0 -0.03,0 -0.05,-0.01 0,0 0.01,-0.06 0.05,-0.06 -0.01,-0.01 -0.02,-0.01 -0.03,-0.01zm0.3 0.02l0 0c-0.01,-0.02 -0.05,-0.04 -0.09,-0.06 0,0 0.01,0 0.01,0 0.02,-0.02 0,-0.05 -0.02,-0.05 -0.01,0 -0.01,0 -0.02,0.01 -0.01,0 -0.01,0.02 0,0.03 -0.04,-0.02 -0.07,-0.03 -0.09,-0.05 0,0 -0.01,0 -0.01,0 0,0 0,0 0,0.01 -0.02,0.02 0.07,0.03 0.15,0.08 0.03,0.01 0.05,0.03 0.07,0.03zm-1.37 2.48c0,0 -0.01,0 -0.01,0 0.03,-0.01 0.06,-0.01 0.08,-0.02 -0.03,0.01 -0.05,0.02 -0.07,0.02zm0.29 -0.2c0,0 0,-0.01 0,-0.01 0,0 0,0 0,0 0,0 0,0.01 0,0.01zm0.01 -0.01c0.01,-0.01 0.03,-0.03 0.06,-0.06 -0.01,0.02 -0.02,0.04 -0.02,0.04 -0.01,0 -0.02,0.01 -0.04,0.02zm-2.04 -0.07c0,0 0,0 0,0l0 0 0 0zm-0.01 -0.46l0 -0.17c0,0 0,0 0.01,0 0,0 0,0 0,0l0 0c0,0 0,0 0,0 0.02,-0.03 0.05,-0.06 0.09,-0.09 0.01,0.01 0.03,0.02 0.04,0.03l0 0c-0.01,-0.01 -0.02,-0.02 -0.03,-0.03 0.03,-0.03 0.07,-0.06 0.11,-0.09 0.01,0.01 0.02,0.01 0.02,0.01 0,0 0,0 0,0 0,0 0.01,0.01 0.01,0.01 -0.03,0.03 -0.06,0.07 -0.07,0.1 -0.08,0.07 -0.12,0.13 -0.17,0.21 0,0.01 -0.01,0.01 -0.01,0.02zm0 -0.18l0 -0.09c0.01,-0.01 0.02,-0.02 0.04,-0.03 0.01,0.01 0.03,0.02 0.05,0.04 -0.03,0.02 -0.06,0.05 -0.09,0.08zm1.07 -0.02c-0.02,-0.01 -0.05,-0.02 -0.08,-0.03 0.02,-0.04 0.04,-0.08 0.06,-0.11 0.02,0.01 0.03,0.02 0.05,0.02 0,0.01 -0.01,0.02 -0.01,0.04 0,0 -0.01,0.03 -0.02,0.08zm-0.97 -0.07c-0.02,-0.01 -0.04,-0.02 -0.06,-0.03 0.03,-0.03 0.07,-0.06 0.11,-0.08 0.03,0.01 0.05,0.02 0.07,0.03 -0.05,0.03 -0.09,0.05 -0.12,0.08zm-0.1 -0.02l0 -0.03c0.01,0.01 0.01,0.01 0.02,0.01 -0.01,0.01 -0.01,0.01 -0.02,0.02zm0.02 -0.02c0,-0.01 -0.01,-0.01 -0.02,-0.01 0.04,-0.03 0.08,-0.05 0.13,-0.06 -0.04,0.02 -0.07,0.04 -0.11,0.07zm1.08 -0.01c-0.01,-0.02 -0.03,-0.03 -0.05,-0.04 0.03,-0.04 0.05,-0.08 0.07,-0.12 0.01,0.01 0.03,0.01 0.04,0.02 0,0 0,0 0,0 -0.02,0.04 -0.04,0.08 -0.06,0.14zm-1.1 -0.01l0 -0.04c0.05,-0.03 0.07,-0.03 0.07,-0.04 0.02,0.01 0.04,0.01 0.05,0.02 -0.03,0.01 -0.08,0.03 -0.12,0.06zm0.77 -0.02c0.02,-0.03 0.04,-0.06 0.1,-0.12 0.03,-0.01 0.06,-0.01 0.09,-0.01 -0.05,0.04 -0.1,0.08 -0.13,0.12 -0.02,0 -0.03,0.01 -0.04,0.01 -0.01,0 -0.01,0 -0.02,0zm-0.55 -0.01c-0.01,-0.01 -0.03,-0.02 -0.06,-0.02 0.01,-0.01 0.02,-0.02 0.03,-0.02 0.01,0 0.02,0 0.02,0 0.02,-0.01 0.01,-0.01 0.01,-0.01 0.02,-0.01 0.05,-0.02 0.08,-0.03 0.01,0 0.01,-0.02 0,-0.02 0,0 0,0 0,0 -0.05,0.01 -0.09,0.03 -0.14,0.06 -0.01,0 -0.02,0 -0.03,0 -0.01,0 -0.03,-0.01 -0.05,-0.01 0,0 -0.01,-0.01 -0.01,-0.01 0,0 0,0 0,0 -0.01,0 -0.01,0 -0.01,0 -0.02,0 -0.04,-0.01 -0.06,-0.01l0 -0.07c0.04,-0.02 0.08,-0.03 0.11,-0.04 0.04,-0.01 0.08,-0.01 0.13,-0.01 0.05,0 0.11,0 0.17,0.01 0.04,0 0.07,0 0.1,0 -0.03,0.02 -0.07,0.04 -0.12,0.07 -0.02,0.02 -0.05,0.04 -0.07,0.06 -0.03,0.02 -0.06,0.03 -0.08,0.05 -0.01,0 -0.01,0 -0.02,0 0,0 0,0 0.01,0 0,0 -0.01,0 -0.01,0zm0.11 0c0.05,-0.04 0.1,-0.08 0.16,-0.11 -0.04,0.03 -0.09,0.06 -0.15,0.11 -0.01,0 -0.01,0 -0.01,0zm0.71 0c-0.02,-0.01 -0.06,-0.01 -0.09,-0.01 -0.03,0 -0.07,0 -0.1,0.01 0.03,-0.04 0.07,-0.08 0.12,-0.12 0.02,0 0.03,0 0.05,0 0.03,0 0.06,0 0.08,0 -0.01,0.04 -0.03,0.07 -0.06,0.12zm-0.76 -0.01c0,0 -0.01,0 -0.01,0 0,0 0,0 0,0 0.01,-0.01 0.02,-0.01 0.02,-0.02 0,0.01 -0.01,0.02 -0.01,0.02zm-0.28 -0.02l0 -0.03c0.02,0 0.03,0 0.05,0.01 -0.02,0 -0.03,0.01 -0.05,0.02zm2.92 -0.04c0,0 0,0 0,0 0,0 0,0 0,0 0,0 0,0 0,0zm-1.75 -0.04c-0.02,-0.01 -0.03,-0.01 -0.05,-0.01 0.06,-0.1 0.11,-0.14 0.14,-0.16 0.03,-0.01 0.06,-0.01 0.1,-0.03 -0.02,0.05 -0.12,0.08 -0.19,0.2zm-0.29 -0.01c0.03,-0.03 0.06,-0.05 0.11,-0.08 0.05,-0.04 0.09,-0.06 0.11,-0.07 0.03,0 0.06,-0.01 0.08,-0.01 -0.07,0.04 -0.14,0.09 -0.21,0.15 -0.03,0 -0.06,0 -0.09,0.01zm0.23 -0.01c-0.03,0 -0.06,0 -0.09,0 -0.01,0 -0.02,0 -0.04,0 0.04,-0.03 0.08,-0.06 0.13,-0.09 0.04,-0.03 0.07,-0.04 0.1,-0.06 0.01,0 0.02,0 0.04,0 -0.05,0.02 -0.09,0.07 -0.14,0.15zm0.67 -0.02c-0.01,-0.03 -0.02,-0.09 -0.03,-0.14 0.01,-0.01 0.03,-0.02 0.05,-0.03 0,0.04 0.02,0.08 0.03,0.13 -0.02,0.01 -0.03,0.02 -0.05,0.04zm-1.72 -0.07c0.01,0 0.01,0 0.01,0 0,0 -0.01,0 -0.01,0 0,0 0,-0.01 0,-0.01 0.01,0 0.02,0 0.03,0 0.02,0 0.04,0 0.07,0 -0.01,0.01 -0.02,0.01 -0.03,0.01 -0.02,0 -0.05,0 -0.07,0zm-0.03 0c0,0 0,0 0.01,0 0,0 0,0 0,0 0,0 0,0 0,0 -0.01,0 -0.01,0 -0.01,0zm1.67 -0.04c-0.01,-0.04 -0.02,-0.11 -0.03,-0.17 0.01,-0.01 0.03,-0.03 0.04,-0.04 0,0.06 0.01,0.12 0.02,0.18 -0.01,0.01 -0.02,0.02 -0.03,0.03zm-1.7 -0.01l0 -0.01c0,0 0,0.01 0,0.01 0,0 0,0 0,0zm1.75 -0.03c-0.01,-0.01 -0.01,-0.03 -0.01,-0.04 -0.01,-0.06 -0.01,-0.11 -0.02,-0.14 0.01,-0.01 0.02,-0.02 0.04,-0.03 0,0.04 0.02,0.1 0.03,0.18 -0.01,0.01 -0.03,0.02 -0.04,0.03zm-0.71 0c0.07,-0.03 0.16,-0.04 0.24,-0.04 0,0 0,0 0.01,0 -0.01,0 -0.01,0.01 -0.02,0.01 -0.01,0 -0.02,0 -0.03,0 0,0 -0.01,0 -0.02,0 -0.06,0 -0.12,0.01 -0.18,0.03 0,0 0,0 0,0zm0.27 -0.04c0,0 0,0 0,0 0,0 0,0 0,0zm0.5 0c-0.02,-0.06 -0.03,-0.13 -0.05,-0.18 0.02,-0.02 0.03,-0.03 0.05,-0.04 0.01,0.06 0.03,0.13 0.05,0.19 -0.02,0.01 -0.04,0.02 -0.05,0.03zm-0.14 -0.11c0,-0.07 0,-0.13 0.04,-0.15 0,0.03 0,0.07 0,0.11 -0.01,0.02 -0.03,0.03 -0.04,0.04zm0.05 -0.05c-0.01,-0.15 0.02,-0.14 0.02,-0.15 0,0.03 0,0.07 0.01,0.12 -0.01,0.01 -0.02,0.02 -0.03,0.03zm0.04 -0.04c-0.01,-0.06 -0.02,-0.1 -0.01,-0.12 0,0 0,0 0,0 0.01,-0.01 0.03,-0.02 0.04,-0.03 0,0.02 0,0.04 0,0.07 0.01,0.01 0.01,0.02 0.02,0.04 -0.02,0.01 -0.03,0.03 -0.05,0.04zm0.47 -0.08c-0.01,-0.02 -0.02,-0.04 -0.04,-0.07 0.01,-0.01 0.02,-0.03 0.03,-0.04 0.01,0.02 0.02,0.04 0.04,0.06 0,0 -0.01,0 -0.01,0.01 -0.01,0.01 -0.02,0.02 -0.02,0.04zm-0.49 -0.03c0,0 0,0 0,0 0,0 0,-0.01 -0.01,-0.01 0,0 0,0 0,0 0,0 0.01,0 0.01,0 0,0 0,0.01 0,0.01zm0.44 -0.05c-0.02,-0.05 -0.06,-0.12 -0.1,-0.19 0.01,-0.01 0.02,-0.03 0.02,-0.04 0.04,0.07 0.08,0.13 0.11,0.19 -0.01,0.01 -0.02,0.03 -0.03,0.04zm0.04 -0.05c-0.04,-0.08 -0.07,-0.14 -0.1,-0.19 0.01,-0.03 0.02,-0.03 0.01,-0.04 0,0 0,0 0,0 -0.01,0 -0.02,0.01 -0.02,0.02 -0.02,-0.04 -0.04,-0.07 -0.06,-0.1 0.04,-0.05 0.05,-0.05 0.05,-0.05 0.07,0.09 0.12,0.2 0.18,0.31 0,0 0,0 0,0 -0.01,0 -0.03,0.02 -0.06,0.05zm0.96 0c0,-0.01 0,-0.01 -0.01,-0.01 0,-0.01 0,-0.01 0,-0.01 -0.01,-0.05 -0.01,-0.09 -0.01,-0.13 0.01,-0.04 0.01,-0.07 0.01,-0.1 0,0.05 0,0.1 0,0.16 0.01,0.03 0.01,0.06 0.01,0.09zm-1.15 -0.03c-0.02,-0.06 -0.05,-0.15 -0.1,-0.27 -0.04,-0.08 -0.05,-0.15 -0.04,-0.19 0.02,-0.04 0.04,-0.07 0.04,-0.09 0,0 0,0 0.01,0 0,0 0,0 0,0.01 0,0 0,-0.01 0,-0.01 0,-0.01 0,-0.01 -0.01,-0.01 0,0 0,0 0,0 0,-0.01 0,-0.01 0,-0.01 0,0 0,0 0,0 0.01,-0.01 0.02,-0.02 0.02,-0.02 0,0 0,0 0,0 0.01,0.07 0.06,0.14 0.11,0.2 0.01,0.01 0.02,0.03 0.03,0.04 -0.01,0.01 -0.03,0.03 -0.04,0.06 -0.13,-0.26 -0.05,-0.2 -0.1,-0.24 0,0 0,0 0,0 0,0 -0.01,0 -0.01,0.01 0.03,0.08 0.06,0.16 0.1,0.24 -0.01,0.01 -0.01,0.01 -0.01,0.02 -0.01,0 -0.01,0.01 -0.01,0.02 -0.04,-0.09 -0.08,-0.17 -0.09,-0.24 0.02,0.03 0.03,0.06 0.04,0.09 0.01,0 0.01,0 0.01,0 0,0 0,-0.01 0,-0.01 0,-0.01 -0.05,-0.09 -0.06,-0.09 0,0 0,0.01 0,0.02 0.02,0.07 0.04,0.14 0.09,0.24 0,0 -0.01,0.01 -0.01,0.02 -0.03,-0.07 -0.06,-0.14 -0.07,-0.2 0,0 -0.01,-0.01 -0.01,-0.01 -0.01,0 -0.01,0.03 0.07,0.22 0,0.01 -0.01,0.02 -0.01,0.02 0,0 0.01,0 0.02,-0.01 0.01,0.03 0.03,0.07 0.05,0.11 -0.01,0.03 -0.02,0.06 -0.02,0.08zm-0.1 -0.27l0 0 0 0zm0 0l0 0 0 0zm0.12 0.18c-0.01,-0.03 -0.03,-0.07 -0.05,-0.11 0.01,-0.01 0.01,-0.01 0.02,-0.02 0.01,0.03 0.03,0.07 0.05,0.1 -0.01,0.01 -0.01,0.02 -0.02,0.03zm-0.27 0c-0.01,-0.03 -0.01,-0.05 -0.01,-0.09 0,0.02 0.01,0.04 0.01,0.07 0,0.01 0,0.01 0,0.02zm0.29 -0.04c-0.02,-0.03 -0.03,-0.07 -0.05,-0.1 0.01,-0.01 0.02,-0.02 0.02,-0.03 0.02,0.03 0.04,0.06 0.05,0.09 0,0.02 -0.01,0.03 -0.02,0.04zm-0.28 -0.11c0,-0.01 0,-0.01 0,-0.02 0,0 0,-0.01 0.01,-0.02 -0.01,0.01 -0.01,0.03 -0.01,0.04z"/>
  <path class="fil1" d="M2.56 1.12c0,0 -0.03,-0.02 -0.07,-0.07 -0.08,-0.08 -0.14,-0.18 -0.2,-0.29 0,0 0,0 0,0 -0.01,0 -0.01,0 -0.01,0 -0.06,-0.11 -0.11,-0.22 -0.18,-0.31 0,0 0,-0.01 0,-0.01 0,0 0,-0.01 0,-0.01 -0.01,0 -0.01,0 -0.01,0 -0.01,-0.01 -0.02,-0.03 -0.03,-0.04 -0.05,-0.06 -0.1,-0.13 -0.11,-0.2 0,0 0,0 0,0 0.01,-0.02 0.01,-0.04 0.01,-0.06 0.01,0.08 -0.01,0.09 0.07,0.17 0.03,0.04 0.06,0.07 0.08,0.11 0.17,0.24 0.23,0.43 0.37,0.6 0.07,0.08 0.09,0.11 0.08,0.11zm-0.55 -1.04c-0.01,-0.03 -0.01,-0.06 -0.02,-0.08l0.01 0c0,0.01 0,0.01 0,0.02 0.01,0.02 0.01,0.04 0.01,0.06z"/>
  <path class="fil1" d="M2.28 1.34c0,0 -0.02,-0.02 -0.06,-0.07 -0.17,-0.19 -0.2,-0.38 -0.2,-0.39l0 0 0 0 0 0 0 0c-0.05,-0.24 -0.15,-0.4 -0.16,-0.51 0.01,-0.02 0.02,-0.03 0.03,-0.05 -0.01,0.04 0,0.11 0.04,0.19 0.05,0.12 0.08,0.21 0.1,0.27 0,0.01 0,0.02 0,0.02 0,0 0,0 0,0 0.02,0.05 0.02,0.08 0.02,0.08 0,0 0,0 0,0 0.04,0.18 0.24,0.46 0.23,0.46zm-0.26 -0.46l0 0 0 0zm-0.16 -0.59c0.01,-0.01 0.01,-0.03 0.03,-0.04 0,0 0,-0.01 0.01,-0.01 -0.02,0.02 -0.03,0.03 -0.04,0.05zm0.08 -0.05c0,-0.01 0,-0.01 0,-0.01 -0.01,0 -0.01,0 -0.01,0 0,-0.01 0,-0.01 0,-0.01 0,0 0,0 0,0 0.01,0 0.01,0 0.01,0.01 0,0 0,0.01 0,0.01z"/>
  <polygon class="fil1" points="2.02,0.88 2.02,0.88 "/>
  <polygon class="fil1" points="1.93,0.51 1.93,0.51 "/>
  <polygon class="fil1" points="2.02,0.88 2.02,0.88 "/>
  <polygon class="fil1" points="1.93,0.51 1.93,0.51 "/>
  <path class="fil1" d="M0.89 2.51c0.02,-0.11 0.08,-0.21 0.11,-0.32 0.05,-0.18 -0.01,-0.02 0.12,-0.42 0.05,-0.13 0.06,-0.22 0.12,-0.31 0,0.01 0,0.03 0,0.04 0,0 0.01,0 0.01,-0.01 0,0.01 -0.01,0.01 -0.01,0.02 -0.17,0.39 -0.19,0.75 -0.35,1zm0.38 -1.05c0.01,-0.02 0.02,-0.04 0.03,-0.06 0.08,-0.08 0.14,-0.12 0.16,-0.24 0.02,-0.11 0.11,-0.13 0.23,-0.28 0,0 0,0 0,0 -0.02,0.03 -0.04,0.05 -0.04,0.06 0,0 0.01,0 0.01,0 -0.13,0.08 -0.2,0.2 -0.23,0.35 -0.03,0.05 -0.1,0.08 -0.16,0.17zm0.28 -0.48c0.03,-0.03 0.06,-0.05 0.09,-0.07 -0.02,0.02 -0.04,0.03 -0.05,0.05 -0.02,0.01 -0.03,0.01 -0.04,0.02zm0.15 -0.06c0.02,-0.02 0.04,-0.05 0.05,-0.08 0,0 0.01,0 0.01,0 0.01,-0.01 0.01,-0.03 0.02,-0.04 0.07,-0.14 0.04,-0.22 0.01,-0.26 0,-0.01 0,-0.03 0.01,-0.04 0,-0.01 0,-0.01 0,-0.02 0.01,-0.02 0.02,-0.05 0.04,-0.07 -0.01,0.03 -0.01,0.07 -0.01,0.12 0,0.07 0.02,0.23 -0.03,0.32 -0.01,-0.03 -0.02,-0.04 -0.02,-0.04 0,0 0,0 0,0 0,0 0,0 0,0 0,0 0,0.02 0.01,0.06 -0.01,0.01 -0.03,0.02 -0.04,0.03 0,0 0,0 0,0 0,-0.01 0,-0.01 0,-0.01 0,-0.01 0,-0.02 0,-0.02 0,0 0,0.01 -0.01,0.03 0,0 -0.01,0 -0.01,0 0,0 0,0 0,0.01 -0.01,0 -0.02,0 -0.03,0.01zm0.11 -0.55c0.01,-0.06 0.04,-0.11 0.05,-0.11 0,0 0.01,0 0.01,0 0,0 -0.01,0.02 -0.02,0.05 -0.01,0.02 -0.03,0.04 -0.04,0.06z"/>
  <path class="fil1" d="M0.33 2.17c0.05,-0.16 0.12,-0.3 0.19,-0.45 0.03,-0.06 0.05,-0.1 0.08,-0.15 0,0 0,0.01 0,0.01 0,0 0,0 0,0 0.02,0 0.05,-0.02 0.07,-0.03 -0.16,0.19 -0.25,0.49 -0.34,0.62zm0.29 -0.63c0.03,-0.05 0.06,-0.09 0.1,-0.12 0,0 0,0 0.01,0 0,0 0,0 0,0 0,0 0,0 0,-0.01 0.01,0 0.02,-0.01 0.03,-0.02 -0.01,0.01 -0.02,0.03 -0.03,0.04 -0.06,0.07 -0.09,0.1 -0.11,0.11zm0.14 -0.09c0.01,-0.01 0.02,-0.03 0.03,-0.04 0.02,-0.02 0.04,-0.03 0.06,-0.05 0,0 0,0 0,0 0,0 0,0 0,0 0.07,-0.05 0.17,-0.07 0.26,-0.08 0,0 0.01,0 0.01,0 -0.01,0 -0.04,0.01 -0.06,0.03 -0.06,0.01 -0.13,0.04 -0.22,0.08 -0.03,0.02 -0.06,0.04 -0.08,0.06zm0.34 -0.16c0.04,-0.01 0.05,0 0.05,-0.01 0,0 0,0 -0.01,-0.01 0.03,0 0.05,0 0.07,-0.01 -0.01,0.01 -0.02,0.02 -0.03,0.02 -0.02,0 -0.05,0.01 -0.08,0.01zm0.11 -0.01c0.02,-0.01 0.03,-0.02 0.04,-0.03 0.04,-0.01 0.08,-0.02 0.12,-0.02 0,0.01 0,0.01 -0.01,0.02 -0.04,0.02 -0.07,0.02 -0.1,0.03 0.03,-0.02 0.06,-0.02 0.08,-0.03 0.01,-0.01 0.01,-0.01 0,-0.01 0,0 0,0 0,0 -0.04,0.01 -0.07,0.02 -0.09,0.04 -0.02,0 -0.03,0 -0.04,0zm-0.17 -0.02c0.06,-0.02 0.12,-0.03 0.18,-0.03 0.01,0 0.02,0 0.02,0 0.01,0 0.02,0 0.03,0 0,0 0,0 0,0 -0.02,0.01 -0.05,0.01 -0.07,0.01 -0.06,0.01 -0.11,0.01 -0.16,0.02zm0.34 -0.02c0,0 0,-0.01 0,-0.01 0,-0.01 0.01,-0.01 0.01,-0.01 0,0 0,0 0.01,0 -0.01,0.01 -0.01,0.01 -0.01,0.02 -0.01,0 -0.01,0 -0.01,0z"/>
  <path class="fil1" d="M0 1.97l0 -0.05c0,-0.01 0.01,-0.01 0.01,-0.02 0.05,-0.08 0.09,-0.14 0.17,-0.21 -0.02,0.03 -0.03,0.05 -0.02,0.05 0,0 0.03,-0.02 0.07,-0.07 0.03,-0.04 0.06,-0.07 0.1,-0.11 0,0 0,0 0.01,0 0.06,-0.05 0.11,-0.08 0.15,-0.11 0.04,-0.03 0.08,-0.05 0.12,-0.06 0.02,0 0.04,0 0.06,-0.01 -0.08,0.04 -0.14,0.1 -0.22,0.15 -0.4,0.28 -0.31,0.24 -0.45,0.44zm0.72 -0.6c-0.01,0 -0.03,0 -0.04,-0.01 0.03,0 0.05,-0.01 0.08,-0.01 0.01,0 0.02,0.01 0.02,0.01 -0.02,0 -0.04,0.01 -0.06,0.01zm0.13 -0.01c0,0 0,0 0,0 0,0 0,0 0,0 0,0 0,0 0,0zm-0.05 -0.01c-0.01,-0.01 -0.04,-0.02 -0.08,-0.02 -0.02,0 -0.04,0.01 -0.06,0.01 0,0 0.01,-0.01 0.02,-0.01 0.02,0 0.04,-0.01 0.06,-0.01 0.03,0 0.06,0.01 0.08,0.02 -0.01,0 -0.01,0 -0.02,0.01z"/>
  <path class="fil1" d="M0 1.42l0 -0.04c0.02,0 0.04,0 0.06,0 0.01,0 0.01,0 0.01,0 0.01,0 0.01,0 0.01,0 0,0 0,0 0,0 0,0 0,0 0,0 0,0 0,0 0,0 -0.01,0 -0.01,0 -0.01,0 0,0 0,0 0,0 0.05,-0.01 0.11,-0.02 0.2,-0.04 0.06,0.01 0.14,0.02 0.23,0.04 0.01,0 0.01,0 0.02,0 0,0 0,0 0,0 0,0 0,0 -0.01,0 -0.03,0 -0.06,0 -0.1,0 -0.06,-0.01 -0.12,-0.01 -0.17,-0.01 -0.05,0 -0.09,0 -0.13,0.01 -0.03,0.01 -0.07,0.02 -0.11,0.04zm0.61 -0.03c0.03,-0.01 0.05,-0.02 0.07,-0.03 0.01,0.01 0.03,0.01 0.04,0.01 0.01,0 0.01,0 0.02,0.01 -0.02,0 -0.05,0 -0.07,0 -0.02,0.01 -0.04,0.01 -0.06,0.01zm-0.04 -0.03c0,0 0,0 0,0 -0.01,-0.01 -0.02,-0.01 -0.05,-0.01 0.02,0 0.05,0 0.07,0 0,0.01 -0.01,0.01 -0.02,0.01zm-0.44 -0.02c0.01,0 0.02,0 0.03,-0.01 0.01,0 0.01,0 0.02,0 0,0 0,0 0,0 0,0 0.01,0 0.02,0 -0.03,0.01 -0.05,0.01 -0.07,0.01z"/>
  <path class="fil1" d="M0.07 1.38c0,0 0,0 -0.01,0 0,0 0.01,0 0.01,0 0,0 0,0 0,0 0,0 0,0 0.01,0 0,0 0,0 0,0 0,0 0,0 0,0 0,0 0,0 0,0 0,0 0,0 -0.01,0zm-0.01 -0.04c-0.01,0 -0.01,0 -0.02,0 0,0 0,0 0,0 0,-0.01 0.01,-0.01 0.02,-0.01 0,0 0,0.01 0,0.01zm-0.06 -0.05c0,0 0,-0.01 0,-0.01l0 -0.05c0.01,0.02 0.03,0.03 0.04,0.05 -0.01,0 -0.02,0.01 -0.04,0.01z"/>
  <path class="fil1" d="M2.99 1.38c0.01,-0.02 0.09,-0.16 0.09,-0.16 0,0 0,0 0,0 0.01,-0.01 0.01,-0.01 0.02,-0.02 -0.01,0 -0.01,0.01 -0.01,0.02 -0.02,0.06 -0.06,0.11 -0.09,0.15 0,0 -0.01,0.01 -0.01,0.01zm0.16 -0.57c-0.01,-0.06 -0.01,-0.11 -0.01,-0.15 0.02,-0.32 0,-0.07 0,-0.31 0,-0.04 0,-0.07 0.01,-0.09 0,0 0,0 0.01,0 0,0 0,0 -0.01,-0.02 0,0 0,-0.01 0,-0.02 0.01,-0.02 0.02,-0.04 0.04,-0.07 0.01,-0.01 0.01,-0.03 0.02,-0.05 0.02,-0.04 0.03,-0.07 0.03,-0.1l0.04 0c-0.02,0.13 -0.09,0.24 -0.1,0.27 -0.01,0.17 0.01,0.15 -0.01,0.29 0,0.03 0,0.06 -0.01,0.1 0,0.04 0,0.08 0.01,0.13 0,0 0,0 -0.01,0 0,0 -0.01,0.01 -0.01,0.02z"/>
  <path class="fil1" d="M2.43 0.03c-0.01,0 -0.06,-0.01 -0.11,-0.03l0.04 0c0.05,0.03 0.07,0.03 0.07,0.03z"/>
  <path class="fil1" d="M3.11 0.37c0,0 0.01,0 0,-0.01 -0.02,-0.02 -0.08,-0.03 -0.14,-0.08 0.12,0.01 0.18,0.08 0.14,0.09z"/>
  <path class="fil1" d="M2.93 1.5c-0.01,-0.01 -0.01,-0.01 -0.01,-0.01 0,0 0,0 0,0 0,-0.01 0,-0.01 0,-0.01 0,0 0,0 0,0 0,0.01 0,0.01 0.01,0.02zm-0.05 -0.06c-0.03,-0.06 -0.09,-0.14 -0.15,-0.22 0.06,0.03 0.1,0.08 0.13,0.13 0.01,0.02 0.02,0.04 0.02,0.07 0,0.01 0,0.01 0,0.02z"/>
  <path class="fil1" d="M2.69 1.97c0.01,-0.01 0.02,-0.02 0.03,-0.04 0.04,-0.06 0.04,-0.08 0.06,-0.14 0.01,-0.05 0.03,-0.09 0.04,-0.12 -0.04,0.14 -0.05,0.22 -0.13,0.3zm0.18 -0.46c0.01,-0.02 0.01,-0.04 0.01,-0.07 0,-0.01 0,-0.01 0,-0.02 0.01,0.03 0.01,0.06 -0.01,0.09z"/>
  <polygon class="fil1" points="2.77,1.82 2.77,1.82 "/>
  <polygon class="fil1" points="2.77,1.82 2.77,1.82 2.77,1.82 "/>
  <path class="fil1" d="M1.3 2.76c-0.09,0 -0.24,-0.07 -0.3,-0.11 0.1,0.01 0.2,0.08 0.31,0.08 0.06,-0.01 0.02,-0.02 0.16,-0.05 0.01,-0.01 0.02,-0.01 0.04,-0.01 0.06,-0.02 0.15,-0.03 0.28,-0.06 0.1,-0.01 0.14,-0.07 0.19,-0.13 0.01,-0.02 0.02,-0.03 0.03,-0.05 0.04,-0.05 0.1,-0.1 0.19,-0.14 0,0 0,0 0,0 -0.1,0.06 -0.17,0.12 -0.16,0.16 0,0 0,0 0,0 0,0 0,0.01 0,0.01 -0.05,0.07 -0.09,0.14 -0.22,0.18 -0.02,0.01 -0.05,0.01 -0.08,0.02 -0.02,0 -0.04,0.01 -0.06,0.01 -0.31,0.06 -0.29,0.08 -0.32,0.08 -0.01,0.01 -0.02,0.01 -0.03,0.01 -0.01,0 -0.02,0 -0.03,0z"/>
  <path class="fil1" d="M0.45 2.93c-0.08,0 -0.22,-0.02 -0.4,-0.1 -0.01,0 -0.02,0 -0.02,-0.01 0,0 0,0 0,0 0.01,0 0.02,0 0.02,0.01 0.12,0.04 0.25,0.07 0.38,0.07 0.03,0 0.07,-0.01 0.11,-0.01 0,0 0.01,0 0.02,0 -0.02,0 -0.04,0.01 -0.05,0.01 -0.03,0.01 -0.05,0.02 -0.06,0.03zm0.24 -0.03c0.09,-0.05 0.19,-0.13 0.26,-0.22 -0.03,0.06 -0.12,0.16 -0.26,0.22z"/>
  <path class="fil1" d="M0 2.69l0 -0.06c0.02,-0.02 0.05,-0.04 0.08,-0.05 -0.03,0.03 -0.05,0.07 -0.08,0.11z"/>
  <path class="fil1" d="M1.97 2.49c0,0 0,-0.01 0,-0.01 0.09,-0.23 -0.05,-0.3 0,-0.61 0.01,0.04 0.02,0.09 0.02,0.13 0,0.18 0.1,0.3 0.02,0.43 -0.01,0.02 -0.02,0.03 -0.03,0.05 0,0 -0.01,0 -0.01,0.01 0,0 0,0 0,0z"/>
  <path class="fil1" d="M1.88 1.27c-0.01,-0.02 -0.01,-0.04 -0.02,-0.07 0,-0.01 0.01,-0.01 0.01,-0.01 0.01,0.03 0.01,0.06 0.01,0.08zm-0.02 -0.08c-0.02,-0.06 -0.04,-0.13 -0.05,-0.19 0.01,-0.01 0.02,-0.01 0.02,-0.02 0.02,0.07 0.03,0.14 0.04,0.2 0,0 -0.01,0.01 -0.01,0.01zm-0.05 -0.21c-0.01,-0.02 -0.01,-0.03 -0.02,-0.04 0,-0.03 0,-0.05 0,-0.07 -0.01,-0.04 -0.01,-0.06 -0.01,-0.06 0,0 0,0 0,0 0,0 0,0 0,0 0,0 0.01,0.01 0.02,0.04 0.01,0.03 0.02,0.07 0.03,0.11 -0.01,0.01 -0.02,0.01 -0.02,0.02z"/>
  <path class="fil1" d="M3.03 0.12c-0.01,0 -0.02,-0.01 -0.03,-0.01 -0.01,-0.01 -0.01,-0.03 0,-0.03 0.01,-0.01 0.01,-0.01 0.02,-0.01 0.02,0 0.04,0.03 0.02,0.05 0,0 -0.01,0 -0.01,0z"/>
  <path class="fil1" d="M2.91 0.57c0,-0.02 0.01,-0.04 0.01,-0.06 0,0 0,0 -0.01,0 -0.01,0 -0.03,0.01 -0.04,0.03 0,0 0,0.01 0,0.01 0,0 0,0 -0.01,-0.01 -0.01,-0.04 0.03,-0.06 0.06,-0.06 0,0 0.01,0 0.02,0 0.02,0.03 0,0.07 -0.03,0.09z"/>
  <path class="fil1" d="M2.91 0.89c-0.02,0 -0.03,-0.01 -0.04,-0.03 -0.01,-0.05 0.04,-0.09 0.07,-0.09 0.01,0 0.01,0 0.01,0.01 0.01,0.01 0,0.03 0,0.04 0,-0.01 0,-0.02 -0.01,-0.03 -0.02,0.01 -0.06,0.07 -0.02,0.08 0.01,0 0.01,0 0.01,0 0.01,0 0.02,0 0.03,-0.01 0,0.02 -0.02,0.03 -0.05,0.03z"/>
  <path class="fil1" d="M2.93 0.7c-0.01,0 -0.04,-0.04 -0.01,-0.11 0.01,0.03 0,0.08 0.01,0.11z"/>
  <path class="fil1" d="M2.57 0.67c-0.03,0 -0.05,-0.04 -0.02,-0.06 0,-0.01 0.01,-0.01 0.02,-0.01 0.03,0 0.06,0.03 0.03,0.06 -0.01,0.01 -0.02,0.01 -0.03,0.01z"/>
  <path class="fil1" d="M2.8 0.26c-0.01,0 -0.02,-0.01 -0.03,-0.02 -0.02,-0.03 0.02,-0.08 0.05,-0.08 0.01,0 0.02,0 0.03,0.01 -0.04,0 -0.05,0.06 -0.05,0.06 0.02,0.01 0.03,0.01 0.05,0.01 -0.01,0.01 -0.03,0.02 -0.05,0.02z"/>
  <path class="fil1" d="M2.87 1.14c-0.03,0 -0.04,-0.03 0.03,-0.08 -0.01,0.01 -0.02,0.03 -0.02,0.05 0.04,0 0.04,-0.03 0.04,-0.03 0.01,0.04 -0.02,0.06 -0.05,0.06z"/>
  <path class="fil1" d="M2.62 1.61c-0.01,0 -0.02,-0.01 -0.02,-0.02 -0.01,-0.03 0.01,-0.04 0.03,-0.04 0.01,0 0.03,0.01 0.04,0.03 -0.02,-0.01 -0.03,-0.01 -0.04,-0.01 -0.01,0 -0.02,0.01 -0.01,0.01 0,0 0,0 0,0 0,0 0,0.01 0,0.01 0,0 0,0 0,0l0 0c0,0.01 0.01,0.01 0.02,0.01 0,0 0,0 0,0 0,0 0,0 0,0 0.01,0 0.01,0 0,0 -0.01,0 -0.01,0.01 -0.02,0.01z"/>
  <path class="fil1" d="M2.53 1.43c-0.01,0 -0.02,0 -0.03,-0.02 -0.04,-0.05 0.01,-0.11 0.07,-0.13 -0.01,0.01 -0.05,0.06 -0.04,0.09 0,0.02 0.01,0.03 0.03,0.03 0.01,0 0.03,-0.01 0.04,-0.02 0,0.02 -0.03,0.05 -0.07,0.05z"/>
  <path class="fil1" d="M2.45 1.91c-0.01,0 -0.03,-0.01 -0.03,-0.03 -0.01,-0.03 0.03,-0.05 0.06,-0.05 0.02,0 0.04,0.01 0.03,0.03 0,0.01 0,0.02 -0.01,0.02 0,0 0.02,-0.03 -0.01,-0.03 0,0 0,0 0,0 -0.02,0 -0.03,0.01 -0.04,0.03 0.01,0.01 0.02,0.01 0.03,0.01 0.01,0 0.01,0 0.01,0 0,0 0.01,0 0.01,0 0,0 0,0 0,0 -0.01,0.01 -0.03,0.02 -0.05,0.02z"/>
  <path class="fil1" d="M2.26 2.02c-0.01,0 -0.01,-0.01 -0.02,-0.01 -0.04,-0.06 0.01,-0.12 0.05,-0.12 0.02,0 0.03,0.02 0.03,0.05 -0.01,-0.01 -0.01,-0.02 -0.02,-0.02 0,0 -0.01,0 -0.01,0.01 -0.02,0.03 -0.04,0.06 -0.03,0.09z"/>
  <path class="fil1" d="M1.81 2.42c-0.02,0 -0.04,-0.01 -0.04,-0.03 0,0 0,-0.01 0.01,-0.01 0,0 0,0 0.01,-0.01 0,0 0.01,-0.01 0.01,-0.02 0,0 0,0 0,0 0,0 0,0 0,0.01 0,0 0,0 0,0 0,0 0,0 0,0 0,0.01 0,0.02 0,0.02 0.01,0 0.03,-0.03 -0.01,-0.06 0,0 0,0 0.01,0 0.04,0 0.07,0.06 0.04,0.09 -0.01,0.01 -0.02,0.01 -0.03,0.01z"/>
  <path class="fil1" d="M2.17 1.71c-0.02,0 -0.03,-0.01 -0.04,-0.02 -0.01,-0.03 0.01,-0.08 0.07,-0.08 0.01,0 0.01,0 0.02,0 -0.03,0.01 -0.06,0.03 -0.06,0.05 0.05,0 0.1,-0.06 0.03,-0.1 0.01,0 0.01,0 0.02,0 0.03,0 0.06,0.05 0.05,0.08 -0.01,0.03 -0.06,0.07 -0.09,0.07z"/>
  <path class="fil1" d="M1.61 2.35c0,0 0,0 0,0 -0.01,0 -0.01,0 -0.01,0 0,0 0,0 0,0l0.01 0c-0.01,-0.02 -0.02,-0.03 -0.03,-0.03 0,0 0,0 -0.01,0 0,-0.01 0.01,-0.02 0.02,-0.02 0.01,0 0.02,0.01 0.02,0.02 0.01,0.01 0.01,0.03 0,0.03 0,0 0,0 0,0zm-0.01 0c0,0 0,0 0,0l0 0z"/>
  <path class="fil1" d="M2.67 1.05c-0.03,0 -0.05,-0.03 -0.02,-0.06 0,-0.01 0.01,-0.01 0.02,-0.01 0.03,0 0.06,0.04 0.03,0.06 -0.01,0.01 -0.02,0.01 -0.03,0.01z"/>
  <path class="fil1" d="M2.16 2.2c0,0 -0.01,0 -0.01,0 0,-0.01 0,-0.01 -0.01,-0.02 0.01,0.01 0.02,0.01 0.04,0.01 0,0 0,0.01 0,0.01 -0.01,0 -0.01,0 -0.02,0zm0.03 -0.01c0,0 0,0 0,0 0,0 0,0 0.01,0 -0.01,0 -0.01,0 -0.01,0zm-0.06 0c-0.01,-0.01 -0.02,-0.03 0,-0.05 0,0.01 0,0.03 0,0.05zm0.01 -0.06c0,0 0,0 0,-0.01 0,0 0,0 0,0 0,0 0,0.01 0,0.01z"/>
  <path class="fil1" d="M1.77 2.38c-0.03,0 -0.05,-0.03 -0.02,-0.05 0,-0.01 0.01,-0.01 0.02,-0.01 0.01,0 0.03,0.01 0.03,0.03 0,0.01 -0.01,0.02 -0.01,0.02 -0.01,0.01 -0.01,0.01 -0.01,0.01 -0.01,0 -0.01,0 -0.01,0z"/>
  <path class="fil1" d="M1.46 2.52c-0.01,-0.01 -0.01,-0.03 -0.01,-0.05 0,0 0.01,0 0.02,-0.01 0,0.02 0,0.04 -0.01,0.06z"/>
  <path class="fil1" d="M0.5 2.74c-0.02,0 -0.04,-0.01 -0.04,-0.03 -0.02,-0.05 -0.01,-0.11 0.02,-0.15 -0.01,0.05 0,0.14 0.01,0.14 0,0 0,0 0,0 0,0 0,0 0,0.01 0,0 0.01,0 0.01,0 0.01,0 0.02,0 0.02,-0.01 0.02,-0.02 0.04,-0.08 0.02,-0.09 0.03,0 0.03,0.07 0.02,0.1 -0.01,0.02 -0.03,0.03 -0.06,0.03z"/>
  <path class="fil1" d="M0.57 2.58c-0.01,-0.05 0.03,-0.06 0.07,-0.06 0.01,0 0.02,0 0.03,0 -0.01,0.01 -0.02,0.01 -0.03,0.02 -0.07,0.02 -0.04,-0.01 -0.07,0.04z"/>
  <path class="fil1" d="M1.44 2.47c-0.02,0 -0.05,-0.03 -0.02,-0.06 0.01,-0.01 0.02,-0.01 0.02,-0.01 0.03,0 0.05,0.04 0.03,0.06 0,0 0,0 0,0 -0.01,0.01 -0.02,0.01 -0.02,0.01 0,0 0,0 -0.01,0z"/>
  <path class="fil1" d="M1.55 2.26c-0.01,0 -0.02,0 -0.03,-0.01 0,-0.05 0.03,-0.09 0.07,-0.1 -0.02,0.02 -0.04,0.05 -0.04,0.08 0,0 0.01,0 0.01,0 0.02,0 0.05,0 0.05,-0.03 0.02,0.03 -0.02,0.06 -0.06,0.06z"/>
  <path class="fil1" d="M1.22 2.58c-0.04,0 -0.06,-0.03 -0.07,-0.06 0,-0.02 0.01,-0.03 0.01,-0.05 0.01,-0.01 0.03,-0.02 0.06,-0.02 0,0 0,0 0,0 -0.03,0.01 -0.05,0.02 -0.04,0.06 0.01,0.04 0.02,0.05 0.06,0.06 -0.01,0.01 -0.01,0.01 -0.02,0.01z"/>
  <path class="fil1" d="M1.62 2.53c-0.03,0 -0.05,-0.04 -0.03,-0.06 0.01,-0.01 0.02,-0.01 0.03,-0.01 0.02,0 0.04,0.03 0.02,0.06 -0.01,0 -0.02,0.01 -0.02,0.01z"/>
  <path class="fil1" d="M1.46 2.12c0,-0.03 0.01,-0.06 0.04,-0.06 -0.01,0.02 -0.02,0.04 -0.04,0.06z"/>
  <path class="fil1" d="M0.03 2.43c-0.01,0 -0.02,-0.01 -0.03,-0.01l0 -0.13c0,0 0,-0.01 0.01,-0.01 0,0.03 -0.01,0.08 0,0.1 0.01,0.01 0.01,0.01 0.02,0.01 0.03,0 0.09,-0.03 0.04,-0.11 0.04,0.02 0.06,0.06 0.04,0.1 -0.01,0.03 -0.05,0.05 -0.08,0.05zm-0.02 -0.05c0,0 0,0 0,0l0 0 0 0z"/>
  <path class="fil1" d="M0.6 2.44c-0.02,0 -0.04,-0.01 -0.05,-0.04 -0.01,-0.05 0.05,-0.12 0.08,-0.12 0,0 0,0 0,0 0.01,0 0.01,0 0.01,0 0,0 0,0 0,0 0,0 0,0 0,0 -0.03,0.01 -0.05,0.08 -0.04,0.11 0,0 0.01,0 0.01,0 0.04,0 0.04,-0.05 0.05,-0.05 0.03,0.05 -0.02,0.1 -0.06,0.1z"/>
  <path class="fil1" d="M0.29 2.69c0,-0.01 -0.01,-0.02 -0.02,-0.03 0,-0.02 0,-0.03 0,-0.03 0.01,0 0.02,0.03 0.02,0.06z"/>
  <path class="fil1" d="M1.06 2.57c-0.01,0 -0.02,-0.01 -0.03,-0.02 0.01,-0.01 0.01,-0.02 0.02,-0.03 0,0 0.01,0 0.01,0 0.01,0 0.01,0 0.02,0 -0.01,0.02 -0.01,0.04 -0.02,0.05 0,0 0,0 0,0zm0.01 0c0,-0.01 0.01,-0.02 0.01,-0.04 0.01,0.01 0.01,0.02 0,0.04 0,0 -0.01,0 -0.01,0z"/>
  <path class="fil1" d="M1.22 2.1c-0.03,0 -0.05,-0.03 -0.02,-0.05 0,0 0.01,0 0.01,0 0.03,0 0.04,0.02 0.02,0.04 0,0.01 -0.01,0.01 -0.01,0.01z"/>
  <path class="fil1" d="M1.66 1.81c-0.02,0 -0.04,-0.03 -0.02,-0.05 0.01,-0.01 0.02,-0.01 0.02,-0.01 0.03,0 0.05,0.03 0.02,0.05 0,0.01 -0.01,0.01 -0.02,0.01z"/>
  <path class="fil1" d="M2.32 0.97c-0.01,0 -0.01,0 -0.03,-0.02 -0.01,-0.01 -0.02,-0.03 -0.03,-0.05 0,0 0,0 0,0 0.01,0 0,-0.01 0,-0.01 0,0 0,0 0,0 -0.02,-0.02 -0.03,-0.04 -0.04,-0.06 0,0 0.01,-0.01 0.01,-0.01 0,0 0.01,0.01 0.01,0.01 0.01,0.02 0.09,0.14 0.08,0.14zm-0.11 -0.15c-0.03,-0.06 -0.07,-0.12 -0.11,-0.19 0.01,0 0.01,-0.01 0.02,-0.01 0.03,0.05 0.06,0.11 0.1,0.19 0,0 0,0.01 -0.01,0.01zm-0.12 -0.21c-0.01,-0.03 -0.03,-0.06 -0.05,-0.09 0.01,-0.01 0.01,-0.01 0.01,-0.02 0.02,0.03 0.04,0.06 0.06,0.1 -0.01,0 -0.01,0.01 -0.02,0.01zm-0.05 -0.11c-0.04,-0.08 -0.07,-0.16 -0.1,-0.24 0,-0.01 0.01,-0.01 0.01,-0.01 0,0 0,0 0,0 0.05,0.04 -0.03,-0.02 0.1,0.24 -0.01,0 -0.01,0.01 -0.01,0.01z"/>
  <path class="fil1" d="M2.24 0.96c0,0 0,0 -0.01,0 0,-0.01 0,-0.01 0.01,-0.01 0,0.01 0,0.01 0,0.01zm-0.02 -0.02c-0.01,-0.02 -0.02,-0.04 -0.03,-0.06 0,0 0,-0.01 0,-0.01 0.02,0.03 0.03,0.05 0.04,0.07 0,0 0,0 -0.01,0zm-0.04 -0.07c-0.04,-0.07 -0.07,-0.13 -0.1,-0.19 0,0 0,-0.01 0,-0.01 0.04,0.07 0.08,0.14 0.1,0.19 0,0 0,0 0,0.01zm-0.11 -0.21c-0.02,-0.03 -0.04,-0.07 -0.05,-0.1 0,0 0,-0.01 0,-0.01 0,0 0,0 0,0 0.02,0.03 0.03,0.07 0.05,0.1 0,0.01 0,0.01 0,0.01zm-0.06 -0.11c-0.05,-0.1 -0.07,-0.17 -0.09,-0.24 0,-0.01 0,-0.02 0,-0.02 0.01,0 0.06,0.08 0.06,0.09 0,0 0,0.01 0,0.01 0,0 0,0 -0.01,0 -0.01,-0.03 -0.02,-0.06 -0.04,-0.09 0.01,0.07 0.05,0.15 0.09,0.24 -0.01,0 -0.01,0 -0.01,0.01z"/>
  <path class="fil1" d="M2.12 0.83c-0.01,0 -0.01,0 -0.02,-0.02 -0.02,-0.03 -0.03,-0.06 -0.04,-0.09 0,0 0,0 0,-0.01 0.04,0.07 0.06,0.12 0.06,0.12zm-0.07 -0.13c-0.02,-0.04 -0.04,-0.08 -0.05,-0.11 0,-0.01 0,-0.01 0,-0.01 0.02,0.04 0.04,0.08 0.05,0.11 0,0 0,0.01 0,0.01zm-0.06 -0.12c-0.08,-0.19 -0.08,-0.22 -0.07,-0.22 0,0 0.01,0.01 0.01,0.01 0.01,0.06 0.04,0.13 0.07,0.2 0,0 -0.01,0.01 -0.01,0.01z"/>
  <path class="fil1" d="M1.85 1.44c0,0 0,-0.01 -0.01,-0.02 0,-0.01 0,-0.03 -0.01,-0.04 0.01,-0.01 0.01,-0.01 0.01,-0.01 0.01,0.04 0.02,0.07 0.01,0.07zm-0.02 -0.07c-0.01,-0.05 -0.03,-0.09 -0.03,-0.13 0,-0.01 0,-0.01 0.01,-0.01 0.01,0.05 0.02,0.09 0.03,0.13 0,0 -0.01,0 -0.01,0.01zm-0.04 -0.14c-0.01,-0.08 -0.03,-0.14 -0.03,-0.18 0,-0.01 0,-0.01 0,-0.01 0.02,0.05 0.03,0.12 0.05,0.18 -0.01,0 -0.01,0.01 -0.02,0.01zm-0.04 -0.2c-0.01,-0.05 -0.01,-0.09 -0.01,-0.12 0,0 0,0 0,0 0,0 0,-0.01 0,-0.01 0.01,-0.02 0.01,-0.03 0.01,-0.03 0,0 0,0.01 0,0.02 0,0 0,0 0,0.01 -0.01,0.02 0,0.06 0.01,0.12 0,0 0,0.01 -0.01,0.01z"/>
  <path class="fil1" d="M1.78 1.43c0,0 0,0 0,-0.01 0,0 0,0 0,0 0,0 0,0.01 0,0.01zm-0.01 -0.02c0,0 0,0 0,-0.01 -0.02,-0.03 -0.03,-0.08 -0.04,-0.12 0.01,0 0.01,-0.01 0.02,-0.01 0.01,0.05 0.02,0.11 0.03,0.14 0,0 -0.01,0 -0.01,0zm-0.04 -0.14c-0.01,-0.06 -0.02,-0.12 -0.02,-0.18 0,0 0.01,-0.01 0.01,-0.01 0.01,0.03 0.01,0.08 0.02,0.14 0,0.01 0,0.03 0.01,0.04 -0.01,0.01 -0.01,0.01 -0.02,0.01zm-0.02 -0.2c0,-0.04 0,-0.08 0,-0.11 0,0 0,0 0,0 0.01,0 0.01,-0.01 0,-0.01 0,0 0,0 0,0 0,0 0,-0.01 0,-0.01 0,-0.02 0.01,-0.03 0.02,-0.03 0,-0.01 0,-0.01 0,-0.01 0,0 0,0 0,0 0.01,0 0.01,0.01 0.01,0.01 0,0 0,0 0,0 0,0 0,0 0,0 0,0.01 -0.03,0 -0.02,0.15 0,0 -0.01,0.01 -0.01,0.01z"/>
  <path class="fil1" d="M1.71 1.37c-0.01,-0.01 -0.01,-0.02 -0.02,-0.05 0,0 0.01,-0.01 0.01,-0.01 0.01,0.03 0.01,0.05 0.01,0.06zm-0.02 -0.06c-0.02,-0.04 -0.03,-0.1 -0.03,-0.17 0,0 0.01,-0.01 0.01,-0.01 0.01,0.06 0.02,0.13 0.03,0.17 -0.01,0.01 -0.01,0.01 -0.01,0.01zm-0.03 -0.18c0,-0.06 0,-0.12 0.03,-0.16 0.01,-0.01 0.01,-0.02 0.02,-0.02 0,0 0,0 0,0 0.01,0 0.01,0.01 0,0.01 0,0 0,0 0,0 -0.04,0.02 -0.04,0.08 -0.04,0.15 0,0.01 -0.01,0.01 -0.01,0.02z"/>
  <path class="fil1" d="M1.54 1.3c-0.04,-0.13 0.09,-0.36 0.14,-0.36 0,0 0,0 0.01,0 0,0.01 0.01,0.01 0,0.02 0,0 0,0 0,0 0,0 0,-0.01 -0.01,-0.01 0,0 0,0 0,0 -0.02,0 -0.06,0.06 -0.07,0.07 -0.06,0.08 -0.06,0.18 -0.06,0.24 -0.01,0.01 -0.01,0.02 -0.01,0.02 0,0 0,0 0.01,0 -0.01,0.01 -0.01,0.02 -0.01,0.02z"/>
  <path class="fil1" d="M0.98 2c0,-0.04 0.03,-0.08 0.07,-0.21 0,-0.02 0.01,-0.03 0.01,-0.05 0.01,0 0.01,0 0.02,0.01 -0.02,0.06 -0.07,0.22 -0.1,0.25zm0.1 -0.27c0,0 -0.01,-0.01 -0.01,-0.01 0.01,-0.05 0.02,-0.08 0.02,-0.08 0,-0.02 0.01,-0.03 0.01,-0.04 0,0 0,0 0,0 0,0 0,0 0,0 0.02,-0.06 0.04,-0.1 0.06,-0.14 0.01,0 0.01,0 0.02,0 -0.04,0.06 -0.07,0.14 -0.09,0.26 0,0 0,0 0,0 0,0 0,0 -0.01,0.01zm0.1 -0.27c0,-0.01 -0.01,-0.01 -0.01,-0.01 0,0 0,0 0,0 0.07,-0.12 0.17,-0.15 0.19,-0.2 0.01,-0.01 0.01,-0.01 0.01,-0.02 0,0 0,0 0.01,0 0,0 0,0.01 0,0.01 -0.01,0.02 -0.02,0.04 -0.05,0.07 -0.06,0.05 -0.11,0.09 -0.15,0.15z"/>
  <path class="fil1" d="M0.91 1.86c0,-0.03 0.03,-0.09 0.06,-0.16 0.01,0 0.01,0 0.02,0 -0.01,0.02 -0.03,0.05 -0.04,0.07 -0.01,0.03 -0.02,0.07 -0.04,0.09zm0.08 -0.17c0,-0.01 0,-0.01 -0.01,-0.01 0.02,-0.03 0.04,-0.07 0.05,-0.1 0,0 0,0 0.01,0 0,0 0,0 0.01,0 -0.02,0.03 -0.04,0.07 -0.06,0.11zm0.06 -0.13c0,0 0,0 -0.01,0 0.03,-0.05 0.05,-0.08 0.06,-0.12 0.01,0 0.01,0 0.02,0 -0.02,0.04 -0.04,0.08 -0.07,0.12zm0.07 -0.12c0,-0.01 -0.01,-0.01 -0.01,-0.01 0.05,-0.08 0.09,-0.13 0.14,-0.15 0.02,-0.02 0.05,-0.03 0.09,-0.04 0,0 0,0 0,0 0.01,0 0.01,0 0,0.01 -0.02,0.01 -0.05,0.01 -0.08,0.03 -0.03,0.02 -0.08,0.06 -0.14,0.16z"/>
  <path class="fil1" d="M0.77 1.72c-0.01,-0.05 0.01,-0.09 0.04,-0.14 0.01,0 0.01,0 0.02,0 0,0 0,0 0,0 -0.05,0.07 -0.05,0.12 -0.06,0.14zm0.06 -0.16c0.03,-0.04 0.08,-0.08 0.13,-0.12 0,0 0.01,0 0.01,0 -0.05,0.04 -0.09,0.08 -0.12,0.12 -0.01,0 -0.01,0 -0.02,0zm0.14 -0.13c0.07,-0.06 0.14,-0.11 0.21,-0.15 0.01,0 0.02,-0.01 0.03,-0.02 0.01,0 0.03,0 0.04,-0.01 -0.01,0.01 -0.02,0.02 -0.04,0.03 -0.03,0.02 -0.06,0.03 -0.1,0.06 -0.05,0.03 -0.09,0.06 -0.13,0.09 0,0 -0.01,0 -0.01,0zm0.3 -0.2c0,0 0,0 0,0 0.01,0 0.01,-0.01 0.02,-0.01 0.02,-0.01 0.03,-0.01 0.03,-0.01 0.01,0 0.01,0 0.01,0 0,0 0,0.01 0,0.01 -0.01,0 -0.01,0 -0.02,0 0,0 0,0 0,0 -0.01,0.01 -0.03,0.01 -0.04,0.01z"/>
  <path class="fil1" d="M0.74 1.65c0,-0.02 0.01,-0.04 0.01,-0.06 0.01,0 0.01,0 0.02,0 -0.01,0.02 -0.02,0.04 -0.03,0.06zm0.02 -0.07c0.02,-0.05 0.06,-0.09 0.1,-0.13 0,0 0.01,0 0.01,0 -0.06,0.06 -0.08,0.09 -0.1,0.12 0,0.01 -0.01,0.01 -0.01,0.01zm0.11 -0.14c0.06,-0.06 0.13,-0.11 0.19,-0.13 0.02,-0.02 0.05,-0.03 0.06,-0.03 0.01,0 0.02,0 0.02,-0.01 0.01,0.01 0.01,0.01 0.01,0.01 0,0.01 -0.01,0 -0.05,0.01 -0.02,0.01 -0.06,0.03 -0.11,0.07 -0.05,0.03 -0.08,0.05 -0.11,0.08 0,0 -0.01,0 -0.01,0z"/>
  <path class="fil1" d="M0.37 1.9c0.04,-0.12 0.23,-0.43 0.3,-0.49 0,0 0,0 0,-0.01 0.01,0 0.02,0 0.03,0 -0.08,0.04 -0.12,0.14 -0.17,0.21 -0.14,0.24 -0.12,0.25 -0.16,0.29zm0.38 -0.5c0,0 -0.01,-0.01 0,-0.01l0 0c-0.02,0 -0.03,0 -0.04,0 0,0 -0.01,0 -0.01,0 0,0 0,0 0,0 0.01,-0.01 0.03,-0.01 0.04,-0.01 0.01,0 0.02,0 0.01,0.01 0,0.01 0,0.01 0,0.01z"/>
  <path class="fil1" d="M0.28 1.76c0.02,-0.08 0.33,-0.37 0.42,-0.37 0,0 0,0 0,0 0,0 0.01,0 0.01,0 0,0 0,0 0,0 0.01,0.01 0.02,0.02 0.02,0.02 0,0.01 0,0.01 0,0.01 0,0 0,0 0,0 -0.01,0 -0.01,0 -0.01,0 0,0 0,-0.01 -0.01,-0.02 0,0 -0.01,0 -0.01,0 0,0 0,0 0,0 -0.01,0 -0.02,0 -0.03,0 -0.08,0.04 -0.25,0.2 -0.29,0.24 -0.06,0.07 -0.08,0.11 -0.1,0.12z"/>
  <path class="fil1" d="M0 1.75l0 -0.01c0,0.01 0,0.01 0.01,0.01 -0.01,0 -0.01,0 -0.01,0zm0.01 0c-0.01,-0.01 -0.01,-0.01 -0.01,-0.01l0 0c0.03,-0.03 0.06,-0.06 0.09,-0.08 0,0 0.01,0 0.01,0 -0.04,0.03 -0.07,0.06 -0.09,0.09zm0.1 -0.09c-0.01,0 -0.01,-0.01 -0.01,-0.01 0.03,-0.03 0.07,-0.05 0.12,-0.08 0,0 0,0 0,0 -0.04,0.03 -0.08,0.06 -0.11,0.09zm0.12 -0.09c0,0 0,0 -0.01,-0.01 0,0 0.01,0 0.01,0 0,0 0,0 0.01,0 0.02,-0.02 0.05,-0.03 0.08,-0.05 -0.01,0.01 -0.02,0.02 -0.03,0.02 0,0.01 -0.01,0.01 -0.02,0.02 -0.01,0 -0.01,0.01 -0.02,0.01 -0.01,0 -0.01,0.01 -0.02,0.01z"/>
  <path class="fil1" d="M0 1.65l0 -0.02c0.01,-0.01 0.01,-0.01 0.02,-0.02 0,0.01 0.01,0.01 0.02,0.01 -0.02,0.01 -0.03,0.02 -0.04,0.03zm0.04 -0.03c0,-0.01 -0.01,-0.01 -0.02,-0.01 0.04,-0.03 0.07,-0.05 0.11,-0.07 0,-0.01 0,-0.01 0.01,-0.01 0,0.01 0.01,0.01 0.01,0.01 0,0 0,0 0,0 -0.04,0.02 -0.08,0.05 -0.11,0.08zm0.12 -0.08c0,-0.01 -0.01,-0.01 -0.01,-0.01 0.01,0 0.03,-0.01 0.04,-0.01 -0.01,0 -0.02,0.01 -0.03,0.02zm0 -0.02c0.05,-0.03 0.09,-0.05 0.14,-0.06 0,0 0,0 0,0 0.01,0 0.01,0.02 0,0.02 -0.03,0.01 -0.06,0.02 -0.08,0.03 -0.01,0 -0.01,0 -0.01,0 -0.01,0 -0.02,0 -0.05,0.01z"/>
  <path class="fil1" d="M0 1.6c0,0 0,0 0,0l0 -0.01c0.04,-0.03 0.09,-0.05 0.12,-0.06 0.01,0 0.01,0 0.02,0 -0.01,0 -0.01,0 -0.01,0.01 -0.05,0.01 -0.09,0.03 -0.13,0.06zm0.15 -0.07c-0.01,0 -0.01,0 -0.02,-0.01 0.01,0 0.02,0 0.03,0 0.03,-0.01 0.04,-0.01 0.05,-0.01 0,0 0,0 0.01,0 0,0 0.01,0 -0.01,0.01 0,0 -0.01,0 -0.02,0 -0.01,0 -0.03,0.01 -0.04,0.01z"/>
  <path class="fil1" d="M0 1.55l0 -0.02c0.02,-0.01 0.03,-0.02 0.05,-0.02 0.01,0 0.01,0 0.02,0 0,0.01 -0.02,0.01 -0.07,0.04zm0.08 -0.04c-0.01,0 -0.02,-0.01 -0.02,-0.01 0,0 0,0 0.01,0 0,0 0,0 0,0 0,0 0.01,0.01 0.01,0.01z"/>
  <path class="fil1" d="M2.79 1.62c0,0 -0.01,0 -0.01,0 0,-0.05 0.05,-0.15 -0.1,-0.33 -0.01,0 0,-0.02 0,-0.02 0.01,0 0.01,0 0.01,0.01 0.16,0.18 0.11,0.34 0.1,0.34z"/>
  <path class="fil1" d="M2.05 2.38c0,0 0,0 0,0 -0.01,-0.02 0.05,0.01 -0.04,-0.48 0,0 0,0 0,0 -0.01,0 -0.01,-0.02 -0.01,-0.05 0,-0.02 0,-0.02 0,-0.02 0.01,0 0.04,0.14 0.06,0.27 0.02,0.14 0.03,0.28 -0.01,0.28z"/>
  <path class="fil1" d="M2.14 2.32c-0.01,-0.03 0,-0.07 -0.01,-0.13 0,-0.02 0,-0.04 0,-0.05 -0.01,-0.04 -0.02,-0.07 -0.03,-0.1 -0.01,0 -0.01,0 -0.01,0.01 0,0 0,0 0,0 0,0 -0.01,0 -0.01,0 0.01,-0.02 0.01,-0.02 0.02,-0.02 0.01,0 0.03,0.04 0.04,0.09 0,0.01 0,0.01 0,0.01 0,0.02 0,0.03 0,0.05 0.01,0.01 0.01,0.01 0.01,0.02 0,0.05 0,0.1 -0.01,0.12z"/>
  <path class="fil1" d="M2.18 2.26c0,-0.02 -0.01,-0.04 0,-0.06 0,0 0,-0.01 0,-0.01 0,-0.04 0,-0.08 -0.02,-0.11 0,0 0,-0.01 0,-0.01 0,0 0,0 0,0 0.02,0 0.03,0.06 0.03,0.12 0,0 0,0 0,0 0,0.03 0,0.06 -0.01,0.07z"/>
  <path class="fil1" d="M1.05 2.38c0,-0.01 -0.01,-0.01 -0.01,-0.01 0,-0.04 0.01,-0.08 0.01,-0.12 0.01,0 0.01,-0.01 0.01,-0.01 0,-0.01 0,-0.02 0.01,-0.02 0,0 0,0.07 -0.02,0.16z"/>
  <path class="fil1" d="M1.06 2.59c0,-0.01 0,-0.01 0,-0.02 0.01,-0.01 0.01,-0.03 0.02,-0.05 0.01,-0.05 0.04,-0.12 0.05,-0.17 -0.01,0 0,-0.01 0,-0.01 0,0 0.01,0.01 0.01,0.01 -0.01,0.03 -0.04,0.12 -0.06,0.18 0,0.02 -0.01,0.03 -0.01,0.04 0,0.01 -0.01,0.02 -0.01,0.02z"/>
  <path class="fil1" d="M1.13 2.57c0,-0.05 0.03,-0.09 0.01,-0.13 0,0 0,0 0,0 0,0 -0.01,-0.01 0,-0.02 0,0 0,0 0,0 0.02,0 0.02,0.03 0.02,0.05 0,0.02 -0.01,0.03 -0.01,0.05 -0.01,0.02 -0.01,0.04 -0.02,0.05z"/>
  <path class="fil1" d="M0 2.76l0 -0.01c0.05,-0.03 0.12,-0.08 0.17,-0.18 0,-0.02 0.01,-0.02 0.01,-0.02 0.01,0 0,0 0,0.02 -0.04,0.09 -0.12,0.16 -0.18,0.19z"/>
  <path class="fil1" d="M0.03 2.82c-0.01,0 -0.01,-0.01 -0.02,-0.01 0,0 0.01,-0.01 0.02,-0.01 0.13,-0.1 0.14,-0.16 0.18,-0.18 -0.01,0.06 -0.11,0.15 -0.18,0.2 0,0 0,0 0,0z"/>
  <path class="fil1" d="M2.93 1.27c-0.03,-0.02 -0.16,-0.15 -0.16,-0.16 0,0 0,0 0,0 0.01,0 0.15,0.13 0.16,0.16z"/>
  <path class="fil1" d="M3.12 0.29c-0.16,-0.13 -0.32,-0.15 -0.38,-0.18 0,-0.01 0,-0.02 0.01,-0.02 0,0 0,0 0,0.01 0.01,0 0.37,0.12 0.37,0.19z"/>
  <path class="fil1" d="M3.16 0.26c-0.01,0 -0.01,0 -0.01,0 -0.01,-0.01 -0.01,-0.01 -0.02,-0.02 -0.08,-0.07 -0.17,-0.13 -0.28,-0.13 0,0 0,0 -0.01,0 0,0 0,0 0,0 -0.01,-0.01 0,-0.01 0.02,-0.01 0.05,0 0.17,0.03 0.28,0.14 0.01,0 0.01,0 0.01,0 0.01,0.02 0.01,0.02 0.01,0.02z"/>
  <path class="fil1" d="M3.12 0.18c-0.02,0 -0.04,-0.02 -0.07,-0.03 -0.08,-0.05 -0.17,-0.06 -0.15,-0.08 0,-0.01 0,-0.01 0,-0.01 0,0 0.01,0 0.01,0 0.02,0.02 0.05,0.03 0.09,0.05 0.01,0 0.02,0.01 0.03,0.01 0.04,0.02 0.08,0.04 0.09,0.06z"/>
  <path class="fil1" d="M0.06 1.34c-0.02,0 -0.03,0 -0.05,0 0.01,0 0.01,0 0.02,0 0,0 0,0 0.01,0 0,0 0,0 0,0 0.01,0 0.01,0 0.02,0 0,0 0.01,0 0.01,0 0,0 0,0 -0.01,0 0,0 0,0 0,0z"/>
  <path class="fil1" d="M0 1.38l0 -0.04c0,0 0.01,0 0.01,0 0.02,0 0.03,0 0.05,0 0,0 0,0 0,0 0.02,0 0.05,0 0.07,0 0.02,0 0.04,0 0.07,-0.01 0,0 0,0 0,0 0.02,0 0.05,0.01 0.07,0.01 -0.09,0.02 -0.15,0.03 -0.2,0.04 0,0 -0.01,0 -0.01,0 -0.02,0 -0.04,0 -0.06,0z"/>
  <path class="fil1" d="M0.52 1.38c-0.01,0 -0.01,0 -0.02,0 -0.09,-0.02 -0.17,-0.03 -0.23,-0.04 -0.02,0 -0.05,-0.01 -0.07,-0.01 -0.02,0 -0.05,0 -0.07,0 -0.02,0 -0.03,0 -0.04,0 -0.01,0 -0.02,0 -0.03,0 -0.01,0 -0.02,0 -0.02,0.01 -0.01,0 -0.01,0 -0.01,0 -0.01,0 -0.01,0 -0.02,0 0,0 -0.01,0 -0.01,0l0 -0.05c0,0 0,0 0,0 0.02,0 0.03,-0.01 0.04,-0.01 0.03,0 0.06,0 0.09,0 0.03,0 0.07,0 0.11,0 0.08,0.01 0.16,0.02 0.24,0.05 0.01,0.01 0.03,0.02 0.04,0.02 0.03,0 0.04,0 0.05,0.01 0,0 0,0 0,0 -0.02,0.01 -0.03,0.01 -0.05,0.02 0,0 0,0 0,0z"/>
  <path class="fil1" d="M0.16 1.74c-0.01,0 0,-0.02 0.02,-0.05 0.01,-0.03 0.04,-0.07 0.07,-0.1 0.01,-0.01 0.02,-0.03 0.03,-0.04 0,0 0.01,-0.01 0.01,-0.02 0.01,0 0.02,-0.01 0.03,-0.02 0.02,-0.02 0.05,-0.04 0.07,-0.06 0.05,-0.03 0.09,-0.05 0.12,-0.07 0.01,0 0.01,0 0.01,0 0.02,-0.01 0.03,-0.01 0.05,-0.02 0.01,0 0.02,0 0.02,-0.01 0.03,0 0.05,-0.01 0.07,-0.01 0.02,0 0.04,-0.01 0.06,-0.01 0.04,0 0.07,0.01 0.08,0.02 0,0 -0.01,0.01 -0.01,0.01 0,0 0,0 -0.01,0 0,0 -0.01,-0.01 -0.02,-0.01 -0.03,0 -0.05,0.01 -0.08,0.01 -0.02,0.01 -0.04,0.02 -0.07,0.03 -0.04,0.01 -0.08,0.03 -0.12,0.06 -0.06,0.03 -0.11,0.07 -0.16,0.11 -0.04,0.04 -0.07,0.07 -0.1,0.11 -0.04,0.05 -0.07,0.07 -0.07,0.07z"/>
  <path class="fil1" d="M0.6 1.58c0,0 0,0 0,0 0,0 0,-0.01 0,-0.01 0,-0.01 0.01,-0.02 0.02,-0.03 0.02,-0.01 0.05,-0.04 0.11,-0.11 0.01,-0.01 0.02,-0.03 0.03,-0.04 0.01,-0.01 0.02,-0.02 0.03,-0.03 0,0 0.01,-0.01 0.01,-0.01 0.01,-0.01 0.01,-0.01 0.02,-0.01 0.06,-0.06 0.14,-0.07 0.22,-0.08 0,0 0,0 0,0 0.05,-0.01 0.1,-0.01 0.16,-0.02 0.02,0 0.05,0 0.07,-0.01 0.01,0 0.03,0 0.04,-0.01 0,0 0,0 0,0 0.01,0 0.01,0 0.02,0 0.02,0 0.05,-0.01 0.06,-0.01 0.01,0 0.01,0 0.01,0 0,0 0,0 0,0 0,0.01 0,0.01 0,0.01 -0.01,0 -0.01,0 -0.01,0 0,0 -0.01,0 -0.01,0.01 -0.01,0 -0.01,0 -0.01,0 -0.04,0 -0.08,0.01 -0.12,0.02 -0.01,0.01 -0.03,0.01 -0.04,0.01 -0.02,0.01 -0.04,0.01 -0.07,0.01 0,0.01 -0.01,0.01 -0.02,0.01 0,0 -0.01,0 -0.01,0 -0.09,0.01 -0.19,0.03 -0.26,0.08 0,0 0,0 0,0 -0.02,0.02 -0.04,0.03 -0.06,0.05 -0.01,0.01 -0.02,0.03 -0.03,0.04 -0.03,0.03 -0.06,0.07 -0.09,0.1 -0.02,0.01 -0.05,0.03 -0.07,0.03z"/>
  <path class="fil1" d="M1.24 1.5c0,-0.01 0,-0.03 0,-0.04 0.01,-0.08 0.11,-0.15 0.15,-0.22 0,-0.01 0,-0.01 0.01,-0.02 0,0 0,0 0,-0.01 0,0 0,0 0,0 0.03,-0.12 0.04,-0.15 0.15,-0.23 0.01,-0.01 0.02,-0.01 0.04,-0.02 0.01,-0.02 0.03,-0.03 0.05,-0.05 0.03,-0.02 0.05,-0.05 0.06,-0.06 0,0 0,0 0,0 0,0 0.01,0 0.01,0.01 -0.01,0.01 -0.02,0.02 -0.02,0.02 -0.12,0.15 -0.21,0.17 -0.23,0.28 -0.02,0.12 -0.08,0.16 -0.16,0.24 -0.01,0.02 -0.02,0.04 -0.03,0.06 -0.01,0.01 -0.01,0.02 -0.02,0.03 0,0.01 -0.01,0.01 -0.01,0.01z"/>
  <path class="fil1" d="M1.65 0.94c0,-0.01 0.02,-0.03 0.04,-0.06 0.03,-0.04 0.08,-0.11 0.09,-0.19 0,-0.01 0,-0.01 0,-0.02 0,-0.03 -0.01,-0.05 -0.01,-0.07 -0.01,-0.04 -0.03,-0.04 -0.04,-0.08 0,-0.04 0.04,-0.09 0.08,-0.15 0.01,-0.02 0.03,-0.04 0.04,-0.06 0.01,-0.01 0.01,-0.01 0.01,-0.02 0.01,-0.02 0.02,-0.03 0.04,-0.05 0,-0.01 0,-0.01 0.01,-0.02 0,0 0.01,-0.02 0.02,-0.02 0,0 0,0.01 0,0.01 0,0 0,0 0,0 0,0 0,0 0,0.01 0,0 0,0 0,0.01 0,0.02 -0.02,0.05 -0.04,0.09 -0.01,0.02 -0.02,0.03 -0.03,0.05 -0.01,0.01 -0.02,0.02 -0.02,0.04 -0.02,0.02 -0.03,0.05 -0.04,0.07 -0.01,0.01 -0.01,0.02 -0.02,0.03 0.01,0.01 0.01,0.01 0.01,0.01 0,0.01 0,0.01 0,0.02 0.03,0.04 0.06,0.12 -0.01,0.26 0,0 -0.01,0.01 -0.01,0.01 0,0.01 -0.01,0.02 -0.02,0.03 -0.01,0.03 -0.03,0.06 -0.05,0.08 -0.01,0.01 -0.02,0.02 -0.04,0.02 0,0 -0.01,0 -0.01,0z"/>
  <path class="fil1" d="M2.24 0.49c0,0 -0.01,0 -0.02,-0.01 -0.09,-0.09 -0.15,-0.14 -0.19,-0.18 -0.08,-0.08 -0.06,-0.09 -0.07,-0.17 0,-0.02 0,-0.06 -0.01,-0.1 0,-0.01 0,-0.01 -0.01,-0.03l0.05 0c0.01,0.02 0.01,0.05 0.02,0.08 0,0.02 0,0.05 0.01,0.08 0,0.05 -0.03,0.03 0.22,0.28 0.01,0.01 0.02,0.05 0,0.05z"/>
  <path class="fil1" d="M2.05 2.45c0,0 0,0 -0.01,0 0,0 0,0 0,0 0,0 0,0 0,0 -0.01,-0.04 0.06,-0.1 0.16,-0.16 0.14,-0.1 0.33,-0.19 0.39,-0.23 0.04,-0.03 0.08,-0.06 0.1,-0.09 0.08,-0.08 0.09,-0.16 0.13,-0.3 0.01,-0.04 0.03,-0.08 0.05,-0.13 0,-0.01 0,-0.02 0,-0.03 0.02,-0.03 0.02,-0.06 0.01,-0.09 0,-0.03 -0.01,-0.05 -0.02,-0.07 -0.01,-0.02 -0.01,-0.03 -0.01,-0.05 0.06,0.02 0.07,0.09 0.07,0.18 0,0 0,0 0,0.01 0,0 0,0 0,0 -0.02,0.18 -0.12,0.45 -0.16,0.49 -0.06,0.08 -0.14,0.14 -0.59,0.38 -0.02,0.01 -0.04,0.02 -0.06,0.03 -0.03,0.03 -0.05,0.05 -0.06,0.06 0,0 0,0 0,0z"/>
  <path class="fil1" d="M2.94 1.5c-0.01,0 -0.01,0 -0.01,-0.01 -0.01,-0.01 0,-0.02 0.01,-0.04 0.02,-0.03 0.04,-0.05 0.06,-0.08 0.03,-0.04 0.07,-0.09 0.09,-0.15 0,-0.01 0,-0.02 0.01,-0.02 0.03,-0.11 0.03,-0.33 0.05,-0.39 0,-0.01 0.01,-0.02 0.01,-0.02 0.01,0 0.01,0 0.01,0 0,0 0,0 0,0.01 0.01,0 0.01,0 0.01,0.01 0.03,0.04 0,0.13 -0.01,0.27 -0.01,0.23 -0.17,0.34 -0.22,0.4 0,0.01 -0.01,0.02 -0.01,0.02z"/>
  <path class="fil1" d="M0.5 2.96c-0.01,0 -0.01,0 -0.01,0 0.02,0 0.03,-0.01 0.04,-0.01 0.03,-0.02 0,-0.01 -0.08,-0.02 0.01,-0.01 0.03,-0.02 0.06,-0.03 0.01,0 0.03,-0.01 0.05,-0.01 0.17,-0.06 0.13,-0.09 0.26,-0.18 0.17,-0.08 0.18,-0.31 0.2,-0.33 0,0 0.01,-0.01 0.01,-0.01 0.01,0 0.01,0 0.01,0 0,0 0.01,0 0.01,0.01 0.02,0.01 0.03,0.06 0,0.14 -0.01,0.01 -0.01,0.02 -0.02,0.03 -0.01,0.02 -0.02,0.05 -0.05,0.08 0,0.02 -0.01,0.03 -0.02,0.04 0,0 0,0 -0.01,0.01 -0.07,0.09 -0.17,0.17 -0.26,0.22 -0.07,0.04 -0.15,0.06 -0.19,0.06z"/>
  <path class="fil1" d="M0.37 2.96c-0.09,0 -0.17,-0.02 -0.26,-0.05 -0.12,-0.04 -0.1,-0.03 -0.11,-0.04l0 -0.06c0,0 0.01,0 0.01,0 0.01,0 0.01,0.01 0.02,0.01 0,0.01 0.01,0.01 0.02,0.01 0.18,0.08 0.32,0.1 0.4,0.1 0.08,0.01 0.11,0 0.08,0.02 -0.01,0 -0.02,0.01 -0.04,0.01 -0.01,0 -0.03,0 -0.05,0 0,0 -0.01,0 -0.02,0 0,0 -0.01,0 -0.01,0 -0.01,0 -0.02,0 -0.03,0 0,0 -0.01,0 -0.01,0z"/>
  <path class="fil1" d="M0.24 1.58c0,0 -0.01,0 -0.02,-0.01 0,0 0,0 0,0 -0.02,-0.01 -0.04,-0.02 -0.07,-0.03 0,0 0,0 0,0 0,0 -0.01,0 -0.01,-0.01 -0.01,0 -0.01,0 -0.02,0 -0.01,-0.01 -0.03,-0.01 -0.05,-0.02 -0.01,0 -0.01,0 -0.02,0 -0.02,-0.01 -0.03,-0.01 -0.05,-0.01l0 -0.01c0.02,0 0.04,0.01 0.06,0.01 0,0 0.01,0.01 0.02,0.01 0.02,0 0.04,0.01 0.05,0.01 0.01,0.01 0.01,0.01 0.02,0.01 0,0 0.01,0 0.01,0.01 0.03,0 0.05,0.01 0.06,0.02 0.01,0.01 0.01,0.01 0.01,0.01 0,0 0,0 0,0 0.01,0.01 0.02,0.01 0.01,0.01 0,0 0,0 0,0z"/>
  <path class="fil1" d="M0.14 1.69c-0.01,-0.01 -0.03,-0.02 -0.04,-0.03 0,0 -0.01,0 -0.01,0 -0.02,-0.02 -0.04,-0.03 -0.05,-0.04 -0.01,0 -0.02,0 -0.02,-0.01 -0.01,0 -0.01,0 -0.02,-0.01l0 0c0,0 0,0 0,0 0.01,0 0.02,0 0.02,0.01 0.01,0 0.02,0 0.02,0.01 0.02,0.01 0.04,0.02 0.06,0.03 0,0 0,0.01 0.01,0.01 0.01,0.01 0.02,0.02 0.03,0.03z"/>
  <path class="fil1" d="M0.01 1.75c0,0 0,0 0,0 -0.01,0 -0.01,0 -0.01,-0.01l0 0c0,0 0,0 0.01,0.01 0,0 0,0 0,0z"/>
  <path class="fil1" d="M0.73 1.5c0,0 0,0 0,0 0,-0.02 0.06,-0.04 0.14,-0.06 0,0 0.01,0 0.01,0 0.03,-0.01 0.06,-0.01 0.09,-0.01 0,0 0.01,0 0.01,0 0.02,0 0.03,0 0.04,0 0.03,0 0.06,0 0.09,0 0,0 0.01,0 0.01,0.01 0.02,0 0.03,0 0.05,0.01 0,0 0,0 0,0 0,0 0.01,0 0.01,0.01 0.01,0 0.02,0.01 0.01,0.01 0,0 0,0 -0.01,-0.01 -0.01,0 -0.01,0 -0.02,0 0,0 0,0 0,0 -0.01,-0.01 -0.03,-0.01 -0.04,-0.02 -0.01,0 -0.01,0 -0.02,0 -0.02,0 -0.05,0 -0.08,0 -0.02,0 -0.03,0 -0.05,0 0,0 -0.01,0 -0.01,0 -0.03,0 -0.06,0 -0.09,0.01 0,0 -0.01,0 -0.01,0 -0.05,0.01 -0.09,0.03 -0.12,0.04 0.01,0 0,0.01 -0.01,0.01z"/>
  <path class="fil1" d="M1.1 1.6c0,0 0,0 0,0 -0.02,0 -0.03,-0.01 -0.05,-0.02 -0.01,0 -0.01,0 -0.01,0 -0.02,-0.01 -0.05,-0.01 -0.08,-0.01 -0.04,0 -0.08,0 -0.13,0.01 0,0 0,0 0,0 -0.01,0 -0.01,0 -0.02,0 -0.02,0.01 -0.03,0.01 -0.04,0.01 -0.01,0 -0.01,0 -0.02,0 0,0 0,0 0,0 -0.02,0 -0.01,0 0.01,-0.01 0,0 0.01,0 0.01,-0.01 0.01,0 0.01,0 0.02,0 0.01,0 0.02,-0.01 0.04,-0.01 0.01,0 0.01,0 0.02,0 0.03,-0.01 0.07,-0.01 0.1,-0.01 0.03,0 0.07,0 0.09,0.01 0.01,0 0.01,0 0.01,0 0.02,0.01 0.04,0.02 0.05,0.04 0,0 0,0 0,0z"/>
  <path class="fil1" d="M1.11 1.76c-0.01,0 -0.02,-0.01 -0.03,-0.01 -0.01,-0.01 -0.01,-0.01 -0.02,-0.01 -0.02,-0.01 -0.04,-0.03 -0.07,-0.04 -0.01,0 -0.01,0 -0.02,0 -0.01,-0.01 -0.02,-0.01 -0.03,-0.02 -0.05,-0.01 -0.08,-0.01 -0.1,-0.01 0,0 0,0 -0.01,0 0,0 0,0 0,0 -0.01,0 -0.01,0 -0.01,-0.01 0,-0.01 0.01,-0.01 0.02,-0.01 0.03,0 0.09,0.01 0.14,0.03 0.01,0 0.01,0 0.01,0.01 0.03,0.01 0.06,0.02 0.08,0.03 0,0 0.01,0.01 0.01,0.01 0.02,0.01 0.02,0.02 0.03,0.03z"/>
  <path class="fil1" d="M0.98 1.9l-0.16 -0.04c0,0 0,-0.01 0,-0.01 0,0 0,0 0,0 0.06,0.02 0.12,0.02 0.16,0.05z"/>
  <path class="fil1" d="M1.03 2.03c-0.02,0 -0.07,-0.02 -0.09,-0.04 -0.01,0 0,-0.01 0,-0.01 0.01,0 0.01,0 0.01,0 0.02,0.02 0.04,0.02 0.07,0.03 0.02,0.02 0.02,0.02 0.01,0.02z"/>
  <path class="fil1" d="M1.54 1.28c0,0 0,-0.01 0.01,-0.02 0.02,-0.04 0.07,-0.1 0.1,-0.12 0,-0.01 0,-0.01 0.01,-0.01 0,-0.01 0.01,-0.01 0.01,-0.02 0.01,-0.01 0.03,-0.02 0.04,-0.04 0,0 0.01,-0.01 0.01,-0.01 0.01,-0.01 0.02,-0.02 0.03,-0.03 0.01,0 0.01,-0.01 0.01,-0.01 0.02,-0.01 0.03,-0.03 0.05,-0.04 0,-0.01 0.01,-0.01 0.02,-0.02 0.03,-0.03 0.06,-0.03 0.06,-0.03 0.01,0 0.01,0.01 0.01,0.01 -0.02,0.01 -0.05,0.03 -0.07,0.04 0,0.01 -0.01,0.01 -0.02,0.02 -0.02,0.01 -0.03,0.02 -0.05,0.04 0,0 0,0 0,0.01 -0.02,0.01 -0.03,0.02 -0.04,0.03 0,0 -0.01,0.01 -0.01,0.01 -0.01,0.01 -0.03,0.03 -0.04,0.04 0,0 -0.01,0.01 -0.01,0.01 -0.06,0.07 -0.1,0.12 -0.11,0.14 -0.01,0 -0.01,0 -0.01,0z"/>
  <path class="fil1" d="M1.58 1.42c0.01,-0.02 0.05,-0.06 0.11,-0.11 0,0 0,0 0.01,-0.01 0.01,-0.01 0.02,-0.02 0.03,-0.03 0.01,0 0.01,0 0.02,-0.01 0.01,-0.01 0.03,-0.02 0.04,-0.03 0.01,0 0.01,-0.01 0.02,-0.01 0.01,-0.01 0.03,-0.02 0.05,-0.03 0,0 0.01,-0.01 0.01,-0.01 0.02,-0.01 0.05,-0.02 0.07,-0.03 0,0 0,0 0,0 0,0 0,0 0,0 -0.02,0.01 -0.05,0.03 -0.07,0.04 0,0 -0.01,0 -0.01,0.01 -0.02,0.01 -0.04,0.02 -0.05,0.03 -0.01,0 -0.01,0 -0.01,0.01 -0.02,0.01 -0.04,0.02 -0.05,0.03 -0.01,0 -0.01,0.01 -0.02,0.01 -0.01,0.01 -0.02,0.02 -0.03,0.03 0,0 -0.01,0.01 -0.01,0.01 -0.06,0.05 -0.1,0.09 -0.11,0.1z"/>
  <path class="fil1" d="M1.68 1.51c0.01,-0.02 0.05,-0.06 0.09,-0.1 0,0 0.01,0 0.01,0 0.02,-0.02 0.03,-0.03 0.05,-0.04 0,-0.01 0.01,-0.01 0.01,-0.01 0.03,-0.03 0.06,-0.05 0.07,-0.05 0,0 -0.02,0.02 -0.07,0.06 0,0 0,0 -0.01,0.01 0,0 0,0 0,0 -0.02,0.02 -0.04,0.03 -0.05,0.04 0,0 0,0 0,0 -0.09,0.08 -0.07,0.08 -0.1,0.09z"/>
  <path class="fil1" d="M1.77 1.57c0,0 0,0 0,-0.01 0.04,-0.05 0.14,-0.13 0.15,-0.13 0,0 -0.01,0.02 -0.05,0.06 -0.02,0.01 -0.09,0.08 -0.1,0.08z"/>
  <path class="fil1" d="M1.8 1.75c0,0 0,0 0,0 0.02,-0.06 0.18,-0.18 0.2,-0.18 0.01,0 -0.01,0.02 -0.08,0.08 -0.03,0.03 -0.11,0.1 -0.12,0.1z"/>
  <path class="fil1" d="M1.98 0.6c0,0 0.01,-0.01 0.01,-0.02 0,0 0.01,-0.01 0.01,-0.01 0,-0.01 0.01,-0.02 0.01,-0.02 0,-0.01 0,-0.01 0.01,-0.01 0,-0.01 0,-0.02 0.01,-0.02 0,-0.01 0,-0.01 0.01,-0.02 0,0 0,-0.01 0.01,-0.01 0.01,-0.03 0.03,-0.05 0.04,-0.06 0,0 0,0 0.01,0 0,0 0,0.01 0,0.01 0,0 0,0.01 0,0.01 0,0 -0.01,0 -0.05,0.05 0,0.01 0,0.01 -0.01,0.02 0,0.01 -0.01,0.02 -0.02,0.03 0,0 0,0 0,0 0,0 0,0.01 0,0.01 -0.01,0.01 -0.01,0.01 -0.02,0.02 0,0 0,0 0,0.01 -0.01,0.01 -0.02,0.01 -0.02,0.01z"/>
  <path class="fil1" d="M2.03 0.8c0,0 0,-0.01 0,-0.02 0,-0.02 0.01,-0.05 0.02,-0.08 0,0 0,-0.01 0,-0.01 0.01,-0.01 0.01,-0.02 0.02,-0.03 0,0 0,0 0,-0.01 0.01,-0.01 0.02,-0.02 0.02,-0.04 0.01,0 0.01,-0.01 0.02,-0.01 0,-0.01 0.01,-0.02 0.02,-0.02 0,0 0,0 0,0 0.01,0.01 0,0.01 -0.01,0.04 -0.01,0 -0.01,0.01 -0.02,0.01 0,0.01 -0.01,0.03 -0.02,0.04 0,0 0,0.01 0,0.01 -0.01,0.01 -0.01,0.02 -0.02,0.03 0,0 0,0 0,0 0,0.01 0,0.01 0,0.01 -0.01,0.03 -0.02,0.06 -0.03,0.08 0,0 0,0 0,0z"/>
  <path class="fil1" d="M2.16 0.92c0,-0.01 0.01,-0.03 0.02,-0.05 0,-0.01 0,-0.01 0,-0.01 0.01,-0.01 0.02,-0.03 0.03,-0.04 0.01,0 0.01,-0.01 0.01,-0.01 0.03,-0.03 0.05,-0.05 0.06,-0.05 0,0 0,0 0,0 0,0 0,0 0.01,0 0,0 0,0 0,0 0,0.01 0,0.01 -0.01,0.01 -0.02,0.02 -0.04,0.03 -0.05,0.05 0,0 -0.01,0.01 -0.01,0.01 -0.01,0.01 -0.02,0.03 -0.03,0.04 0,0 0,0.01 0,0.01 -0.01,0.01 -0.02,0.03 -0.03,0.04z"/>
  <path class="fil1" d="M2.21 1c0,-0.02 0.01,-0.04 0.01,-0.06 0.01,0 0.01,0 0.01,0 0,-0.02 0.01,-0.03 0.02,-0.04 0,-0.01 0.01,-0.01 0.01,-0.01 0,0 0,0 0,0 0,0 0.01,0.01 0,0.01 0,0 0,0 0,0 -0.01,0.02 -0.02,0.03 -0.02,0.05 -0.01,0 -0.01,0 -0.01,0.01 0,0.01 -0.01,0.02 -0.02,0.04z"/>
  <path class="fil1" d="M2.3 1.13c0,-0.04 0.02,-0.08 0.03,-0.12 0,-0.01 0,-0.01 0,-0.01 0.01,0 0.01,0.01 0.01,0.01 -0.01,0.04 -0.02,0.09 -0.04,0.12z"/>
  <path class="fil1" d="M2.1 0.09c0,0 -0.01,-0.01 -0.02,-0.02 0,-0.03 -0.01,-0.05 -0.01,-0.07l0.01 0c0.01,0.02 0.01,0.04 0.02,0.06 0,0.01 0,0.03 0,0.03z"/>
  <path class="fil1" d="M2.26 0.12c-0.01,0 -0.01,0 -0.01,-0.01 -0.03,-0.03 -0.05,-0.07 -0.06,-0.11l0.01 0c0.01,0.01 0.01,0.03 0.02,0.05 0.01,0.03 0.04,0.07 0.04,0.07z"/>
  <path class="fil1" d="M2.38 0c0,0 0,0 0,0l0 0c0,0 0,0 0,0z"/>
 </g>
</svg>
